<svg width="32" height="40" viewBox="0 0 32 40" xmlns="http://www.w3.org/2000/svg">
  <!-- Marker background -->
  <path d="M16 0C7.16 0 0 7.16 0 16c0 12 16 24 16 24s16-12 16-24C32 7.16 24.84 0 16 0z" fill="currentColor"/>
  
  <!-- Apartment building icon -->
  <g transform="translate(6, 4)">
    <!-- Main building -->
    <rect x="2" y="4" width="16" height="16" fill="white"/>
    <!-- Roof -->
    <polygon points="1,4 10,1 19,4" fill="white"/>
    <!-- Windows grid -->
    <rect x="4" y="7" width="2" height="2" fill="currentColor"/>
    <rect x="7" y="7" width="2" height="2" fill="currentColor"/>
    <rect x="11" y="7" width="2" height="2" fill="currentColor"/>
    <rect x="14" y="7" width="2" height="2" fill="currentColor"/>
    
    <rect x="4" y="11" width="2" height="2" fill="currentColor"/>
    <rect x="7" y="11" width="2" height="2" fill="currentColor"/>
    <rect x="11" y="11" width="2" height="2" fill="currentColor"/>
    <rect x="14" y="11" width="2" height="2" fill="currentColor"/>
    
    <rect x="4" y="15" width="2" height="2" fill="currentColor"/>
    <rect x="14" y="15" width="2" height="2" fill="currentColor"/>
    
    <!-- Entrance -->
    <rect x="8" y="15" width="4" height="5" fill="currentColor"/>
  </g>
</svg>