<svg width="32" height="40" viewBox="0 0 32 40" xmlns="http://www.w3.org/2000/svg">
  <!-- Marker background -->
  <path d="M16 0C7.16 0 0 7.16 0 16c0 12 16 24 16 24s16-12 16-24C32 7.16 24.84 0 16 0z" fill="currentColor"/>
  
  <!-- Business building icon -->
  <g transform="translate(6, 5)">
    <!-- Main building -->
    <rect x="2" y="6" width="16" height="12" fill="white"/>
    <!-- Roof -->
    <polygon points="1,6 10,3 19,6" fill="white"/>
    
    <!-- Ground floor (shop windows) -->
    <rect x="3" y="14" width="6" height="4" fill="currentColor"/>
    <rect x="11" y="14" width="6" height="4" fill="currentColor"/>
    
    <!-- Upper floor windows -->
    <rect x="4" y="9" width="2" height="2" fill="currentColor"/>
    <rect x="7" y="9" width="2" height="2" fill="currentColor"/>
    <rect x="11" y="9" width="2" height="2" fill="currentColor"/>
    <rect x="14" y="9" width="2" height="2" fill="currentColor"/>
    
    <!-- Sign -->
    <rect x="3" y="12" width="14" height="1" fill="white"/>
    
    <!-- Door -->
    <rect x="9" y="15" width="2" height="3" fill="white"/>
  </g>
</svg>