<svg width="32" height="40" viewBox="0 0 32 40" xmlns="http://www.w3.org/2000/svg">
  <!-- Marker background -->
  <path d="M16 0C7.16 0 0 7.16 0 16c0 12 16 24 16 24s16-12 16-24C32 7.16 24.84 0 16 0z" fill="currentColor"/>
  
  <!-- Townhouse icon -->
  <g transform="translate(4, 5)">
    <!-- First house -->
    <rect x="0" y="8" width="7" height="10" fill="white"/>
    <!-- First roof -->
    <polygon points="0,8 3.5,4 7,8" fill="white"/>
    <!-- Second house -->
    <rect x="6" y="6" width="7" height="12" fill="white"/>
    <!-- Second roof -->
    <polygon points="6,6 9.5,2 13,6" fill="white"/>
    <!-- Third house -->
    <rect x="12" y="9" width="7" height="9" fill="white"/>
    <!-- Third roof -->
    <polygon points="12,9 15.5,5 19,9" fill="white"/>
    
    <!-- Doors -->
    <rect x="2" y="14" width="2" height="4" fill="currentColor"/>
    <rect x="8" y="14" width="2" height="4" fill="currentColor"/>
    <rect x="14" y="14" width="2" height="4" fill="currentColor"/>
    
    <!-- Windows -->
    <rect x="1" y="11" width="1.5" height="1.5" fill="currentColor"/>
    <rect x="4.5" y="11" width="1.5" height="1.5" fill="currentColor"/>
    <rect x="7" y="9" width="1.5" height="1.5" fill="currentColor"/>
    <rect x="10.5" y="9" width="1.5" height="1.5" fill="currentColor"/>
    <rect x="13" y="12" width="1.5" height="1.5" fill="currentColor"/>
    <rect x="16.5" y="12" width="1.5" height="1.5" fill="currentColor"/>
  </g>
</svg>