<?xml version="1.0" encoding="UTF-8"?><svg xmlns="http://www.w3.org/2000/svg" viewBox="0 0 559.7 75.45"><defs><style>.d{fill:#f1b400;}.e{fill:#474b57;}</style></defs><g id="a"/><g id="b"><g id="c"><g><g><path class="e" d="M553.18,72.2h4.48v-6.56h1.78v8.44h-14.13v-8.34h1.78v6.46h4.34v-5.96h1.76v5.96Z"/><path class="e" d="M559.7,58.82c0,1.32-.31,2.45-.92,3.38s-1.46,1.59-2.55,1.97l-.93-1.62c1.71-.54,2.56-1.8,2.56-3.77,0-.96-.2-1.69-.59-2.21s-.92-.78-1.6-.78-1.16,.26-1.51,.77c-.31,.46-.67,1.31-1.07,2.56l-.44,1.35c-.12,.3-.3,.69-.53,1.17-.24,.47-.48,.81-.73,1.03-.65,.59-1.43,.89-2.36,.89-1.24,0-2.21-.43-2.91-1.29-.73-.86-1.09-1.91-1.09-3.15,0-1.1,.28-2.07,.83-2.91,.55-.83,1.31-1.46,2.26-1.88l.91,1.57c-1.45,.61-2.18,1.68-2.18,3.21,0,.77,.19,1.39,.57,1.86,.38,.47,.89,.71,1.53,.71s1.09-.22,1.41-.67c.34-.46,.67-1.22,1.01-2.3l.26-.83c.18-.46,.27-.71,.28-.75,.16-.43,.38-.9,.67-1.41,.2-.36,.51-.73,.93-1.09,.47-.47,1.18-.71,2.12-.71,1.24,0,2.23,.45,2.97,1.35,.73,.92,1.09,2.09,1.09,3.53Z"/><path class="e" d="M545.31,53.37v-10.2h1.78v4.18h12.35v1.86h-12.35v4.16h-1.78Z"/><path class="e" d="M559.44,31.04v2l-3.17,1.15v6.36l3.17,1.15v2l-14.13-5.27v-2.12l14.13-5.27Zm-11.89,6.34l6.96,2.52v-5.07l-6.96,2.54Z"/><path class="e" d="M545.31,31.55v-10.2h1.78v4.18h12.35v1.86h-12.35v4.16h-1.78Z"/><path class="e" d="M553.18,17.62h4.48v-6.56h1.78v8.44h-14.13V11.16h1.78v6.46h4.34v-5.96h1.76v5.96Z"/></g><g><path class="e" d="M88.45,53.4V11.08h16.12V51.87c0,5.28,2.94,7.92,8.82,7.92s8.82-2.64,8.82-7.92V11.08h16.12V53.4c0,6.6-2.34,11.95-7.02,16.03-4.56,4.02-10.53,6.03-17.92,6.03s-13.39-2.01-18.01-6.03c-4.62-4.08-6.93-9.42-6.93-16.03Z"/><path class="e" d="M182.36,42.77V11.08h16.03v63.02h-12.42l-22.24-31.69v31.69h-16.12V11.08h12.51l22.24,31.69Z"/><path class="e" d="M208.37,11.08h25.66c8.64,0,15.9,3.03,21.79,9.09,5.88,6.06,8.82,13.54,8.82,22.42s-2.94,16.45-8.82,22.51c-5.82,6-13.09,9-21.79,9h-25.66V11.08Zm16.57,47.45h9.09c4.32,0,7.89-1.44,10.71-4.32,2.76-2.94,4.14-6.81,4.14-11.61s-1.38-8.7-4.14-11.52c-2.76-2.94-6.33-4.41-10.71-4.41h-9.09v31.87Z"/><path class="e" d="M288.23,49.71v9.27h24.4v15.13h-40.51V11.08h40.06v15.03h-23.95v8.73h21.7v14.86h-21.7Z"/><path class="e" d="M370.43,74.1h-17.29l-10.98-20.35h-5.76v20.35h-16.12V11.08h25.21c6.42,0,11.79,2.07,16.12,6.21,4.38,4.02,6.57,9.21,6.57,15.58,0,3.72-.96,7.17-2.88,10.35-1.92,3.18-4.53,5.7-7.83,7.56l12.96,23.32Zm-25.12-48.17h-8.91v14.13h8.91c1.98,.06,3.6-.57,4.86-1.89,1.26-1.32,1.89-3.03,1.89-5.13s-.63-3.81-1.89-5.13c-1.26-1.32-2.88-1.98-4.86-1.98Z"/><path class="e" d="M397.62,75.45c-6.54,0-12.02-1.38-16.43-4.14-4.41-2.76-7.52-6.6-9.32-11.52l13.77-8.01c2.34,5.58,6.48,8.37,12.42,8.37,4.92,0,7.38-1.41,7.38-4.23,0-1.8-1.41-3.3-4.23-4.5-.96-.36-3.6-1.17-7.92-2.43-6.12-1.74-10.77-4.17-13.96-7.29-3.18-3.12-4.77-7.26-4.77-12.42,0-5.82,2.07-10.53,6.21-14.13,4.26-3.6,9.48-5.4,15.67-5.4,5.28,0,9.96,1.25,14.04,3.74,4.08,2.49,7.2,6.05,9.36,10.67l-13.51,7.92c-1.98-4.68-5.25-7.02-9.81-7.02-1.86,0-3.3,.38-4.32,1.13-1.02,.75-1.53,1.75-1.53,3.02,0,1.38,.73,2.55,2.2,3.51,1.47,.96,4.34,2.07,8.6,3.33,3.18,.96,5.64,1.8,7.38,2.52,1.98,.84,4.02,1.98,6.12,3.42,4.38,2.88,6.57,7.47,6.57,13.77s-2.19,11.01-6.57,14.49c-4.38,3.48-10.17,5.22-17.38,5.22Z"/><path class="e" d="M427.24,53.4V11.08h16.12V51.87c0,5.28,2.94,7.92,8.82,7.92s8.82-2.64,8.82-7.92V11.08h16.12V53.4c0,6.6-2.34,11.95-7.02,16.03-4.56,4.02-10.53,6.03-17.92,6.03s-13.39-2.01-18.01-6.03c-4.62-4.08-6.93-9.42-6.93-16.03Z"/><path class="e" d="M521.14,42.77V11.08h16.03v63.02h-12.42l-22.24-31.69v31.69h-16.12V11.08h12.51l22.24,31.69Z"/></g><g><path class="e" d="M64.77,10.8c-3.8,28.03-25.95,50.22-53.95,54.1v9.74h63.85V10.8h-9.9Z"/><path class="d" d="M62.83,8.88c.26-1.94,.44-3.9,.52-5.89V0H0V63.36H5.67c1.08-.09,2.15-.22,3.22-.37,28.01-3.89,50.15-26.07,53.95-54.1Z"/></g></g></g></g></svg>