<svg width="192" height="29" viewBox="0 0 192 29" fill="none" xmlns="http://www.w3.org/2000/svg">
<path d="M96.1433 27.5922V24.2404C94.8864 25.3789 93.6112 26.4901 92.3178 27.5922H96.1433Z" fill="#1A1A1A"/>
<path d="M118.623 14.4125C119.442 13.0554 119.852 11.5798 119.852 9.99498C119.852 7.2807 118.914 5.06739 117.047 3.34592C116.728 3.03624 116.391 2.7721 116.036 2.51706C114.706 4.27497 113.349 6.00554 111.946 7.69969C112.019 7.76344 112.092 7.81809 112.165 7.88185C112.702 8.44657 112.975 9.17523 112.975 10.0678C112.975 10.9605 112.702 11.6982 112.165 12.2538C111.627 12.8186 110.935 13.0827 110.088 13.0645H107.31C104.769 15.8789 102.137 18.5932 99.4041 21.2164V27.5922H106.281V18.912H108.74L113.431 27.5922H120.809L115.28 17.6368C116.692 16.8444 117.803 15.7696 118.623 14.4125Z" fill="#1A1A1A"/>
<path d="M139.836 13.8751C138.943 13.2557 138.069 12.773 137.222 12.4178C136.475 12.1081 135.427 11.7529 134.07 11.343C132.249 10.8056 131.028 10.332 130.4 9.92211C129.771 9.51224 129.461 9.01128 129.461 8.41924C129.461 7.88185 129.68 7.45376 130.117 7.13497C130.554 6.81618 131.165 6.65223 131.957 6.65223C133.906 6.65223 135.3 7.65414 136.147 9.64886L141.912 6.26968C140.993 4.29318 139.654 2.78121 137.914 1.71553C136.174 0.649863 134.17 0.121582 131.921 0.121582C129.279 0.121582 127.057 0.886679 125.235 2.42598C123.468 3.96528 122.585 5.97822 122.585 8.45568C122.585 10.6599 123.268 12.4269 124.625 13.7567C125.982 15.0865 127.968 16.1249 130.582 16.8717C132.422 17.4091 133.551 17.7552 133.961 17.9101C135.163 18.4202 135.764 19.0668 135.764 19.8319C135.764 21.0342 134.717 21.6354 132.613 21.6354C130.081 21.6354 128.314 20.4422 127.312 18.0649L121.437 21.4805C122.202 23.5846 123.532 25.2241 125.417 26.399C127.303 27.574 129.635 28.166 132.431 28.166C135.509 28.166 137.978 27.4192 139.845 25.9345C141.712 24.4498 142.65 22.3823 142.65 19.75C142.65 17.1177 141.712 15.1047 139.845 13.8751H139.836Z" fill="#1A1A1A"/>
<path d="M159.473 18.1014C159.473 20.3602 158.216 21.4805 155.712 21.4805C153.207 21.4805 151.95 20.3511 151.95 18.1014V0.695405H145.073V18.7572C145.073 21.5716 146.057 23.8578 148.033 25.5975C150.01 27.3099 152.569 28.1751 155.721 28.1751C158.872 28.1751 161.422 27.319 163.372 25.5975C165.366 23.8578 166.368 21.5716 166.368 18.7572V0.695405H159.492V18.1014H159.473Z" fill="#1A1A1A"/>
<path d="M185.14 0.695405V14.2212L175.65 0.695405H170.303V27.5922H177.189V14.0664L186.68 27.5922H191.981V0.695405H185.14Z" fill="#1A1A1A"/>
<path d="M14.8791 18.1014C14.8791 20.3602 13.6221 21.4805 11.1173 21.4805C8.61255 21.4805 7.3556 20.3511 7.3556 18.1014V0.695405H0.469727V18.7572C0.469727 21.5716 1.45342 23.8578 3.42992 25.5975C5.40642 27.3099 7.96586 28.1751 11.1173 28.1751C14.2688 28.1751 16.8191 27.319 18.7683 25.5975C20.763 23.8578 21.7649 21.5716 21.7649 18.7572V0.695405H14.8882V18.1014H14.8791Z" fill="#F1B400"/>
<path d="M40.5462 14.2212L31.0554 0.695405H25.7179V27.5922H32.5947V14.0664L42.0855 27.5922H47.3866V0.695405H40.5462V14.2212Z" fill="#F1B400"/>
<path d="M62.6065 0.695405H51.6584V27.5922H62.6065C66.3227 27.5922 69.4195 26.3079 71.9061 23.7485C74.42 21.1618 75.6678 17.9556 75.6678 14.1393C75.6678 10.3229 74.4109 7.1623 71.9061 4.57554C69.3922 1.98878 66.2954 0.695405 62.6065 0.695405ZM67.1789 19.1033C65.9766 20.3329 64.4464 20.9432 62.6065 20.9432H58.7264V7.34446H62.6065C64.4737 7.34446 66.0039 7.97293 67.1789 9.22988C68.3539 10.4322 68.9459 12.0717 68.9459 14.1484C68.9459 16.2251 68.3539 17.8463 67.1789 19.1033Z" fill="#F1B400"/>
<path d="M85.7325 21.1435V17.1814H94.9956V10.842H85.7325V7.11675H95.952V0.695405H78.8557V27.5922H92.3178C93.6112 26.4992 94.8864 25.3789 96.1433 24.2404V21.1344H85.7325V21.1435Z" fill="#F1B400"/>
<path d="M107.319 13.0736H106.29V7.03478H110.097C110.835 7.03478 111.454 7.26249 111.955 7.69969C113.358 6.00554 114.715 4.27497 116.045 2.51706C114.396 1.31477 112.438 0.695405 110.17 0.695405H99.4132V21.2164C102.146 18.6023 104.787 15.8789 107.319 13.0645V13.0736Z" fill="#F1B400"/>
</svg>
