<?xml version="1.0" encoding="UTF-8"?><svg xmlns="http://www.w3.org/2000/svg" viewBox="0 0 181.82 88.96"><defs><style>.d{fill:#f1b400;}.e{fill:#fff;}</style></defs><g id="a"/><g id="b"><g id="c"><g><g><path class="e" d="M119.04,86.94h2.93v-4.29h1.16v5.52h-9.24v-5.45h1.16v4.22h2.84v-3.89h1.15v3.89Z"/><path class="e" d="M123.3,78.19c0,.86-.2,1.6-.6,2.21s-.96,1.04-1.67,1.29l-.61-1.06c1.12-.35,1.68-1.17,1.68-2.47,0-.62-.13-1.11-.38-1.45-.25-.34-.6-.51-1.04-.51s-.76,.17-.99,.5c-.2,.3-.44,.86-.7,1.68l-.29,.88c-.08,.19-.19,.45-.34,.77-.16,.31-.32,.53-.47,.67-.42,.39-.94,.58-1.55,.58-.81,0-1.44-.28-1.9-.84-.48-.56-.71-1.25-.71-2.06,0-.72,.18-1.36,.54-1.9,.36-.55,.85-.95,1.48-1.23l.59,1.03c-.95,.4-1.43,1.1-1.43,2.1,0,.5,.12,.91,.37,1.21,.25,.31,.58,.46,1,.46s.71-.15,.92-.44c.22-.3,.44-.8,.66-1.5l.17-.54c.11-.3,.18-.46,.19-.49,.11-.28,.25-.59,.44-.92,.13-.24,.33-.48,.61-.71,.31-.31,.77-.46,1.39-.46,.81,0,1.46,.29,1.94,.88,.47,.6,.71,1.37,.71,2.31Z"/><path class="e" d="M113.89,74.62v-6.67h1.16v2.73h8.08v1.21h-8.08v2.72h-1.16Z"/><path class="e" d="M123.13,60.02v1.31l-2.07,.75v4.16l2.07,.75v1.31l-9.24-3.45v-1.39l9.24-3.45Zm-7.77,4.14l4.55,1.65v-3.31l-4.55,1.66Z"/><path class="e" d="M113.89,60.35v-6.67h1.16v2.73h8.08v1.21h-8.08v2.72h-1.16Z"/><path class="e" d="M119.04,51.25h2.93v-4.29h1.16v5.52h-9.24v-5.45h1.16v4.22h2.84v-3.89h1.15v3.89Z"/></g><g><path class="e" d="M93.68,0h-9.27c1.72,2.87,3.21,5.9,4.45,9.05h4.81c3.25,0,5.88,1.06,7.87,3.17,2.04,2.04,3.06,4.82,3.06,8.34s-1.02,6.33-3.06,8.4c-2,2.08-4.62,3.11-7.87,3.11h-.53c-.02,3.07-.26,6.1-.72,9.05h1.25c5.68,0,10.42-1.96,14.22-5.88,3.84-3.96,5.76-8.85,5.76-14.69s-1.92-10.67-5.76-14.63c-3.84-3.96-8.58-5.93-14.22-5.93Z"/><polygon class="e" points="128.35 24.79 143.04 24.79 143.04 15.86 128.35 15.86 128.35 9.05 144.51 9.05 144.51 0 118.95 0 118.95 41.13 144.8 41.13 144.8 32.08 128.35 32.08 128.35 24.79"/><path class="e" d="M173.06,26.03c2.27-1.18,4.1-2.84,5.49-4.99,1.39-2.15,2.09-4.47,2.09-6.93,0-3.92-1.37-7.25-4.11-9.99-2.74-2.74-6.07-4.11-9.99-4.11h-16.45V41.13h9.4v-13.51h4.47l7.76,13.51h10.11l-8.75-15.1Zm-3.2-8.17c-.92,1.02-2.03,1.53-3.32,1.53h-7.05V8.81h7.05c1.29,0,2.4,.51,3.32,1.53,.92,1.02,1.38,2.27,1.38,3.76s-.46,2.74-1.38,3.76Z"/><path class="e" d="M77.05,77.87v10.27h9.4v-20.65c-2.73,3.81-5.89,7.29-9.4,10.38Z"/><path class="e" d="M102.32,88.14h7.05V47.01h-9.4v22.33l-7.97-11.21c-1.42,2.98-3.09,5.83-4.95,8.52l15.27,21.49Z"/><path class="d" d="M22.33,27.03c0,3.84-2.15,5.76-6.46,5.76s-6.46-1.92-6.46-5.76V0H0V27.85c0,4.35,1.49,7.78,4.47,10.28,3.02,2.55,6.82,3.82,11.4,3.82s8.38-1.27,11.4-3.82c2.98-2.51,4.47-5.93,4.47-10.28V0h-9.4V27.03Z"/><polygon class="d" points="60.78 22.33 44.92 0 37.87 0 37.87 41.13 47.27 41.13 47.27 18.8 63.13 41.13 70.18 41.13 70.18 0 60.78 0 60.78 22.33"/><path class="d" d="M86.63,32.08V9.05h2.24c-1.24-3.15-2.73-6.18-4.45-9.05h-7.19V41.13h15.2c.46-2.95,.7-5.97,.72-9.05h-6.52Z"/><path class="d" d="M25.73,66.4c-1.29-.74-2.43-1.27-3.41-1.59l-3.82-1.23c-2.98-.86-4.97-1.68-5.99-2.47-.94-.78-1.41-1.66-1.41-2.64,0-.9,.39-1.65,1.18-2.23s1.86-.88,3.23-.88c3.25,0,5.62,1.59,7.11,4.76l7.93-4.64c-1.49-3.02-3.53-5.32-6.11-6.9-2.59-1.59-5.56-2.38-8.93-2.38-3.76,0-7.01,1.14-9.75,3.41-2.7,2.27-4.05,5.31-4.05,9.11s1.25,6.6,3.76,8.64c2.27,1.69,5.05,2.98,8.34,3.88,3.21,.86,5.44,1.67,6.7,2.41,1.21,.63,1.82,1.57,1.82,2.82,0,2.23-1.86,3.35-5.58,3.35-4.11,0-6.99-1.9-8.64-5.7L0,78.8c1.21,3.21,3.23,5.71,6.05,7.49,2.82,1.78,6.29,2.67,10.4,2.67,4.54,0,8.23-1.12,11.05-3.35,2.82-2.31,4.23-5.41,4.23-9.28,0-3.06-.94-5.6-2.82-7.64-.71-.82-1.76-1.59-3.17-2.29Z"/><path class="d" d="M60.56,74.04c0,3.84-2.2,5.76-6.6,5.76s-6.6-1.92-6.6-5.76v-27.03h-9.6v27.85c0,4.35,1.52,7.78,4.56,10.28,3.08,2.55,6.96,3.82,11.64,3.82s8.56-1.27,11.64-3.82c3.04-2.51,4.56-5.93,4.56-10.28v-27.85h-9.6v27.03Z"/><path class="d" d="M77.05,47.01v30.86c3.51-3.09,6.67-6.57,9.4-10.38v-1.67l.59,.84c1.87-2.69,3.53-5.54,4.95-8.52l-7.9-11.12h-7.05Z"/></g></g></g></g></svg>