<?xml version="1.0" encoding="UTF-8"?><svg xmlns="http://www.w3.org/2000/svg" viewBox="0 0 219.58 30.8"><defs><style>.d{fill:#f1b400;}.e{fill:#fff;}</style></defs><g id="a"/><g id="b"><g id="c"><g><path class="e" d="M215.96,30.32c-2.16,0-3.67-1.48-3.67-3.62s1.5-3.69,3.67-3.69,3.62,1.53,3.62,3.69-1.46,3.62-3.62,3.62Zm0-.78c.87,0,1.55-.26,2.04-.78,.52-.52,.78-1.2,.78-2.07s-.26-1.55-.78-2.07c-.49-.54-1.18-.8-2.04-.8s-1.55,.26-2.07,.8c-.52,.52-.78,1.2-.78,2.07s.26,1.55,.78,2.07c.52,.52,1.2,.78,2.07,.78Zm.94-2.37l.87,1.46h-1.01l-.75-1.27h-.61v1.27h-.92v-3.55c0-.26,.16-.45,.42-.45h1.17c.92,0,1.5,.56,1.5,1.41,0,.52-.23,.89-.68,1.13Zm-1.5-1.72v1.15h.61c.45,0,.66-.19,.66-.56,0-.4-.23-.59-.73-.59h-.54Z"/><path class="e" d="M105.04,30.16v-3.68c-1.38,1.25-2.78,2.47-4.2,3.68h4.2Z"/><path class="e" d="M129.72,15.69c.9-1.49,1.35-3.11,1.35-4.85,0-2.98-1.03-5.41-3.08-7.3-.35-.34-.72-.63-1.11-.91-1.46,1.93-2.95,3.83-4.49,5.69,.08,.07,.16,.13,.24,.2,.59,.62,.89,1.42,.89,2.4s-.3,1.79-.89,2.4c-.59,.62-1.35,.91-2.28,.89h-3.05c-2.79,3.09-5.68,6.07-8.68,8.95v7h7.55v-9.53h2.7l5.15,9.53h8.1l-6.07-10.93c1.55-.87,2.77-2.05,3.67-3.54Z"/><path class="e" d="M153.01,15.1c-.98-.68-1.94-1.21-2.87-1.6-.82-.34-1.97-.73-3.46-1.18-2-.59-3.34-1.11-4.03-1.56-.69-.45-1.03-1-1.03-1.65,0-.59,.24-1.06,.72-1.41,.48-.35,1.15-.53,2.02-.53,2.14,0,3.67,1.1,4.6,3.29l6.33-3.71c-1.01-2.17-2.48-3.83-4.39-5-1.91-1.17-4.11-1.75-6.58-1.75-2.9,0-5.34,.84-7.34,2.53-1.94,1.69-2.91,3.9-2.91,6.62,0,2.42,.75,4.36,2.24,5.82,1.49,1.46,3.67,2.6,6.54,3.42,2.02,.59,3.26,.97,3.71,1.14,1.32,.56,1.98,1.27,1.98,2.11,0,1.32-1.15,1.98-3.46,1.98-2.78,0-4.72-1.31-5.82-3.92l-6.45,3.75c.84,2.31,2.3,4.11,4.37,5.4,2.07,1.29,4.63,1.94,7.7,1.94,3.38,0,6.09-.82,8.14-2.45,2.05-1.63,3.08-3.9,3.08-6.79s-1.03-5.1-3.08-6.45Z"/><path class="e" d="M174.57,19.74c0,2.48-1.38,3.71-4.13,3.71s-4.13-1.24-4.13-3.71V.63h-7.55V20.46c0,3.09,1.08,5.6,3.25,7.51,2.17,1.88,4.98,2.83,8.44,2.83s6.26-.94,8.4-2.83c2.19-1.91,3.29-4.42,3.29-7.51V.63h-7.55V19.74Z"/><polygon class="e" points="202.75 .63 202.75 15.48 192.33 .63 186.46 .63 186.46 30.16 194.02 30.16 194.02 15.31 204.44 30.16 210.26 30.16 210.26 .63 202.75 .63"/><path class="d" d="M15.82,19.74c0,2.48-1.38,3.71-4.13,3.71s-4.13-1.24-4.13-3.71V.63H0V20.46c0,3.09,1.08,5.6,3.25,7.51,2.17,1.88,4.98,2.83,8.44,2.83s6.26-.94,8.4-2.83c2.19-1.91,3.29-4.42,3.29-7.51V.63h-7.55V19.74Z"/><polygon class="d" points="44 15.48 33.58 .63 27.72 .63 27.72 30.16 35.27 30.16 35.27 15.31 45.69 30.16 51.51 30.16 51.51 .63 44 .63 44 15.48"/><path class="d" d="M68.22,.63h-12.02V30.16h12.02c4.08,0,7.48-1.41,10.21-4.22,2.76-2.84,4.13-6.36,4.13-10.55s-1.38-7.66-4.13-10.5c-2.76-2.84-6.16-4.26-10.21-4.26Zm5.02,20.21c-1.32,1.35-3,2.02-5.02,2.02h-4.26V7.93h4.26c2.05,0,3.73,.69,5.02,2.07,1.29,1.32,1.94,3.12,1.94,5.4s-.65,4.06-1.94,5.44Z"/><path class="d" d="M93.61,23.08v-4.35h10.17v-6.96h-10.17V7.68h11.22V.63h-18.77V30.16h14.78c1.42-1.2,2.82-2.43,4.2-3.68v-3.41h-11.43Z"/><path class="d" d="M117.31,14.22h-1.13V7.59h4.18c.81,0,1.49,.25,2.04,.73,1.54-1.86,3.03-3.76,4.49-5.69-1.81-1.32-3.96-2-6.45-2h-11.81V23.16c3-2.87,5.9-5.86,8.68-8.95Z"/></g></g></g></svg>