<?xml version="1.0" encoding="UTF-8"?><svg xmlns="http://www.w3.org/2000/svg" viewBox="0 0 143.63 56.8"><defs><style>.d{fill:#f1b400;}.e{fill:#474b57;}</style></defs><g id="a"/><g id="b"><g id="c"><g><polygon class="e" points="114.38 55.82 112.95 55.82 112.95 53.91 112.38 53.91 112.38 55.82 111 55.82 111 53.75 110.43 53.75 110.43 56.42 114.95 56.42 114.95 53.72 114.38 53.72 114.38 55.82"/><path class="e" d="M113.73,49.98c-.3,0-.53,.08-.68,.23-.13,.12-.23,.23-.3,.35-.09,.16-.16,.31-.21,.45,0,.01-.03,.09-.09,.24l-.08,.26c-.11,.34-.21,.59-.32,.74-.1,.14-.25,.21-.45,.21s-.37-.08-.49-.23c-.12-.15-.18-.35-.18-.59,0-.49,.23-.83,.7-1.03l-.29-.5c-.31,.13-.55,.33-.72,.6-.18,.27-.26,.58-.26,.93,0,.4,.12,.73,.35,1.01,.22,.28,.53,.41,.93,.41,.3,0,.55-.09,.76-.28,.08-.07,.15-.18,.23-.33,.07-.15,.13-.28,.17-.37l.14-.43c.13-.4,.24-.67,.34-.82,.11-.16,.27-.24,.48-.24s.39,.08,.51,.25c.12,.17,.19,.4,.19,.71,0,.63-.27,1.03-.82,1.21l.3,.52c.35-.12,.62-.33,.82-.63s.29-.66,.29-1.08c0-.46-.12-.84-.35-1.13-.24-.29-.55-.43-.95-.43Z"/><polygon class="e" points="111 48.47 114.95 48.47 114.95 47.87 111 47.87 111 46.54 110.43 46.54 110.43 49.8 111 49.8 111 48.47"/><path class="e" d="M114.95,46.07l-1.01-.37v-2.03l1.01-.37v-.64l-4.52,1.68v.68l4.52,1.68v-.64Zm-1.57-.57l-2.23-.81,2.23-.81v1.62Z"/><polygon class="e" points="111 41.49 114.95 41.49 114.95 40.9 111 40.9 111 39.56 110.43 39.56 110.43 42.82 111 42.82 111 41.49"/><polygon class="e" points="114.95 36.27 114.38 36.27 114.38 38.37 112.95 38.37 112.95 36.47 112.38 36.47 112.38 38.37 111 38.37 111 36.31 110.43 36.31 110.43 38.97 114.95 38.97 114.95 36.27"/><path class="e" d="M100.55,13.32h-8.04v20.1h8.04c2.78,0,5.09-.96,6.95-2.87,1.88-1.93,2.81-4.33,2.81-7.18s-.94-5.22-2.81-7.15c-1.88-1.93-4.19-2.9-6.95-2.9Zm3.85,14.16c-.98,1.02-2.26,1.52-3.85,1.52h-3.45v-11.26h3.45c1.59,0,2.87,.52,3.85,1.55,1,1,1.49,2.35,1.49,4.08s-.5,3.09-1.49,4.11Z"/><polygon class="e" points="117.5 25.44 124.68 25.44 124.68 21.08 117.5 21.08 117.5 17.75 125.4 17.75 125.4 13.32 112.9 13.32 112.9 33.43 125.54 33.43 125.54 29 117.5 29 117.5 25.44"/><path class="e" d="M139.35,26.05c1.11-.57,2.01-1.39,2.69-2.44,.68-1.05,1.02-2.18,1.02-3.39,0-1.91-.67-3.54-2.01-4.88-1.34-1.34-2.97-2.01-4.88-2.01h-8.04v20.1h4.59v-6.6h2.18l3.79,6.6h4.94l-4.28-7.38Zm-1.57-3.99c-.45,.5-.99,.75-1.62,.75h-3.45v-5.17h3.45c.63,0,1.17,.25,1.62,.75,.45,.5,.68,1.11,.68,1.84s-.23,1.34-.68,1.84Z"/><path class="e" d="M103.63,47.21l-3.89-5.48-3.86-5.43h-3.45v20.1h4.59v-10.09c-.33,.47-.68,.92-1.04,1.37-.72,.89-1.49,1.74-2.3,2.54,.81-.8,1.58-1.65,2.3-2.54,.36-.45,.71-.9,1.04-1.37v-.82l.29,.41,7.46,10.5h3.45v-20.1h-4.59v10.91Z"/><path class="e" d="M65.68,26.53c0,1.88-1.05,2.81-3.16,2.81s-3.16-.94-3.16-2.81V13.32h-4.59v13.61c0,2.13,.73,3.8,2.18,5.03,1.47,1.24,3.33,1.87,5.57,1.87s4.1-.62,5.57-1.87c1.45-1.23,2.18-2.9,2.18-5.03V13.32h-4.59v13.21Z"/><polygon class="e" points="84.47 24.24 76.72 13.32 73.27 13.32 73.27 33.43 77.87 33.43 77.87 22.51 85.62 33.43 89.07 33.43 89.07 13.32 84.47 13.32 84.47 24.24"/><path class="e" d="M67.34,45.78c-.63-.36-1.19-.62-1.67-.78l-1.87-.6c-1.46-.42-2.43-.82-2.93-1.21-.46-.38-.69-.81-.69-1.29,0-.44,.19-.8,.57-1.09s.91-.43,1.58-.43c1.59,0,2.75,.78,3.47,2.33l3.88-2.27c-.73-1.47-1.72-2.6-2.99-3.37-1.26-.78-2.72-1.16-4.36-1.16-1.84,0-3.43,.56-4.77,1.67-1.32,1.11-1.98,2.59-1.98,4.45s.61,3.23,1.84,4.22c1.11,.82,2.47,1.46,4.08,1.9,1.57,.42,2.66,.81,3.27,1.18,.59,.31,.89,.77,.89,1.38,0,1.09-.91,1.64-2.73,1.64-2.01,0-3.42-.93-4.22-2.79l-3.96,2.3c.59,1.57,1.58,2.79,2.96,3.66,1.38,.87,3.07,1.31,5.08,1.31,2.22,0,4.02-.55,5.4-1.64,1.38-1.13,2.07-2.64,2.07-4.54,0-1.49-.46-2.74-1.38-3.73-.34-.4-.86-.78-1.55-1.12Z"/><path class="e" d="M84.36,49.51c0,1.88-1.08,2.81-3.23,2.81s-3.23-.94-3.23-2.81v-13.21h-4.69v13.61c0,2.13,.74,3.8,2.23,5.03,1.51,1.24,3.4,1.87,5.69,1.87s4.18-.62,5.69-1.87c1.49-1.22,2.23-2.9,2.23-5.03v-13.61h-4.69v13.21Z"/></g><g><path class="e" d="M43.46,13.22c-4.45,16.72-18.75,29.42-36.32,31.49v11.71H50.35V13.22h-6.89Z"/><path class="d" d="M41.47,11.23c.79-2.96,1.27-6.04,1.41-9.21V0H0V42.87H3.83c.44-.04,.88-.09,1.31-.15,17.57-2.08,31.87-14.77,36.32-31.49Z"/></g></g></g></svg>