<svg width="431" height="497" viewBox="0 0 431 497" fill="none" xmlns="http://www.w3.org/2000/svg">
<mask id="mask0_2_5871" style="mask-type:alpha" maskUnits="userSpaceOnUse" x="0" y="0" width="465" height="497">
<rect width="464" height="496" transform="matrix(1 0 0 -1 0.433594 496.337)" fill="#C4C4C4"/>
</mask>
<g mask="url(#mask0_2_5871)">
<circle cx="4" cy="4" r="4" transform="matrix(1 0 0 -1 156.141 92.5193)" fill="#F2B208"/>
<circle cx="4" cy="4" r="4" transform="matrix(1 0 0 -1 156.141 76.5193)" fill="#F2B208"/>
<circle cx="4" cy="4" r="4" transform="matrix(1 0 0 -1 156.141 60.5193)" fill="#F2B208"/>
<circle cx="4" cy="4" r="4" transform="matrix(1 0 0 -1 156.141 44.5193)" fill="#F2B208"/>
<circle cx="4" cy="4" r="4" transform="matrix(1 0 0 -1 156.141 28.5193)" fill="#F2B208"/>
<circle cx="4" cy="4" r="4" transform="matrix(1 0 0 -1 156.141 12.5193)" fill="#F2B208"/>
<circle cx="4" cy="4" r="4" transform="matrix(1 0 0 -1 253.141 92.5193)" fill="#F2B208"/>
<circle cx="4" cy="4" r="4" transform="matrix(1 0 0 -1 253.141 76.5193)" fill="#F2B208"/>
<circle cx="4" cy="4" r="4" transform="matrix(1 0 0 -1 253.141 60.5193)" fill="#F2B208"/>
<circle cx="4" cy="4" r="4" transform="matrix(1 0 0 -1 253.141 44.5193)" fill="#F2B208"/>
<circle cx="4" cy="4" r="4" transform="matrix(1 0 0 -1 253.141 28.5193)" fill="#F2B208"/>
<circle cx="4" cy="4" r="4" transform="matrix(1 0 0 -1 253.141 12.5193)" fill="#F2B208"/>
<circle cx="4" cy="4" r="4" transform="matrix(1 0 0 -1 205.141 92.5193)" fill="#F2B208"/>
<circle cx="4" cy="4" r="4" transform="matrix(1 0 0 -1 205.141 76.5193)" fill="#F2B208"/>
<circle cx="4" cy="4" r="4" transform="matrix(1 0 0 -1 205.141 60.5193)" fill="#F2B208"/>
<circle cx="4" cy="4" r="4" transform="matrix(1 0 0 -1 205.141 44.5193)" fill="#F2B208"/>
<circle cx="4" cy="4" r="4" transform="matrix(1 0 0 -1 205.141 28.5193)" fill="#F2B208"/>
<circle cx="4" cy="4" r="4" transform="matrix(1 0 0 -1 205.141 12.5193)" fill="#F2B208"/>
<circle cx="4" cy="4" r="4" transform="matrix(1 0 0 -1 302.141 92.5193)" fill="#F2B208"/>
<circle cx="4" cy="4" r="4" transform="matrix(1 0 0 -1 302.141 76.5193)" fill="#F2B208"/>
<circle cx="4" cy="4" r="4" transform="matrix(1 0 0 -1 302.141 60.5193)" fill="#F2B208"/>
<circle cx="4" cy="4" r="4" transform="matrix(1 0 0 -1 302.141 44.5193)" fill="#F2B208"/>
<circle cx="4" cy="4" r="4" transform="matrix(1 0 0 -1 302.141 28.5193)" fill="#F2B208"/>
<circle cx="4" cy="4" r="4" transform="matrix(1 0 0 -1 302.141 12.5193)" fill="#F2B208"/>
<circle cx="4" cy="4" r="4" transform="matrix(1 0 0 -1 172.141 92.5193)" fill="#F2B208"/>
<circle cx="4" cy="4" r="4" transform="matrix(1 0 0 -1 172.141 76.5193)" fill="#F2B208"/>
<circle cx="4" cy="4" r="4" transform="matrix(1 0 0 -1 172.141 60.5193)" fill="#F2B208"/>
<circle cx="4" cy="4" r="4" transform="matrix(1 0 0 -1 172.141 44.5193)" fill="#F2B208"/>
<circle cx="4" cy="4" r="4" transform="matrix(1 0 0 -1 172.141 28.5193)" fill="#F2B208"/>
<circle cx="4" cy="4" r="4" transform="matrix(1 0 0 -1 172.141 12.5193)" fill="#F2B208"/>
<circle cx="4" cy="4" r="4" transform="matrix(1 0 0 -1 269.141 92.5193)" fill="#F2B208"/>
<circle cx="4" cy="4" r="4" transform="matrix(1 0 0 -1 269.141 76.5193)" fill="#F2B208"/>
<circle cx="4" cy="4" r="4" transform="matrix(1 0 0 -1 269.141 60.5193)" fill="#F2B208"/>
<circle cx="4" cy="4" r="4" transform="matrix(1 0 0 -1 269.141 44.5193)" fill="#F2B208"/>
<circle cx="4" cy="4" r="4" transform="matrix(1 0 0 -1 269.141 28.5193)" fill="#F2B208"/>
<circle cx="4" cy="4" r="4" transform="matrix(1 0 0 -1 269.141 12.5193)" fill="#F2B208"/>
<circle cx="4" cy="4" r="4" transform="matrix(1 0 0 -1 221.141 92.5193)" fill="#F2B208"/>
<circle cx="4" cy="4" r="4" transform="matrix(1 0 0 -1 221.141 76.5193)" fill="#F2B208"/>
<circle cx="4" cy="4" r="4" transform="matrix(1 0 0 -1 221.141 60.5193)" fill="#F2B208"/>
<circle cx="4" cy="4" r="4" transform="matrix(1 0 0 -1 221.141 44.5193)" fill="#F2B208"/>
<circle cx="4" cy="4" r="4" transform="matrix(1 0 0 -1 221.141 28.5193)" fill="#F2B208"/>
<circle cx="4" cy="4" r="4" transform="matrix(1 0 0 -1 221.141 12.5193)" fill="#F2B208"/>
<circle cx="4" cy="4" r="4" transform="matrix(1 0 0 -1 188.141 92.5193)" fill="#F2B208"/>
<circle cx="4" cy="4" r="4" transform="matrix(1 0 0 -1 188.141 76.5193)" fill="#F2B208"/>
<circle cx="4" cy="4" r="4" transform="matrix(1 0 0 -1 188.141 60.5193)" fill="#F2B208"/>
<circle cx="4" cy="4" r="4" transform="matrix(1 0 0 -1 188.141 44.5193)" fill="#F2B208"/>
<circle cx="4" cy="4" r="4" transform="matrix(1 0 0 -1 188.141 28.5193)" fill="#F2B208"/>
<circle cx="4" cy="4" r="4" transform="matrix(1 0 0 -1 188.141 12.5193)" fill="#F2B208"/>
<circle cx="4" cy="4" r="4" transform="matrix(1 0 0 -1 285.141 92.5193)" fill="#F2B208"/>
<circle cx="4" cy="4" r="4" transform="matrix(1 0 0 -1 285.141 76.5193)" fill="#F2B208"/>
<circle cx="4" cy="4" r="4" transform="matrix(1 0 0 -1 285.141 60.5193)" fill="#F2B208"/>
<circle cx="4" cy="4" r="4" transform="matrix(1 0 0 -1 285.141 44.5193)" fill="#F2B208"/>
<circle cx="4" cy="4" r="4" transform="matrix(1 0 0 -1 285.141 28.5193)" fill="#F2B208"/>
<circle cx="4" cy="4" r="4" transform="matrix(1 0 0 -1 285.141 12.5193)" fill="#F2B208"/>
<circle cx="4" cy="4" r="4" transform="matrix(1 0 0 -1 237.141 92.5193)" fill="#F2B208"/>
<circle cx="4" cy="4" r="4" transform="matrix(1 0 0 -1 237.141 76.5193)" fill="#F2B208"/>
<circle cx="4" cy="4" r="4" transform="matrix(1 0 0 -1 237.141 60.5193)" fill="#F2B208"/>
<circle cx="4" cy="4" r="4" transform="matrix(1 0 0 -1 237.141 44.5193)" fill="#F2B208"/>
<circle cx="4" cy="4" r="4" transform="matrix(1 0 0 -1 237.141 28.5193)" fill="#F2B208"/>
<circle cx="4" cy="4" r="4" transform="matrix(1 0 0 -1 237.141 12.5193)" fill="#F2B208"/>
<circle cx="4" cy="4" r="4" transform="matrix(1 0 0 -1 156.141 252.519)" fill="#F2B208"/>
<circle cx="4" cy="4" r="4" transform="matrix(1 0 0 -1 156.141 236.519)" fill="#F2B208"/>
<circle cx="4" cy="4" r="4" transform="matrix(1 0 0 -1 156.141 220.519)" fill="#F2B208"/>
<circle cx="4" cy="4" r="4" transform="matrix(1 0 0 -1 156.141 204.519)" fill="#F2B208"/>
<circle cx="4" cy="4" r="4" transform="matrix(1 0 0 -1 156.141 188.519)" fill="#F2B208"/>
<circle cx="4" cy="4" r="4" transform="matrix(1 0 0 -1 156.141 172.519)" fill="#F2B208"/>
<circle cx="4" cy="4" r="4" transform="matrix(1 0 0 -1 156.141 156.519)" fill="#F2B208"/>
<circle cx="4" cy="4" r="4" transform="matrix(1 0 0 -1 156.141 140.519)" fill="#F2B208"/>
<circle cx="4" cy="4" r="4" transform="matrix(1 0 0 -1 156.141 124.519)" fill="#F2B208"/>
<circle cx="4" cy="4" r="4" transform="matrix(1 0 0 -1 156.141 108.519)" fill="#F2B208"/>
<circle cx="4" cy="4" r="4" transform="matrix(1 0 0 -1 253.141 252.519)" fill="#F2B208"/>
<circle cx="4" cy="4" r="4" transform="matrix(1 0 0 -1 253.141 236.519)" fill="#F2B208"/>
<circle cx="4" cy="4" r="4" transform="matrix(1 0 0 -1 253.141 220.519)" fill="#F2B208"/>
<circle cx="4" cy="4" r="4" transform="matrix(1 0 0 -1 253.141 204.519)" fill="#F2B208"/>
<circle cx="4" cy="4" r="4" transform="matrix(1 0 0 -1 253.141 188.519)" fill="#F2B208"/>
<circle cx="4" cy="4" r="4" transform="matrix(1 0 0 -1 253.141 172.519)" fill="#F2B208"/>
<circle cx="4" cy="4" r="4" transform="matrix(1 0 0 -1 253.141 156.519)" fill="#F2B208"/>
<circle cx="4" cy="4" r="4" transform="matrix(1 0 0 -1 253.141 140.519)" fill="#F2B208"/>
<circle cx="4" cy="4" r="4" transform="matrix(1 0 0 -1 253.141 124.519)" fill="#F2B208"/>
<circle cx="4" cy="4" r="4" transform="matrix(1 0 0 -1 253.141 108.519)" fill="#F2B208"/>
<circle cx="4" cy="4" r="4" transform="matrix(1 0 0 -1 205.141 252.519)" fill="#F2B208"/>
<circle cx="4" cy="4" r="4" transform="matrix(1 0 0 -1 205.141 236.519)" fill="#F2B208"/>
<circle cx="4" cy="4" r="4" transform="matrix(1 0 0 -1 205.141 220.519)" fill="#F2B208"/>
<circle cx="4" cy="4" r="4" transform="matrix(1 0 0 -1 205.141 204.519)" fill="#F2B208"/>
<circle cx="4" cy="4" r="4" transform="matrix(1 0 0 -1 205.141 188.519)" fill="#F2B208"/>
<circle cx="4" cy="4" r="4" transform="matrix(1 0 0 -1 205.141 172.519)" fill="#F2B208"/>
<circle cx="4" cy="4" r="4" transform="matrix(1 0 0 -1 205.141 156.519)" fill="#F2B208"/>
<circle cx="4" cy="4" r="4" transform="matrix(1 0 0 -1 205.141 140.519)" fill="#F2B208"/>
<circle cx="4" cy="4" r="4" transform="matrix(1 0 0 -1 205.141 124.519)" fill="#F2B208"/>
<circle cx="4" cy="4" r="4" transform="matrix(1 0 0 -1 205.141 108.519)" fill="#F2B208"/>
<circle cx="4" cy="4" r="4" transform="matrix(1 0 0 -1 302.141 252.519)" fill="#F2B208"/>
<circle cx="4" cy="4" r="4" transform="matrix(1 0 0 -1 302.141 236.519)" fill="#F2B208"/>
<circle cx="4" cy="4" r="4" transform="matrix(1 0 0 -1 302.141 220.519)" fill="#F2B208"/>
<circle cx="4" cy="4" r="4" transform="matrix(1 0 0 -1 302.141 204.519)" fill="#F2B208"/>
<circle cx="4" cy="4" r="4" transform="matrix(1 0 0 -1 302.141 188.519)" fill="#F2B208"/>
<circle cx="4" cy="4" r="4" transform="matrix(1 0 0 -1 302.141 172.519)" fill="#F2B208"/>
<circle cx="4" cy="4" r="4" transform="matrix(1 0 0 -1 302.141 156.519)" fill="#F2B208"/>
<circle cx="4" cy="4" r="4" transform="matrix(1 0 0 -1 302.141 140.519)" fill="#F2B208"/>
<circle cx="4" cy="4" r="4" transform="matrix(1 0 0 -1 302.141 124.519)" fill="#F2B208"/>
<circle cx="4" cy="4" r="4" transform="matrix(1 0 0 -1 302.141 108.519)" fill="#F2B208"/>
<circle cx="4" cy="4" r="4" transform="matrix(1 0 0 -1 172.141 252.519)" fill="#F2B208"/>
<circle cx="4" cy="4" r="4" transform="matrix(1 0 0 -1 172.141 236.519)" fill="#F2B208"/>
<circle cx="4" cy="4" r="4" transform="matrix(1 0 0 -1 172.141 220.519)" fill="#F2B208"/>
<circle cx="4" cy="4" r="4" transform="matrix(1 0 0 -1 172.141 204.519)" fill="#F2B208"/>
<circle cx="4" cy="4" r="4" transform="matrix(1 0 0 -1 172.141 188.519)" fill="#F2B208"/>
<circle cx="4" cy="4" r="4" transform="matrix(1 0 0 -1 172.141 172.519)" fill="#F2B208"/>
<circle cx="4" cy="4" r="4" transform="matrix(1 0 0 -1 172.141 156.519)" fill="#F2B208"/>
<circle cx="4" cy="4" r="4" transform="matrix(1 0 0 -1 172.141 140.519)" fill="#F2B208"/>
<circle cx="4" cy="4" r="4" transform="matrix(1 0 0 -1 172.141 124.519)" fill="#F2B208"/>
<circle cx="4" cy="4" r="4" transform="matrix(1 0 0 -1 172.141 108.519)" fill="#F2B208"/>
<circle cx="4" cy="4" r="4" transform="matrix(1 0 0 -1 269.141 252.519)" fill="#F2B208"/>
<circle cx="4" cy="4" r="4" transform="matrix(1 0 0 -1 269.141 236.519)" fill="#F2B208"/>
<circle cx="4" cy="4" r="4" transform="matrix(1 0 0 -1 269.141 220.519)" fill="#F2B208"/>
<circle cx="4" cy="4" r="4" transform="matrix(1 0 0 -1 269.141 204.519)" fill="#F2B208"/>
<circle cx="4" cy="4" r="4" transform="matrix(1 0 0 -1 269.141 188.519)" fill="#F2B208"/>
<circle cx="4" cy="4" r="4" transform="matrix(1 0 0 -1 269.141 172.519)" fill="#F2B208"/>
<circle cx="4" cy="4" r="4" transform="matrix(1 0 0 -1 269.141 156.519)" fill="#F2B208"/>
<circle cx="4" cy="4" r="4" transform="matrix(1 0 0 -1 269.141 140.519)" fill="#F2B208"/>
<circle cx="4" cy="4" r="4" transform="matrix(1 0 0 -1 269.141 124.519)" fill="#F2B208"/>
<circle cx="4" cy="4" r="4" transform="matrix(1 0 0 -1 269.141 108.519)" fill="#F2B208"/>
<circle cx="4" cy="4" r="4" transform="matrix(1 0 0 -1 221.141 252.519)" fill="#F2B208"/>
<circle cx="4" cy="4" r="4" transform="matrix(1 0 0 -1 221.141 236.519)" fill="#F2B208"/>
<circle cx="4" cy="4" r="4" transform="matrix(1 0 0 -1 221.141 220.519)" fill="#F2B208"/>
<circle cx="4" cy="4" r="4" transform="matrix(1 0 0 -1 221.141 204.519)" fill="#F2B208"/>
<circle cx="4" cy="4" r="4" transform="matrix(1 0 0 -1 221.141 188.519)" fill="#F2B208"/>
<circle cx="4" cy="4" r="4" transform="matrix(1 0 0 -1 221.141 172.519)" fill="#F2B208"/>
<circle cx="4" cy="4" r="4" transform="matrix(1 0 0 -1 221.141 156.519)" fill="#F2B208"/>
<circle cx="4" cy="4" r="4" transform="matrix(1 0 0 -1 221.141 140.519)" fill="#F2B208"/>
<circle cx="4" cy="4" r="4" transform="matrix(1 0 0 -1 221.141 124.519)" fill="#F2B208"/>
<circle cx="4" cy="4" r="4" transform="matrix(1 0 0 -1 221.141 108.519)" fill="#F2B208"/>
<circle cx="4" cy="4" r="4" transform="matrix(1 0 0 -1 188.141 252.519)" fill="#F2B208"/>
<circle cx="4" cy="4" r="4" transform="matrix(1 0 0 -1 188.141 236.519)" fill="#F2B208"/>
<circle cx="4" cy="4" r="4" transform="matrix(1 0 0 -1 188.141 220.519)" fill="#F2B208"/>
<circle cx="4" cy="4" r="4" transform="matrix(1 0 0 -1 188.141 204.519)" fill="#F2B208"/>
<circle cx="4" cy="4" r="4" transform="matrix(1 0 0 -1 188.141 188.519)" fill="#F2B208"/>
<circle cx="4" cy="4" r="4" transform="matrix(1 0 0 -1 188.141 172.519)" fill="#F2B208"/>
<circle cx="4" cy="4" r="4" transform="matrix(1 0 0 -1 188.141 156.519)" fill="#F2B208"/>
<circle cx="4" cy="4" r="4" transform="matrix(1 0 0 -1 188.141 140.519)" fill="#F2B208"/>
<circle cx="4" cy="4" r="4" transform="matrix(1 0 0 -1 188.141 124.519)" fill="#F2B208"/>
<circle cx="4" cy="4" r="4" transform="matrix(1 0 0 -1 188.141 108.519)" fill="#F2B208"/>
<circle cx="4" cy="4" r="4" transform="matrix(1 0 0 -1 285.141 252.519)" fill="#F2B208"/>
<circle cx="4" cy="4" r="4" transform="matrix(1 0 0 -1 285.141 236.519)" fill="#F2B208"/>
<circle cx="4" cy="4" r="4" transform="matrix(1 0 0 -1 285.141 220.519)" fill="#F2B208"/>
<circle cx="4" cy="4" r="4" transform="matrix(1 0 0 -1 285.141 204.519)" fill="#F2B208"/>
<circle cx="4" cy="4" r="4" transform="matrix(1 0 0 -1 285.141 188.519)" fill="#F2B208"/>
<circle cx="4" cy="4" r="4" transform="matrix(1 0 0 -1 285.141 172.519)" fill="#F2B208"/>
<circle cx="4" cy="4" r="4" transform="matrix(1 0 0 -1 285.141 156.519)" fill="#F2B208"/>
<circle cx="4" cy="4" r="4" transform="matrix(1 0 0 -1 285.141 140.519)" fill="#F2B208"/>
<circle cx="4" cy="4" r="4" transform="matrix(1 0 0 -1 285.141 124.519)" fill="#F2B208"/>
<circle cx="4" cy="4" r="4" transform="matrix(1 0 0 -1 285.141 108.519)" fill="#F2B208"/>
<circle cx="4" cy="4" r="4" transform="matrix(1 0 0 -1 237.141 252.519)" fill="#F2B208"/>
<circle cx="4" cy="4" r="4" transform="matrix(1 0 0 -1 237.141 236.519)" fill="#F2B208"/>
<circle cx="4" cy="4" r="4" transform="matrix(1 0 0 -1 237.141 220.519)" fill="#F2B208"/>
<circle cx="4" cy="4" r="4" transform="matrix(1 0 0 -1 237.141 204.519)" fill="#F2B208"/>
<circle cx="4" cy="4" r="4" transform="matrix(1 0 0 -1 237.141 188.519)" fill="#F2B208"/>
<circle cx="4" cy="4" r="4" transform="matrix(1 0 0 -1 237.141 172.519)" fill="#F2B208"/>
<circle cx="4" cy="4" r="4" transform="matrix(1 0 0 -1 237.141 156.519)" fill="#F2B208"/>
<circle cx="4" cy="4" r="4" transform="matrix(1 0 0 -1 237.141 140.519)" fill="#F2B208"/>
<circle cx="4" cy="4" r="4" transform="matrix(1 0 0 -1 237.141 124.519)" fill="#F2B208"/>
<circle cx="4" cy="4" r="4" transform="matrix(1 0 0 -1 237.141 108.519)" fill="#F2B208"/>
<circle cx="4" cy="4" r="4" transform="matrix(1 0 0 -1 -5.85938 284.519)" fill="#F2B208"/>
<circle cx="4" cy="4" r="4" transform="matrix(1 0 0 -1 -5.85938 268.519)" fill="#F2B208"/>
<circle cx="4" cy="4" r="4" transform="matrix(1 0 0 -1 -5.85938 252.519)" fill="#F2B208"/>
<circle cx="4" cy="4" r="4" transform="matrix(1 0 0 -1 -5.85938 236.519)" fill="#F2B208"/>
<circle cx="4" cy="4" r="4" transform="matrix(1 0 0 -1 -5.85938 220.519)" fill="#F2B208"/>
<circle cx="4" cy="4" r="4" transform="matrix(1 0 0 -1 -5.85938 204.519)" fill="#F2B208"/>
<circle cx="4" cy="4" r="4" transform="matrix(1 0 0 -1 -5.85938 188.519)" fill="#F2B208"/>
<circle cx="4" cy="4" r="4" transform="matrix(1 0 0 -1 -5.85938 172.519)" fill="#F2B208"/>
<circle cx="4" cy="4" r="4" transform="matrix(1 0 0 -1 -5.85938 156.519)" fill="#F2B208"/>
<circle cx="4" cy="4" r="4" transform="matrix(1 0 0 -1 -5.85938 140.519)" fill="#F2B208"/>
<circle cx="4" cy="4" r="4" transform="matrix(1 0 0 -1 91.1406 284.519)" fill="#F2B208"/>
<circle cx="4" cy="4" r="4" transform="matrix(1 0 0 -1 91.1406 268.519)" fill="#F2B208"/>
<circle cx="4" cy="4" r="4" transform="matrix(1 0 0 -1 91.1406 252.519)" fill="#F2B208"/>
<circle cx="4" cy="4" r="4" transform="matrix(1 0 0 -1 91.1406 236.519)" fill="#F2B208"/>
<circle cx="4" cy="4" r="4" transform="matrix(1 0 0 -1 91.1406 220.519)" fill="#F2B208"/>
<circle cx="4" cy="4" r="4" transform="matrix(1 0 0 -1 91.1406 204.519)" fill="#F2B208"/>
<circle cx="4" cy="4" r="4" transform="matrix(1 0 0 -1 91.1406 188.519)" fill="#F2B208"/>
<circle cx="4" cy="4" r="4" transform="matrix(1 0 0 -1 91.1406 172.519)" fill="#F2B208"/>
<circle cx="4" cy="4" r="4" transform="matrix(1 0 0 -1 91.1406 156.519)" fill="#F2B208"/>
<circle cx="4" cy="4" r="4" transform="matrix(1 0 0 -1 91.1406 140.519)" fill="#F2B208"/>
<circle cx="4" cy="4" r="4" transform="matrix(1 0 0 -1 43.1406 284.519)" fill="#F2B208"/>
<circle cx="4" cy="4" r="4" transform="matrix(1 0 0 -1 43.1406 268.519)" fill="#F2B208"/>
<circle cx="4" cy="4" r="4" transform="matrix(1 0 0 -1 43.1406 252.519)" fill="#F2B208"/>
<circle cx="4" cy="4" r="4" transform="matrix(1 0 0 -1 43.1406 236.519)" fill="#F2B208"/>
<circle cx="4" cy="4" r="4" transform="matrix(1 0 0 -1 43.1406 220.519)" fill="#F2B208"/>
<circle cx="4" cy="4" r="4" transform="matrix(1 0 0 -1 43.1406 204.519)" fill="#F2B208"/>
<circle cx="4" cy="4" r="4" transform="matrix(1 0 0 -1 43.1406 188.519)" fill="#F2B208"/>
<circle cx="4" cy="4" r="4" transform="matrix(1 0 0 -1 43.1406 172.519)" fill="#F2B208"/>
<circle cx="4" cy="4" r="4" transform="matrix(1 0 0 -1 43.1406 156.519)" fill="#F2B208"/>
<circle cx="4" cy="4" r="4" transform="matrix(1 0 0 -1 43.1406 140.519)" fill="#F2B208"/>
<circle cx="4" cy="4" r="4" transform="matrix(1 0 0 -1 140.141 284.519)" fill="#F2B208"/>
<circle cx="4" cy="4" r="4" transform="matrix(1 0 0 -1 140.141 268.519)" fill="#F2B208"/>
<circle cx="4" cy="4" r="4" transform="matrix(1 0 0 -1 140.141 252.519)" fill="#F2B208"/>
<circle cx="4" cy="4" r="4" transform="matrix(1 0 0 -1 140.141 236.519)" fill="#F2B208"/>
<circle cx="4" cy="4" r="4" transform="matrix(1 0 0 -1 140.141 220.519)" fill="#F2B208"/>
<circle cx="4" cy="4" r="4" transform="matrix(1 0 0 -1 140.141 204.519)" fill="#F2B208"/>
<circle cx="4" cy="4" r="4" transform="matrix(1 0 0 -1 140.141 188.519)" fill="#F2B208"/>
<circle cx="4" cy="4" r="4" transform="matrix(1 0 0 -1 140.141 172.519)" fill="#F2B208"/>
<circle cx="4" cy="4" r="4" transform="matrix(1 0 0 -1 140.141 156.519)" fill="#F2B208"/>
<circle cx="4" cy="4" r="4" transform="matrix(1 0 0 -1 140.141 140.519)" fill="#F2B208"/>
<circle cx="4" cy="4" r="4" transform="matrix(1 0 0 -1 10.1406 284.519)" fill="#F2B208"/>
<circle cx="4" cy="4" r="4" transform="matrix(1 0 0 -1 10.1406 268.519)" fill="#F2B208"/>
<circle cx="4" cy="4" r="4" transform="matrix(1 0 0 -1 10.1406 252.519)" fill="#F2B208"/>
<circle cx="4" cy="4" r="4" transform="matrix(1 0 0 -1 10.1406 236.519)" fill="#F2B208"/>
<circle cx="4" cy="4" r="4" transform="matrix(1 0 0 -1 10.1406 220.519)" fill="#F2B208"/>
<circle cx="4" cy="4" r="4" transform="matrix(1 0 0 -1 10.1406 204.519)" fill="#F2B208"/>
<circle cx="4" cy="4" r="4" transform="matrix(1 0 0 -1 10.1406 188.519)" fill="#F2B208"/>
<circle cx="4" cy="4" r="4" transform="matrix(1 0 0 -1 10.1406 172.519)" fill="#F2B208"/>
<circle cx="4" cy="4" r="4" transform="matrix(1 0 0 -1 10.1406 156.519)" fill="#F2B208"/>
<circle cx="4" cy="4" r="4" transform="matrix(1 0 0 -1 10.1406 140.519)" fill="#F2B208"/>
<circle cx="4" cy="4" r="4" transform="matrix(1 0 0 -1 107.141 284.519)" fill="#F2B208"/>
<circle cx="4" cy="4" r="4" transform="matrix(1 0 0 -1 107.141 268.519)" fill="#F2B208"/>
<circle cx="4" cy="4" r="4" transform="matrix(1 0 0 -1 107.141 252.519)" fill="#F2B208"/>
<circle cx="4" cy="4" r="4" transform="matrix(1 0 0 -1 107.141 236.519)" fill="#F2B208"/>
<circle cx="4" cy="4" r="4" transform="matrix(1 0 0 -1 107.141 220.519)" fill="#F2B208"/>
<circle cx="4" cy="4" r="4" transform="matrix(1 0 0 -1 107.141 204.519)" fill="#F2B208"/>
<circle cx="4" cy="4" r="4" transform="matrix(1 0 0 -1 107.141 188.519)" fill="#F2B208"/>
<circle cx="4" cy="4" r="4" transform="matrix(1 0 0 -1 107.141 172.519)" fill="#F2B208"/>
<circle cx="4" cy="4" r="4" transform="matrix(1 0 0 -1 107.141 156.519)" fill="#F2B208"/>
<circle cx="4" cy="4" r="4" transform="matrix(1 0 0 -1 107.141 140.519)" fill="#F2B208"/>
<circle cx="4" cy="4" r="4" transform="matrix(1 0 0 -1 59.1406 284.519)" fill="#F2B208"/>
<circle cx="4" cy="4" r="4" transform="matrix(1 0 0 -1 59.1406 268.519)" fill="#F2B208"/>
<circle cx="4" cy="4" r="4" transform="matrix(1 0 0 -1 59.1406 252.519)" fill="#F2B208"/>
<circle cx="4" cy="4" r="4" transform="matrix(1 0 0 -1 59.1406 236.519)" fill="#F2B208"/>
<circle cx="4" cy="4" r="4" transform="matrix(1 0 0 -1 59.1406 220.519)" fill="#F2B208"/>
<circle cx="4" cy="4" r="4" transform="matrix(1 0 0 -1 59.1406 204.519)" fill="#F2B208"/>
<circle cx="4" cy="4" r="4" transform="matrix(1 0 0 -1 59.1406 188.519)" fill="#F2B208"/>
<circle cx="4" cy="4" r="4" transform="matrix(1 0 0 -1 59.1406 172.519)" fill="#F2B208"/>
<circle cx="4" cy="4" r="4" transform="matrix(1 0 0 -1 59.1406 156.519)" fill="#F2B208"/>
<circle cx="4" cy="4" r="4" transform="matrix(1 0 0 -1 59.1406 140.519)" fill="#F2B208"/>
<circle cx="4" cy="4" r="4" transform="matrix(1 0 0 -1 26.1406 284.519)" fill="#F2B208"/>
<circle cx="4" cy="4" r="4" transform="matrix(1 0 0 -1 26.1406 268.519)" fill="#F2B208"/>
<circle cx="4" cy="4" r="4" transform="matrix(1 0 0 -1 26.1406 252.519)" fill="#F2B208"/>
<circle cx="4" cy="4" r="4" transform="matrix(1 0 0 -1 26.1406 236.519)" fill="#F2B208"/>
<circle cx="4" cy="4" r="4" transform="matrix(1 0 0 -1 26.1406 220.519)" fill="#F2B208"/>
<circle cx="4" cy="4" r="4" transform="matrix(1 0 0 -1 26.1406 204.519)" fill="#F2B208"/>
<circle cx="4" cy="4" r="4" transform="matrix(1 0 0 -1 26.1406 188.519)" fill="#F2B208"/>
<circle cx="4" cy="4" r="4" transform="matrix(1 0 0 -1 26.1406 172.519)" fill="#F2B208"/>
<circle cx="4" cy="4" r="4" transform="matrix(1 0 0 -1 26.1406 156.519)" fill="#F2B208"/>
<circle cx="4" cy="4" r="4" transform="matrix(1 0 0 -1 26.1406 140.519)" fill="#F2B208"/>
<circle cx="4" cy="4" r="4" transform="matrix(1 0 0 -1 123.141 284.519)" fill="#F2B208"/>
<circle cx="4" cy="4" r="4" transform="matrix(1 0 0 -1 123.141 268.519)" fill="#F2B208"/>
<circle cx="4" cy="4" r="4" transform="matrix(1 0 0 -1 123.141 252.519)" fill="#F2B208"/>
<circle cx="4" cy="4" r="4" transform="matrix(1 0 0 -1 123.141 236.519)" fill="#F2B208"/>
<circle cx="4" cy="4" r="4" transform="matrix(1 0 0 -1 123.141 220.519)" fill="#F2B208"/>
<circle cx="4" cy="4" r="4" transform="matrix(1 0 0 -1 123.141 204.519)" fill="#F2B208"/>
<circle cx="4" cy="4" r="4" transform="matrix(1 0 0 -1 123.141 188.519)" fill="#F2B208"/>
<circle cx="4" cy="4" r="4" transform="matrix(1 0 0 -1 123.141 172.519)" fill="#F2B208"/>
<circle cx="4" cy="4" r="4" transform="matrix(1 0 0 -1 123.141 156.519)" fill="#F2B208"/>
<circle cx="4" cy="4" r="4" transform="matrix(1 0 0 -1 123.141 140.519)" fill="#F2B208"/>
<circle cx="4" cy="4" r="4" transform="matrix(1 0 0 -1 75.1406 284.519)" fill="#F2B208"/>
<circle cx="4" cy="4" r="4" transform="matrix(1 0 0 -1 75.1406 268.519)" fill="#F2B208"/>
<circle cx="4" cy="4" r="4" transform="matrix(1 0 0 -1 75.1406 252.519)" fill="#F2B208"/>
<circle cx="4" cy="4" r="4" transform="matrix(1 0 0 -1 75.1406 236.519)" fill="#F2B208"/>
<circle cx="4" cy="4" r="4" transform="matrix(1 0 0 -1 75.1406 220.519)" fill="#F2B208"/>
<circle cx="4" cy="4" r="4" transform="matrix(1 0 0 -1 75.1406 204.519)" fill="#F2B208"/>
<circle cx="4" cy="4" r="4" transform="matrix(1 0 0 -1 75.1406 188.519)" fill="#F2B208"/>
<circle cx="4" cy="4" r="4" transform="matrix(1 0 0 -1 75.1406 172.519)" fill="#F2B208"/>
<circle cx="4" cy="4" r="4" transform="matrix(1 0 0 -1 75.1406 156.519)" fill="#F2B208"/>
<circle cx="4" cy="4" r="4" transform="matrix(1 0 0 -1 75.1406 140.519)" fill="#F2B208"/>
</g>
</svg>
