<?xml version="1.0" encoding="UTF-8"?><svg xmlns="http://www.w3.org/2000/svg" viewBox="0 0 321.61 401.29"><defs><style>.d{fill:#3a3e48;}</style></defs><g id="a"/><g id="b"><g id="c"><g><path class="d" d="M192.77,193.77l-38.88,54.63,1.04,.79,39.02-54.83c.08-.11,.13-.25,.13-.39v-.04l-2.3-38.79-1.29,.08,2.29,38.55Z"/><polygon class="d" points="157.95 178.41 192.22 172.93 192.06 171.63 157.79 177.1 157.95 178.41"/><path class="d" d="M242.58,156.27c3.38,4.04-1.93,20.29-3.67,25.63-.34,1.04-.59,1.8-.71,2.23-.59,2.15-1.11,2-3.62,1.3-.2-.06-.41-.11-.63-.17-2.85-.78-41.17-17.44-41.55-17.61-.33-.14-.71,.01-.85,.35-.14,.34,.01,.72,.34,.86,1.58,.69,38.78,16.87,41.73,17.67,.21,.06,.42,.12,.62,.17,2.48,.69,4.27,1.19,5.21-2.22,.11-.41,.37-1.18,.69-2.17,2.4-7.36,4.83-15.75,4.83-21.46,0-2.35-.41-4.25-1.41-5.44-.23-.28-.64-.31-.91-.07-.27,.24-.3,.65-.07,.93Z"/><path class="d" d="M234.76,150.57l-11.56,38.12c-.1,.34,.08,.71,.42,.82l7.85,2.59c.34,.11,.7-.08,.81-.43,.11-.35-.08-.72-.42-.83l-7.24-2.39,11.37-37.5c.02-.06,.03-.13,.03-.19,0-.28-.18-.54-.46-.63-.34-.11-.7,.09-.81,.43Z"/><path class="d" d="M196.62,245.96c-.24,.27-.22,.69,.05,.93,.27,.24,.67,.22,.91-.05l38.28-60.06c.11-.13,.17-.28,.17-.44,0-.18-.07-.36-.21-.49-.27-.24-.67-.22-.91,.05l-38.28,60.06Z"/><path class="d" d="M222.37,181.23c-.35,.73-8.55,18.02-9.91,21.79-.51,1.4-1.1,2.31-1.84,2.39-1.83,.22-16.9-8.04-18.14-9.11-.27-.24-.68-.2-.91,.07-.23,.28-.2,.69,.07,.93,1.6,1.4,16.8,9.94,19.31,9.39,1.18-.26,2.05-1.36,2.72-3.21,1.34-3.71,9.78-21.49,9.86-21.67,.04-.09,.06-.19,.06-.29,0-.24-.13-.48-.36-.59-.32-.16-.71-.02-.86,.31Z"/><path class="d" d="M225.17,142.82c-.11,.3-11.2,30.52-11.92,32.38-.82,2.14-2.56,4.3-4.65,5.77-.51,.36-1.06,.72-1.58,1.06-2.16,1.42-4.21,2.75-4.74,4.91-.09,.35,.12,.71,.47,.8,.35,.09,.7-.13,.78-.48,.4-1.64,2.24-2.85,4.18-4.12,.53-.35,1.08-.71,1.62-1.09,2.29-1.62,4.2-4,5.12-6.37,.72-1.87,11.47-31.15,11.92-32.4,.03-.08,.04-.15,.04-.23,0-.27-.16-.52-.42-.62-.33-.13-.71,.05-.83,.39Z"/><path class="d" d="M198.84,118.63c-.3,.2-.38,.6-.2,.9,3.63,5.9,13.18,21.65,13.8,23.71,.91,3.01,6.03,7.03,10.35,8.11,.35,.09,.7-.13,.78-.48,.01-.05,.02-.11,.02-.16,0-.3-.2-.56-.49-.64-4.15-1.04-8.73-4.91-9.42-7.22-.73-2.44-11.5-20.04-13.61-23.47l9.1-6.01c.3-.2,.39-.61,.19-.91-.19-.31-.59-.39-.89-.19l-9.63,6.36Z"/><path class="d" d="M218.4,161.23c-.1,.35,.09,.72,.43,.82l12.02,3.65c.34,.1,.7-.09,.8-.44,.02-.06,.03-.13,.03-.19,0-.28-.18-.55-.46-.63l-12.02-3.65c-.34-.1-.7,.09-.8,.44Z"/><path class="d" d="M241.45,154.96l-2.03,5.7c-.67-.15-1.87-.42-3.05-.68-1.05-.23-1.89-.41-2.5-.52-1.2-.23-1.7-.33-1.89,.29-.11,.35,.09,.72,.43,.82,.1,.03,.2,.04,.3,.02,.65,.06,4.43,.89,6.99,1.49,.32,.07,.64-.11,.75-.42l2.22-6.24c.03-.07,.04-.15,.04-.22,0-.27-.16-.52-.43-.62-.34-.12-.71,.05-.83,.39Zm-8.24,5.17c-.02,.07-.05,.13-.09,.19,.04-.06,.07-.12,.09-.19Z"/><path class="d" d="M228.66,170.7c-.12,.34,.05,.72,.39,.84l12.33,4.51c.34,.12,.71-.06,.83-.4,.03-.07,.04-.15,.04-.22,0-.27-.16-.52-.43-.62l-12.33-4.51c-.34-.12-.71,.06-.83,.4Z"/><path class="d" d="M234.77,180.4c.87,2.71,4.33,3.04,4.48,3.06,.36,.03,.67-.24,.7-.6,0-.02,0-.04,0-.06,0-.34-.25-.63-.59-.66-.03,0-2.76-.28-3.36-2.16-.11-.35-.48-.53-.82-.42-.34,.11-.52,.48-.41,.83Z"/><path class="d" d="M234.79,160.35l-1.45,11.84c-.05,.36,.21,.69,.56,.74,.35,.05,.68-.21,.72-.57l1.45-11.84s0-.06,0-.08c0-.33-.24-.61-.57-.65-.35-.05-.68,.21-.72,.57Z"/><path class="d" d="M203.08,247.16c-11.4-3.26-16.93,.6-19.22,3.18-2.67,3.03-13.39,23.41-13.7,24.07-.15,.33-.06,.78,.26,.94,.32,.16,.71,.02,.86-.31,.08-.16,10.99-20.93,13.53-23.82,2.55-2.88,7.72-5.71,17.91-2.8,15.36,4.39,27.73,.92,36.78-10.32l12,4.39c.34,.12,.71-.06,.83-.4,.03-.07,.04-.15,.04-.22,0-.27-.16-.52-.43-.62l-12.43-4.54c-.26-.09-.55-.01-.72,.21-8.72,11.08-20.73,14.53-35.71,10.24Z"/><path class="d" d="M218.48,189.53c-.2,.31-.11,.71,.19,.91l9.53,6.4c.3,.2,.7,.11,.89-.19,.07-.11,.1-.24,.1-.36,0-.22-.1-.43-.29-.55l-9.53-6.4c-.3-.2-.7-.11-.89,.19Z"/><path class="d" d="M262.89,253.29c-.03,.05-3.47,5.21-4.63,6.99-.19,.28-.36,.56-.52,.82-.45,.73-.91,1.48-1.25,1.55-.11,.02-.27-.03-.46-.16-1.42-.97-4.87-2.02-6.79-2.1l-6.22-4.55c-.29-.21-.69-.14-.9,.15-.21,.3-.14,.71,.15,.92l6.38,4.67c.11,.08,.24,.12,.38,.12,1.61,0,5.02,1.02,6.29,1.88,.5,.34,.98,.46,1.45,.36,.87-.19,1.4-1.05,2.07-2.14,.16-.25,.32-.52,.5-.79,1.16-1.77,4.59-6.93,4.62-6.98,.08-.11,.11-.24,.11-.37,0-.21-.1-.42-.28-.55-.3-.2-.7-.13-.9,.18Z"/><path class="d" d="M245.42,250.72c-.21,.29-.15,.71,.14,.92l12.85,9.54c.29,.21,.69,.15,.9-.15,.08-.12,.12-.25,.12-.39,0-.2-.09-.4-.27-.53l-12.85-9.54c-.29-.21-.69-.15-.9,.15Z"/><path class="d" d="M248.76,245.5c-.16,.33-.03,.72,.29,.88,2.15,1.1,14.34,7.68,15.57,8.78,1.72,1.53,7.6,.39,8.76,.15,.31-.06,.52-.34,.52-.64,0-.04,0-.09-.01-.13-.07-.36-.41-.59-.76-.51-2.63,.55-6.74,.96-7.65,.15-1.61-1.43-15.52-8.8-15.85-8.96-.32-.16-.71-.03-.87,.29Z"/><path class="d" d="M259.72,251.34l-4.58,6.61c-.21,.3-.14,.71,.15,.92,.29,.21,.69,.14,.9-.16l4.58-6.61c.08-.12,.12-.25,.12-.38,0-.21-.1-.41-.27-.54-.29-.21-.69-.14-.9,.16Z"/><path class="d" d="M255.94,235.27c-.15,.33,0,.71,.33,.85,1.04,.44,10.87,5.64,11.02,5.65,.08,.47-.44,2.01-.86,3.26-.13,.4-.28,.82-.42,1.27-.31,.94-.81,1.15-1.16,1.23-1.8,.39-10.92-5.24-12.15-6.62-.24-.27-.65-.29-.91-.04-.26,.25-.28,.66-.04,.93,1.1,1.23,10.7,7.6,13.37,7.02,.7-.15,1.64-.64,2.12-2.1,.14-.44,.28-.86,.42-1.25,.53-1.58,.93-2.76,.93-3.6,0-.46-.12-.82-.41-1.09-.69-.63-10.19-5.34-11.36-5.84-.33-.14-.72,.02-.86,.35Z"/><path class="d" d="M267.6,240.94c-.34,.12-.52,.49-.4,.84,.12,.34,.48,.53,.82,.41l5.56-1.94c.27-.09,.44-.35,.44-.62,0-.07-.01-.14-.03-.21-.12-.34-.48-.53-.82-.41l-5.56,1.94Z"/><path class="d" d="M266.34,221.84c.05,.06,5,5.72,6.42,10.31,1.43,4.61-.39,38.43-.41,38.7-.02,.37,.25,.67,.61,.7,.36,.02,.66-.26,.68-.62,.04-.71,1.04-19.55,1.04-28.6,0-4.76-.17-8.9-.69-10.57-1.51-4.86-6.48-10.55-6.69-10.79-.24-.27-.65-.29-.91-.05-.27,.24-.29,.66-.05,.93Z"/><path class="d" d="M285.81,227.72c-3.25,.78-12.97,2.1-13.07,2.11-.35,.05-.6,.38-.56,.74,.05,.36,.37,.61,.73,.57,.4-.05,9.88-1.34,13.2-2.13,5.27-1.26,19.84-4.59,23.92-4.77,1.96-.09,6.76-.5,11.59-.95v-1.32c-4.87,.45-9.72,.87-11.65,.96-5.03,.22-23.96,4.75-24.16,4.8Z"/><path class="d" d="M0,223.29c5.58-.51,11.21-1.07,12.58-1.2l9.46,8.88c.26,.25,.67,.23,.91-.04,.11-.13,.17-.29,.17-.45,0-.18-.07-.36-.21-.48l-9.67-9.08c-.13-.13-.32-.19-.5-.17-.11,.01-6.45,.64-12.74,1.22v1.32Z"/><path class="d" d="M273.18,233.58c-.19,.31-.1,.71,.2,.91,2.13,1.39,4.51,4.46,4.7,7.91,.19,3.49,.75,26.45,.75,26.66,.01,.36,.31,.65,.66,.64,.35-.01,.63-.3,.63-.66,0,0,.03-2.24,.03-2.24,0-.21-.59-20.96-.78-24.47-.22-3.94-2.82-7.33-5.3-8.95-.3-.2-.7-.11-.89,.2Z"/><path class="d" d="M263.85,248.43c.7,2.03,5.24,2.82,15.18,2.65,.35,0,.64-.3,.64-.66h0c0-.38-.3-.67-.66-.66-11.53,.2-13.68-1.03-13.94-1.77-.12-.34-.49-.52-.82-.4-.34,.12-.51,.5-.4,.84Z"/><path class="d" d="M277.35,237.61c-.34,.11-.53,.48-.42,.83,.11,.35,.47,.54,.81,.43l15.76-5.11c.27-.09,.45-.35,.45-.63,0-.07,0-.13-.03-.2-.11-.35-.47-.54-.81-.43l-15.76,5.11Z"/><path class="d" d="M281.07,237l11.84,43.05c.1,.35,.46,.55,.8,.45,.28-.08,.47-.35,.47-.63,0-.06,0-.12-.02-.18l-11.84-43.05c-.1-.35-.46-.55-.8-.45-.34,.1-.54,.46-.44,.81Z"/><path class="d" d="M289.5,210.42l10.63,68.19c.05,.36,.38,.61,.73,.56,.32-.05,.55-.71,.55-.74l-10.63-68.19c-.05-.36-.38-.61-.73-.56-.35,.05-.6,.39-.55,.74Z"/><path class="d" d="M294.81,244.01l-10.59,1.55c-.35,.05-.6,.39-.55,.75,.05,.36,.38,.61,.73,.56l10.56-1.54,26.65-1.32v-1.32l-26.75,1.33s-.04,0-.06,0Z"/><path class="d" d="M28.17,215.64c-.24,.54-5.81,13.29-6.98,16.26-1.01,2.58-1.86,8.07-2.11,9.83L0,242.68v1.32l19.68-.98c.31-.02,.57-.25,.61-.57,0-.07,.98-7.18,2.11-10.06,1.15-2.94,6.9-16.08,6.96-16.21,.04-.09,.06-.18,.06-.27,0-.25-.14-.49-.38-.6-.33-.15-.71,0-.85,.33Z"/><path class="d" d="M288.63,262.29c.03,.36,.34,.64,.69,.61l32.29-2.43v-1.32l-32.38,2.44c-.36,.03-.62,.34-.6,.71Z"/><path class="d" d="M308.76,204.65l9,72.43c.03,.36,.35,.63,.7,.6,.36-.03,.62-.35,.59-.72l-8.99-72.34,11.56-62.29v-7.09l-12.84,69.22c-.01,.06-.01,.12,0,.18Z"/><path class="d" d="M.95,130.12L0,135.25v7.09l2.22-11.97s.01-.08,.01-.12c0-.31-.22-.59-.53-.65-.35-.07-.69,.17-.75,.52Z"/><path class="d" d="M320.5,188.55c-.87,3.92,0,6.72,1.11,8.8v-3.78c-.21-1.14-.25-2.45,0-3.96v-1.35c-.09-.1-.2-.18-.34-.21-.35-.08-.69,.14-.77,.5Z"/><path class="d" d="M.15,188.84c.05-.21-.01-.43-.15-.58v1.35c.04-.25,.09-.51,.15-.77Z"/><path class="d" d="M1.46,199.65c.2,.29,.39,.56,.56,.82l6.88,63.76c.02,.36,.33,.64,.69,.61,.34-.02,.6-.31,.6-.66,0-.01,0-.03,0-.04l-6.9-63.93c0-.11-.04-.22-.1-.31-.2-.32-.43-.66-.68-1.01-.93-1.35-2.08-3.01-2.51-5.32v3.78c.48,.89,1,1.65,1.46,2.3Z"/><path class="d" d="M303.46,224.45l.83,19.74c.02,.36,.32,.65,.67,.63,.35-.02,.62-.31,.62-.66v-.03l-.83-19.74c-.02-.36-.32-.65-.67-.63-.36,.02-.63,.33-.62,.69Z"/><path class="d" d="M286.29,184.32c0,.36,.29,.66,.65,.66h26.1l8.58,3.82v-1.44l-8.19-3.64c-.08-.04-.17-.05-.26-.05h-26.23c-.36,0-.65,.29-.65,.66Z"/><path class="d" d="M74.69,222c.33,.15,.71,0,.85-.34,.04-.09,.05-.17,.05-.26,0-.25-.15-.5-.39-.6L0,187.35v1.44l74.69,33.21Z"/><path class="d" d="M242.37,135.94c-.2,.3-.13,.71,.16,.92l52.88,35.14c.12,.08,.26,.13,.41,.12,.18-.01,18.43-1.01,23.14,.78,.4,.15,1.32,.54,2.66,1.12v-1.43c-1.09-.47-1.85-.79-2.21-.92-4.72-1.8-21.22-.99-23.44-.88l-52.69-35.01c-.29-.21-.69-.14-.9,.16Z"/><path class="d" d="M82.18,210.48c.33,.15,.71,0,.85-.34,.04-.09,.05-.18,.05-.26,0-.25-.14-.5-.39-.6C79.67,207.92,13.63,178.42,0,172.58v1.43c14.8,6.37,81.45,36.14,82.18,36.47Z"/><path class="d" d="M293.25,115.22c-.17,.32-.06,.72,.25,.9l28.11,15.94v-1.51l-27.49-15.59c-.31-.18-.71-.06-.88,.26Z"/><path class="d" d="M79.99,177.42l-21.08,51.48c-.14,.34,.02,.72,.35,.86,.33,.14,.71-.02,.84-.35l21.3-52.03c.03-.08,.05-.17,.05-.25,0-.23-.12-.46-.33-.58L0,130.56v1.51l79.99,45.36Z"/><path class="d" d="M270,125.25c-.13,.3-.02,.64,.25,.82l38.78,25.26s.1,.06,.15,.07l9.43,3.02,3.01,1.27v-1.43l-2.54-1.07s-.04-.01-.05-.02l-9.38-3-38.21-24.88c.71-1.26,3.08-4.89,9.27-10.44,8.65-7.75,24.36-4.62,26.12-4.24,1.48,.32,7.43,3.51,14.78,7.61v-1.5c-7.25-4.04-12.93-7.06-14.51-7.4-1.83-.4-18.12-3.64-27.24,4.53-8.03,7.19-9.79,11.23-9.86,11.4Z"/><path class="d" d="M15.51,127c10.76,6.13,20.93,11.93,23.83,13.12,6.3,2.57,24.66,22.47,25.87,24.59,.18,.31,.58,.42,.88,.24,.31-.18,.41-.59,.23-.9-1.25-2.18-19.8-22.4-26.5-25.14-2.83-1.16-12.96-6.93-23.68-13.04C10.57,122.68,4.92,119.46,0,116.72v1.5c4.85,2.71,10.32,5.83,15.51,8.78Z"/><path class="d" d="M93.8,195.44c.33,.14,.71-.02,.84-.36,.03-.08,.05-.17,.05-.25,0-.26-.15-.5-.4-.61L0,154.26v1.43l93.8,39.75Z"/><path class="d" d="M321.19,173.24l-2.91,13.49c-.08,.35,.14,.71,.49,.78,.35,.08,.69-.15,.77-.5l2.07-9.62v-4.8l-.3,.38c-.06,.08-.11,.17-.13,.27Z"/><path class="d" d="M23.68,130.95l-13.16,28.33L0,172.59v4.8l.8-3.72,10.77-13.63s.06-.08,.08-.13l13.19-28.4c.04-.09,.06-.19,.06-.28,0-.25-.14-.48-.37-.6-.32-.16-.71-.02-.86,.31Z"/><path class="d" d="M37.4,138.54l-20.9,56.9c-.12,.34,.04,.72,.38,.85,.33,.13,.71-.05,.83-.39l20.9-56.9c.03-.08,.04-.15,.04-.23,0-.27-.16-.52-.42-.62-.33-.13-.71,.05-.83,.39Z"/><path class="d" d="M52.21,150.05l-19.79,52.47c-.13,.34,.04,.72,.37,.85,.33,.13,.71-.04,.83-.38l19.79-52.47c.03-.08,.04-.16,.04-.24,0-.26-.16-.51-.41-.61-.33-.13-.71,.04-.83,.38Z"/><path class="d" d="M310.76,111.53l-43.37,68.24c-.18,.29-.12,.67,.15,.88l12.35,15.7c.28,.22,.69,.17,.91-.12,.22-.29,.16-.7-.12-.92l-11.88-15.33,43.04-67.73c.07-.11,.1-.23,.1-.36,0-.22-.1-.43-.29-.55-.3-.2-.7-.11-.89,.19Z"/><path class="d" d="M276.44,118.25c-.17,.32-.05,.72,.26,.89l21.65,11.68c.31,.17,.71,.05,.88-.27,.05-.1,.08-.21,.08-.31,0-.23-.12-.46-.34-.58l-21.65-11.68c-.31-.17-.71-.05-.88,.27Z"/><path class="d" d="M241.71,114.84c-.19,.31-.1,.71,.2,.91l45.47,33.77c.3,.2,.7,.1,.89-.2,.07-.11,.1-.23,.1-.35,0-.22-.11-.43-.3-.56l-45.47-33.77c-.3-.2-.7-.1-.89,.2Z"/><path class="d" d="M296.26,171.34l-3.07,17.12-11.12,18.83c-.17,.29-.1,.67,.18,.88l5.1,3.73c.29,.21,.69,.14,.9-.15,.21-.3,.14-.71-.15-.92l-4.61-3.37,10.87-18.41c.04-.07,.07-.14,.08-.22l3.09-17.24s.01-.08,.01-.12c0-.31-.22-.59-.53-.65-.35-.07-.69,.17-.75,.53Z"/><path class="d" d="M165.96,101.09c-.89,1.14-81.42,104.8-85.67,110.52-3.84,5.17-6.72,10.47-8.31,15.34-1.35,4.14-7.74,45.76-7.85,46.09-.11,.35,.06,.45,.39,.56,.34,.11,.7-.08,.81-.42,.1-.33,6.51-41.68,7.87-45.81,1.55-4.73,4.35-9.9,8.11-14.96,4.25-5.71,84.77-109.36,85.65-110.5,.09-.12,.14-.26,.14-.41,0-.19-.08-.39-.24-.52-.28-.23-.69-.18-.91,.11Z"/><path class="d" d="M94.95,199.64l-.05,.09c-.35,.62-.79,1.22-1.43,1.95-.62,.7-1.41,1.49-2.37,2.44-1.94,1.93-6.14,7.3-7.17,9.62-.97,2.18-8.65,22.17-8.97,23.02-.13,.33,.03,.71,.35,.85l73.96,36.39c.33,.14,.71-.02,.84-.35,.03-.08-.1-.76-.35-.86l-73.38-36.14c1.32-3.43,7.85-20.41,8.72-22.35,.9-2.02,4.88-7.22,6.9-9.22,.98-.97,1.77-1.77,2.42-2.5,.71-.8,1.2-1.47,1.6-2.18l.05-.09c.72-1.29,1.09-1.94,3.41-.83,2.02,.96,6.93,3.43,8.99,5.59,1.98,2.07,8.13,6.32,8.39,6.5,.3,.2,.7,.12,.9-.18,.2-.3,.12-.71-.17-.91-.06-.04-6.3-4.35-8.19-6.33-2.13-2.23-6.79-4.63-9.37-5.86-3.16-1.5-4.13-.32-5.08,1.38Z"/><path class="d" d="M107.47,217.65c-.3,.86-.55,1.61-.75,2.07-.39,.87-1.19,2.02-2.11,3.35-1.49,2.13-3.33,4.77-4.4,7.66-1.68,4.54-11.57,32.75-11.67,33.03-.12,.34,.05,.72,.39,.84,.34,.12,.71-.06,.83-.4,.1-.28,9.99-28.48,11.66-33.01,1.01-2.72,2.8-5.29,4.24-7.36,.97-1.38,1.8-2.58,2.24-3.57,.23-.51,.49-1.28,.8-2.17,.87-2.54,2.33-6.79,4-7.57,.31-.14,.59-.15,.9-.03,3.31,1.34,53.78,16.3,55.99,16.95,.34,.1,.58-.08,.68-.43,.02-.06,.14-.14,.14-.2,0-.29-.18-.55-.47-.63-.54-.16-52.62-15.59-55.88-16.91-.64-.26-1.29-.24-1.92,.05-2.18,1.02-3.63,5.25-4.69,8.34Z"/><path class="d" d="M93.35,201.87c-.13,.34,.02,.72,.35,.86l18.57,7.76c.33,.14,.71-.02,.84-.36,.03-.08,.05-.17,.05-.25,0-.26-.15-.51-.4-.61l-18.57-7.76c-.33-.14-.71,.02-.84,.36Z"/><path class="d" d="M90.99,204.26c-.17,.32-.06,.72,.25,.9l17.5,10.05c.31,.18,.7,.07,.88-.25,.06-.1,.08-.21,.08-.32,0-.23-.12-.45-.33-.58l-17.5-10.05c-.31-.18-.7-.07-.88,.25Z"/><path class="d" d="M85.36,211.33c-.14,.33,.01,.72,.34,.87,7.05,3.09,18.64,8.63,19.73,10.37,.19,.31,.59,.4,.89,.2,.19-.13,.3-.34,.3-.56,0-.12-.03-.24-.1-.35-1.66-2.65-18.41-10.04-20.31-10.87-.33-.14-.71,.01-.85,.35Z"/><path class="d" d="M80.29,223.01c-.21,.29-.15,.71,.14,.92l2.56,1.89-3.78,12.79c-.1,.35,.09,.72,.43,.82,.34,.1,.7-.09,.8-.44l3.91-13.24c.02-.06,.03-.13,.03-.19,0-.21-.1-.41-.27-.53l-2.93-2.17c-.29-.21-.69-.15-.9,.15Z"/><path class="d" d="M82.84,225.33c-.14,.33,0,.72,.33,.87l17,6.38c.33,.15,.71,0,.85-.33,.04-.09,.06-.18,.06-.27,0-.25-.14-.49-.38-.6l-17-6.38c-.33-.15-.71,0-.85,.33Z"/><path class="d" d="M102.64,225.98c-.14,.33,.01,.72,.34,.87l75.71,33.32c.33,.14,.71-.01,.85-.34,.04-.08-.02-.14-.02-.22,0-.26-.07-.54-.32-.64l-75.71-33.32c-.33-.14-.71,.01-.85,.34Z"/><path class="d" d="M100.47,230.03c-.13,.34,.04,.72,.37,.85l7.62,3.02-3.84,8.33c-.08,.17-.08,.37,0,.54,.07,.17,.22,.31,.39,.36l14.29,4.71c.34,.11,.7-.08,.81-.42,.02-.07,.03-.14,.03-.2,0-.28-.17-.54-.45-.63l-13.6-4.48,3.82-8.29c.08-.17,.08-.36,.01-.52-.07-.17-.2-.3-.37-.37l-8.26-3.27c-.33-.13-.71,.04-.84,.38Z"/><path class="d" d="M129.58,214.75l-20.81,62.92c-.11,.34,.07,.72,.41,.83,.34,.11,.7-.07,.82-.42l20.81-62.92c.02-.07,.03-.14,.03-.21,0-.28-.17-.53-.44-.63-.34-.11-.7,.07-.82,.42Z"/><path class="d" d="M98.58,236.22c-.12,.34,.05,.72,.38,.85,.34,.13,39.31,14.6,42.96,16.55,.46,.25,1.02,.53,1.66,.86,4.42,2.26,25.85,20.55,26.14,20.84,.35,.34,1.03-.79,.97-.85-4.68-4.8-21.95-18.83-26.53-21.17-.63-.32-1.19-.61-1.64-.85-3.73-1.99-41.74-16.11-43.12-16.62-.33-.13-.71,.05-.83,.39Z"/><path class="d" d="M108.16,234.55c-.08,.18-.08,.38,0,.55q.16,.35,7.27,2.39c3.41,.98,6.82,1.94,6.82,1.94,.34,.1,.7-.11,.8-.46,.02-.06,.02-.12,.02-.18,0-.29-.19-.55-.47-.63-5.08-1.44-12.78-3.65-13.53-3.93-.01,0-.02-.01-.04-.02-.32-.15-.71,0-.86,.32Z"/><path class="d" d="M97.56,189.25c-.17,.32-.05,.72,.27,.89l23.32,12.56s.05,.02,.07,.03c.23,.09,5.82,2.26,10.55,2.51,4.64,.25,48.77,6.5,49.12,6.52,.36,.01,.65-.27,.67-.64v-.02c0-.35-.28-.65-.62-.66-.35-.01-44.46-6.27-49.09-6.51-4.35-.23-9.64-2.23-10.12-2.41l-23.29-12.54c-.32-.17-.71-.05-.87,.28Z"/><path class="d" d="M159.1,139.98c-.08,.98-1.75,22.28-1.16,28.44,.57,5.99-5.25,38.66-5.27,38.75-.08,.35,.13,.71,.47,.8,.35,.09,.7-.13,.78-.48,.09-.37,5.89-32.97,5.3-39.19-.57-6.05,1.17-28,1.19-28.24,0-.02-.02,0-.02-.02,0-.34,.1-.53-.24-.56-.36-.03-1.02,.15-1.05,.51Z"/><path class="d" d="M129.12,149.34c-.03,.37,.23,.68,.59,.72l29.23,2.53c.36,.03,.67-.23,.7-.6,0-.02,0-.04,0-.06,0-.34-.25-.62-.59-.66l-29.23-2.53c-.36-.03-.67,.23-.7,.6Z"/><path class="d" d="M297.14,72.38c-.31,.18-.41,.59-.23,.9,.18,.31,.57,.42,.88,.24l2.54-1.5,21.29,3.35v-1.33l-21.32-3.36c-.15-.02-.3,0-.42,.08l-2.73,1.62Z"/><path class="d" d="M30.05,80.09l8.53,2.31,5.29,7.87-6.51,34.02c-.07,.36,.16,.7,.51,.77,.35,.07,.69-.16,.76-.52l6.56-34.29s.01-.08,.01-.13c0-.13-.04-.26-.11-.37l-5.58-8.3c-.09-.13-.22-.22-.37-.26l-8.8-2.38s-.04-.01-.07-.01L0,74.03v1.33l30.05,4.73Z"/><path class="d" d="M33.13,100.27l-8.2,15.77c-.16,.3-.06,.68,.22,.87l45.74,29.56c.3,.19,.7,.1,.89-.2,.07-.11,.1-.23,.1-.35,0-.22-.11-.43-.3-.56l-45.24-29.24,7.92-15.23c.17-.32,.05-.72-.27-.89-.32-.17-.71-.05-.87,.27Z"/><path class="d" d="M27.71,110.69c-.14,.33,0,.72,.34,.87l63.25,27.82s.04,.02,.06,.02l18.68,5.86c.34,.11,.7-.08,.81-.42,.02-.07,.03-.14,.03-.2,0-.28-.17-.54-.45-.63l-18.65-5.85-63.22-27.81c-.33-.14-.71,0-.85,.34Z"/><path class="d" d="M62.19,83.49l-11.85,49.15c-.08,.35,.13,.71,.47,.8,.35,.09,.7-.13,.78-.48l11.85-49.15c.01-.05,.02-.11,.02-.16,0-.3-.2-.57-.49-.64-.35-.09-.7,.13-.78,.48Z"/><path class="d" d="M151.53,98.89c-4.6,3.81-9.38,5.07-14.62,3.85-3.43-.79-73.02-11.13-75.98-11.57-.35-.05-.68,.2-.73,.56-.05,.36,.19,.69,.55,.75,.72,.11,72.5,10.76,75.88,11.55,5.65,1.31,10.79-.04,15.72-4.12,6.19-5.13,41.84-28.33,41.97-28.44,.15-.13,.23-.32,.23-.5,0-.15-.05-.3-.15-.43-.23-.28-.64-.31-.91-.07-.13,.11-35.78,23.3-41.95,28.42Z"/><path class="d" d="M140.05,88c-.24,.06-.42,.26-.47,.5l-8.45,41.76-7.76,25.49c-.09,.35,.12,.71,.47,.8,.35,.09,.7-.12,.78-.48l7.77-25.52,8.38-41.39,20.72-5.67c.29-.08,.48-.35,.48-.64,0-.06,0-.11-.02-.17-.09-.35-.45-.56-.79-.47l-21.1,5.78Z"/><path class="d" d="M139.09,92.72c-.35,.09-.55,.45-.46,.8,.09,.35,.44,.56,.79,.47l22.06-5.92c.29-.08,.48-.34,.48-.64,0-.06,0-.11-.02-.17-.09-.35-.44-.56-.79-.47l-22.06,5.92Z"/><path class="d" d="M135.06,110.85c-.06,.36,.19,.7,.54,.75l21.33,1.92c.35,.06,.47-.18,.53-.54,0-.03,.22-.08,.22-.12,0-.32-.23-.6-.55-.65l-21.33-1.92c-.35-.06-.68,.19-.74,.55Z"/><path class="d" d="M159.28,75.5c-.27,.24-.29,.66-.05,.93,.24,.27,.65,.29,.91,.05l23.28-21.41c.14-.13,.22-.31,.22-.49,0-.16-.05-.31-.16-.44-.24-.27-.65-.29-.91-.05l-23.28,21.41Z"/><path class="d" d="M70.71,88.65l-.79,4.32c-.07,.36,.17,.7,.52,.77,.35,.07,.69-.17,.75-.53l.79-4.32s.01-.08,.01-.12c0-.31-.22-.59-.53-.65-.35-.07-.69,.17-.75,.53Z"/><path class="d" d="M28.68,395.96c-.24,.27-.23,.68,.04,.93l4.66,4.4h1.9l-5.69-5.37c-.26-.25-.67-.23-.91,.04Z"/><path class="d" d="M105.81,68.29c-1.43,6.44-17.01,76.38-17.32,79.68-.43,4.67,1.46,8.03,5.34,9.45l.7,.26c4.2,1.55,6.83,2.41,8,1.27,.52-.51,.62-1.3,.3-2.34-.84-2.76,1.74-10.41,2.8-13.12,.13-.34-.03-.72-.36-.86-.33-.14-.71,.03-.84,.37-.16,.42-3.98,10.23-2.84,14,.15,.5,.16,.88,.04,1-.67,.66-4.28-.68-6.67-1.56l-.71-.26c-4.19-1.54-4.75-5.25-4.49-8.09,.31-3.31,17.2-79.12,17.37-79.88,.01-.05,.02-.1,.02-.15,0-.18-.07-.36-.21-.48L35.28,0h-1.9L105.81,68.29Z"/><path class="d" d="M111.88,99.49l-1.15,8.86h-4.75c-.32,0-.59,.24-.64,.56l-.83,5.79-7.66-2.19c-.34-.1-.7,.11-.8,.46-.1,.35,.1,.71,.45,.81l8.36,2.39c.18,.05,.37,.02,.53-.08,.16-.1,.26-.27,.29-.46l.86-5.97h4.76c.32,0,.6-.24,.64-.57l1.22-9.44s0-.06,0-.09c0-.33-.24-.61-.56-.65-.35-.05-.68,.21-.73,.57Z"/><path class="d" d="M94.36,126.07s.04-.1,.05-.15c-.01,.06-.03,.11-.05,.15Z"/><path class="d" d="M108.19,122.9l-3.44,5.8c-10.89-3.73-10.95-3.7-11.28-3.5-.16,.09-.27,.25-.31,.43-.08,.36,.14,.71,.49,.79,.04,0,.07,.01,.11,.01,.77,.18,7.15,2.34,11.08,3.69,.29,.1,.6-.02,.76-.28l3.71-6.25c.06-.11,.09-.22,.09-.34,0-.22-.11-.44-.31-.56-.31-.19-.7-.09-.89,.22Zm-13.83,3.17s.04-.1,.05-.15c-.01,.05-.03,.11-.05,.15-.02,.05-.05,.09-.09,.13,.03-.04,.06-.08,.09-.13Z"/><path class="d" d="M124.1,68.74l-14.4,75.74c-.07,.36,1.02,.67,1.27,.25l14.47-76.19c-.06,.4-.06,.36-.06,.32,0-.31-.21-.59-.52-.65-.35-.07-.69,.16-.76,.52Z"/><path class="d" d="M90.31,16.08c.06,.07,5.66,7.42,8.18,10.58,2.43,3.05,9.42,8,10.45,8.72l13.17,22.16c.18,.31,.58,.41,.89,.22,.2-.12,.31-.34,.31-.56,0-.12-.03-.23-.09-.34l-13.24-22.28c-.05-.08-.11-.15-.19-.2-.08-.05-7.84-5.47-10.29-8.55-2.51-3.15-8.1-10.48-8.16-10.56-.22-.29-.63-.34-.91-.12-.28,.22-.33,.64-.11,.92Z"/><path class="d" d="M50.73,374.12c-.22,.29-.17,.7,.11,.93l32.46,26.25h2.08l-33.74-27.28c-.28-.23-.69-.18-.91,.11Z"/><path class="d" d="M95.47,9.83l33.21,27.73,2.71,15.77c.06,.36,.4,.6,.75,.54,.31-.06,.53-.33,.53-.65,0-.04,0-.08,0-.11l-2.75-16.01c-.03-.16-.11-.3-.23-.4L96.28,8.81,85.38,0h-2.08l12.17,9.83Z"/><path class="d" d="M133.41,28.93c-.27,.23-.31,.65-.08,.93,.23,.28,.64,.31,.91,.08,.12-.1,11.82-10.11,15.38-11.45,3.42-1.29,5.89-1.41,8.36,1.78,2.61,3.36,16.15,19.46,16.26,19.59,.23,.28,.64,.31,.91,.07,.15-.13,.22-.31,.22-.5,0-.15-.05-.31-.16-.43-.11-.13-13.63-16.21-16.23-19.55-2.94-3.79-6.05-3.62-9.82-2.2-3.78,1.42-15.28,11.26-15.77,11.67Z"/><path class="d" d="M148.98,31.71c-.27,.24-.3,.65-.07,.93,.23,.28,.64,.31,.91,.07l21.85-19.12c.15-.13,.23-.31,.23-.5,0-.15-.05-.3-.16-.43-.23-.28-.64-.31-.91-.07l-21.85,19.12Z"/><path class="d" d="M164.2,365.95l-14.41,17.92c-.11,.14-.16,.32-.14,.5,.02,.18,.11,.34,.26,.45l1.23,16.47h1.35c-.63-8.55-1.26-17.12-1.26-17.12l13.98-17.39c.23-.28,.19-.7-.09-.93-.28-.23-.68-.19-.91,.09Z"/><path class="d" d="M152.4,17.03c.02,.36,.32,.64,.68,.62,.36-.02,.62-.32,.61-.69,0-.27-.59-8.61-1.21-16.97h-1.35l1.27,17.03Z"/><path class="d" d="M159.4,389.99c-.23,.28-.2,.69,.07,.93,.27,.24,.68,.21,.91-.07l14.31-15.83c.11-.12,.15-.42,.15-.57,0-.19-.07-.23-.22-.36-.27-.24-.68-.21-.91,.07l-14.31,15.83Z"/><path class="d" d="M234.07,121.28l.73,5.71c.02,.12,.06,.23,.14,.33l7.02,8.92-5.36,15.3c-.08,.36,.14,.71,.49,.79,.35,.08,.69-.15,.77-.5l5.42-15.61s.02-.09,.02-.14c0-.15-.05-.29-.14-.41l-7.1-9.02-.7-5.53c-.05-.36-.37-.62-.72-.57-.35,.05-.6,.38-.56,.74Z"/><path class="d" d="M278.24,70.59l7.39,8.52c.23,1.53,1.7,11.1,2.43,14.39,.28,1.25,.8,2.1,1.56,2.53,1.09,.62,2.34,.17,3.01-.07,.13-.05,.24-.09,.32-.11,.29-.07,.49-.34,.49-.64,0-.05,0-.11-.02-.16-.09-.35-.44-.57-.78-.48-.12,.03-.26,.08-.44,.14-.54,.2-1.37,.49-1.95,.16-.42-.24-.74-.8-.93-1.67-.77-3.46-2.43-14.39-2.45-14.5-.02-.12-.07-.24-.15-.34l-7.51-8.66c-.24-.27-.64-.3-.91-.06-.27,.24-.29,.66-.06,.93Z"/><path class="d" d="M303.57,80.56c-.26,.25-.28,.66-.04,.93,.24,.27,.65,.29,.91,.04l5.4-5.05c.14-.13,.21-.31,.21-.49,0-.16-.06-.32-.17-.44-.24-.27-.65-.29-.91-.04l-5.4,5.05Z"/><path class="d" d="M266.48,78.85c-.28,.22-.34,.63-.12,.92,.22,.29,.62,.35,.91,.12l22.77-17.71,5.97,7.44-1.29,1.16c-.13,.12-.21,.29-.22,.48-.01,.18,.06,.36,.19,.49l5.45,5.47,5.01,6.29-6.61,4.79c-1.54-.43-8.24-2.12-11.06,.21-.28,.23-.32,.64-.1,.93,.22,.28,.63,.33,.91,.1,2.16-1.78,8.09-.52,10.19,.12,.19,.06,.4,.02,.56-.09l7.43-5.38c.15-.11,.24-.27,.27-.45,0-.03,0-.06,0-.09,0-.15-.05-.3-.14-.42l-5.47-6.87s-.03-.04-.05-.05l-4.98-5,1.24-1.12c.26-.23,.29-.64,.07-.91l-6.76-8.42c-.22-.27-.61-.32-.89-.11l-23.27,18.1Z"/><path class="d" d="M228.9,86.3l-26.31,15.18-51.01,18.56c-.32,.17-.44,.56-.28,.89,.16,.32,.55,.45,.87,.29l51.03-18.57,26.38-15.23s.07-.04,.09-.07L316.72,13.6c.15-.13,.23-.32,.23-.51,0-.15-.05-.3-.15-.42-.23-.28-.64-.32-.91-.09l-86.99,73.71Z"/><path class="d" d="M200.76,52.4l46.42,58.97c.22,.28,.63,.33,.91,.1,.16-.13,.24-.32,.24-.51,0-.14-.05-.29-.14-.41l-46.42-58.97c-.22-.28-.63-.33-.91-.1-.28,.23-.32,.64-.1,.93Z"/><path class="d" d="M217.32,72.41c-.27,.23-.31,.65-.08,.93,.23,.28,.64,.32,.91,.08l57.86-49.49c.15-.13,.23-.32,.23-.51,0-.15-.05-.3-.15-.42-.23-.28-.64-.32-.91-.08l-57.86,49.49Z"/><path class="d" d="M228.76,31.66l45.15,57.79c.22,.28,.63,.33,.91,.1,.16-.13,.24-.32,.24-.52,0-.14-.05-.29-.14-.41l-45.15-57.79c-.22-.28-.63-.33-.91-.1-.28,.23-.32,.64-.1,.93Z"/><path class="d" d="M245.28,17.25l39.99,47.86c.23,.28,.64,.31,.91,.07,.15-.13,.23-.32,.23-.5,0-.15-.05-.3-.15-.43l-39.99-47.86c-.23-.28-.64-.31-.91-.07-.27,.24-.3,.65-.07,.93Z"/><path class="d" d="M277.61,13.85c-2.49,.59-7.93,1.44-7.99,1.44-.35,.05-.59,.39-.54,.75,.05,.36,.38,.61,.74,.55,.23-.04,5.55-.87,8.08-1.46,2.56-.6,8.58-3.17,8.83-3.28,.25-.11,.4-.35,.4-.61,0-.08-.02-.17-.05-.25-.14-.34-.52-.49-.85-.35-.06,.03-6.17,2.63-8.62,3.21Z"/><path class="d" d="M305.58,61.69c.22,.29,.63,.33,.91,.11l15.13-12.18v-1.68l-15.93,12.83c-.28,.23-.33,.64-.11,.93Z"/><path class="d" d="M75.57,347.94l-16.55,32.99-14.81,20.36h1.61l14.27-19.62s.04-.06,.06-.09l16.58-33.04c.05-.1,.07-.2,.07-.3,0-.24-.13-.47-.35-.59-.32-.17-.71-.04-.87,.29Z"/><path class="d" d="M26.02,25.01l-14.56,13.69L0,47.93v1.68l12.28-9.89s.03-.02,.04-.03l14.62-13.75s.06-.06,.08-.09L45.82,0h-1.61L26.02,25.01Z"/><path class="d" d="M297.77,53.17c.23,.28,.63,.32,.91,.09l22.94-19.24v-1.71l-23.76,19.92c-.28,.23-.32,.65-.09,.93Z"/><path class="d" d="M0,32.32v1.71l6.77-5.68c.16-.13,.24-.32,.24-.51,0-.15-.05-.3-.15-.42-.23-.28-.63-.32-.91-.09L0,32.32Z"/><path class="d" d="M308.21,19.95l13.4,16.28v-2.05l-12.41-15.08c-.23-.28-.64-.31-.91-.08-.27,.23-.31,.65-.08,.93Z"/><path class="d" d="M15.05,54.51l-10.57,7.12c-.15,.1-.25,.27-.28,.45L.95,83.55c-.03,.17,.02,.35,.12,.49,.1,.14,.26,.23,.43,.26,4.3,.61,7.02,3.43,8.82,5.3,.44,.45,.81,.84,1.15,1.13,1.71,1.48,3.6,1.85,5.32,1.06,1.41-.65,8.2-10.03,10.24-12.89,.08-.11,.12-.25,.12-.39,0-.04,0-.07,0-.11l-2.24-13.83c-.02-.12-.07-.23-.14-.32L0,34.19v2.05l15.05,18.28Zm8.61,10.46l2.17,13.38c-4.09,5.71-8.75,11.8-9.57,12.25-1.23,.57-2.64,.26-3.95-.87-.29-.25-.64-.62-1.06-1.05-1.72-1.79-4.56-4.72-8.92-5.57l3.1-20.53,10.46-7.04,7.77,9.44Z"/><path class="d" d="M10.15,66.81l-3.98,18.72c-.08,.36,.15,.71,.49,.78,.35,.08,.69-.15,.77-.5l3.98-18.72s.01-.09,.01-.14c0-.3-.21-.58-.51-.64-.35-.08-.69,.15-.77,.5Z"/><path class="d" d="M88.62,346.55l-3.85,8.73-17.7,32.2s-.01,.02-.02,.03c-.07,.15-3,6.3-6.57,13.78h1.44c3.37-7.06,6.1-12.8,6.29-13.18l17.7-32.21s.02-.03,.03-.05l3.86-8.76c.04-.09,.06-.18,.06-.27,0-.25-1.09-.6-1.24-.27Z"/><path class="d" d="M47.8,26.42c-.33,.66-.65,1.28-.95,1.87-1.93,3.79-3.21,6.3-2.93,8.24,.29,1.99,3.35,25.5,3.38,25.73,.05,.36,.37,.61,.73,.57,.35-.05,.6-.38,.56-.74-.03-.24-3.1-23.75-3.39-25.75-.22-1.53,1.05-4.01,2.8-7.44,.3-.6,.62-1.22,.95-1.88,1.38-2.75,7.9-16.38,12.98-27.02h-1.44c-5.03,10.55-11.34,23.73-12.69,26.42Z"/><path class="d" d="M45.18,46.96c-.01,.37,.27,.67,.62,.68l19.35,.66,27.33,25.1c.26,.24,.67,.22,.91-.05,.11-.13,.17-.28,.17-.44,0-.18-.07-.36-.21-.49l-27.51-25.26c-.11-.1-.26-.16-.41-.17l-19.59-.67c-.36-.01-.66,.27-.67,.64Z"/><path class="d" d="M95,363.44l-17.13,37.85h1.42l16.88-37.3c.04-.09,.06-.18,.06-.28,0-.25-.14-.49-.38-.6-.32-.15-.71,0-.86,.32Z"/><path class="d" d="M49.86,61.84c-.15,.33,0,.72,.32,.87,.32,.15,.71,0,.86-.32L79.28,0h-1.42l-28,61.84Z"/><path class="d" d="M26.08,25.95c.45,.39,10.99,9.67,13.15,11.05,2.52,1.6,3.82,.98,5.78-1.01,.13-.13,.19-.3,.19-.47s-.06-.34-.19-.47c-.25-.26-.66-.26-.91,0-1.79,1.83-2.42,1.95-4.18,.83-2.08-1.32-12.88-10.83-12.99-10.93-.27-.24-.68-.21-.91,.07-.23,.28-.2,.69,.07,.93Z"/><path class="d" d="M54.2,35.81c.11,.35,.47,.54,.81,.44,1.09-.34,4.25-1.19,5.74-.97,1.79,.26,2.48,.7,4.34,2.78,2.01,2.26,4.95,3.78,5.07,3.84,.32,.16,.71,.03,.87-.29,.05-.1,.07-.2,.07-.3,0-.24-.13-.47-.35-.59-.03-.01-2.85-1.48-4.7-3.55-2.08-2.33-2.98-2.9-5.11-3.2-2.08-.3-6.13,.97-6.3,1.02-.34,.11-.53,.48-.43,.82Z"/><path class="d" d="M67.14,364.77c-.22,.28-.18,.7,.1,.93l43.47,35.6h2.06l-44.72-36.63c-.28-.23-.68-.18-.91,.1Z"/><path class="d" d="M133.42,18.6c.28,.23,.68,.18,.91-.1,.1-.12,.14-.27,.14-.41,0-.19-.08-.38-.24-.51L112.77,0h-2.06l22.72,18.6Z"/><path class="d" d="M80.42,351.76l-14.63,25.62c-.18,.31-.08,.72,.23,.9,.31,.18,.7,.08,.88-.24l14.63-25.62c.06-.1,.09-.22,.09-.33,0-.23-.11-.45-.32-.57-.31-.18-.7-.08-.88,.24Z"/><path class="d" d="M117.45,394.4c-.17,.02-.33,.11-.44,.26l-4.95,6.64h1.62l3.95-5.3,6.45,5.3h2.06l-8.21-6.75c-.14-.11-.31-.16-.48-.14Z"/><path class="d" d="M135.29,9.22c.19,.15,.44,.19,.66,.09l5.84-2.57c.24-.11,.39-.35,.39-.61,0-.09-.02-.18-.05-.26-.14-.33-.52-.49-.85-.34l-5.49,2.41L126.14,0h-2.06l11.21,9.22Z"/><path class="d" d="M106.89,7.95l11.73,10.24-4.6,6.32c-.21,.29-.15,.7,.13,.92,.29,.22,.69,.16,.9-.14l4.96-6.82c.2-.28,.16-.67-.1-.89l-11.73-10.23,5.49-7.36h-1.62l-5.26,7.05c-.21,.28-.17,.67,.09,.9Z"/><path class="d" d="M68.93,342.37c-2.07,2.02-6.52,9.47-6.94,13.95-.23,2.5-3.68,6.98-6.45,10.59-1.69,2.2-3.16,4.1-3.91,5.5-1.94,3.6-10.27,13.73-15.38,17.73-2.31,1.81-5.64,4.33-8.87,6.76-1.99,1.5-4,3.02-5.8,4.39h2.16c1.42-1.08,2.92-2.21,4.41-3.33,3.23-2.43,6.57-4.95,8.89-6.77,5.31-4.17,13.68-14.36,15.72-18.14,.7-1.31,2.2-3.26,3.8-5.32,3.03-3.93,6.46-8.39,6.72-11.27,.37-3.98,4.62-11.24,6.54-13.13,.13-.13,.2-.3,.2-.48,0-.16-.06-.33-.18-.46-.25-.26-.66-.27-.91-.02Z"/><path class="d" d="M17.29,3.34c-4.31,3.48-2.88,6.19-1.73,8.37l.19,.36c1.15,2.22,7.56,15.92,7.63,16.06,.15,.33,.54,.47,.86,.31,.32-.16,.46-.55,.3-.88-.26-.57-6.49-13.87-7.65-16.11l-.19-.37c-1.11-2.1-2.07-3.92,1.39-6.72,1.37-1.1,3.39-2.66,5.65-4.37h-2.16c-1.7,1.29-3.2,2.46-4.29,3.34Z"/><path class="d" d="M48.99,355.49c-.09,.17-2.08,4.23-1.45,7.4,.58,2.97,2.71,11.6,2.8,11.96,.09,.35,.44,.57,.78,.48,.29-.08,.49-.34,.49-.64,0-.05,0-.11-.02-.16-.02-.09-2.21-8.96-2.78-11.9-.53-2.73,1.32-6.51,1.34-6.55,.16-.32,.03-.72-.28-.89-.32-.16-.71-.03-.87,.29Z"/><path class="d" d="M49.03,327.85s-.02,.02-.03,.04l-12.87,17.74c-.1,.14-.15,.32-.12,.49,.03,.17,.12,.33,.26,.43l15.55,11.36c.29,.21,.69,.14,.9-.15l12.77-18.06c.21-.29,.14-.71-.15-.92-.29-.21-.69-.15-.9,.15l-12.39,17.52-14.49-10.59,12.47-17.18,4.1-4.88,5.96,4.79,.03,.02,7.16,5.18c.27,.19,.64,.15,.86-.1l5.63-6.43c.11-.13,.16-.28,.16-.44,0-.18-.07-.36-.22-.49-.27-.24-.67-.22-.91,.05l-5.25,5.99-6.67-4.83-6.44-5.17c-.27-.22-.66-.18-.89,.09l-4.52,5.38Z"/><path class="d" d="M56.84,332.88l-12.81,18.54c-.21,.3-.14,.71,.16,.92,.29,.21,.69,.14,.9-.16l12.81-18.54c.08-.12,.12-.25,.12-.38,0-.21-.1-.41-.27-.54-.29-.21-.69-.14-.9,.16Z"/><path class="d" d="M68.86,324.9l-21.31,29.07c-.21,.29-.16,.7,.13,.92,.29,.22,.69,.16,.9-.13l21.02-28.67,6.31,2.49c.33,.13,.71-.04,.84-.38,.03-.08,.04-.16,.04-.24,0-.26-.16-.51-.41-.61l-6.77-2.67c-.27-.11-.58-.02-.75,.22Z"/><path class="d" d="M130.1,277.01c-.09,.02-.18,.06-.25,.12l-3.5,2.82c-4.12-.47-54.64-6.18-58.61-6.75-2.94-.42-4.33-.25-4.93,.61-.58,.83-.14,1.95,.24,2.73,.29,.59,1.06,2.4,2.04,4.7,3.12,7.33,8.35,19.6,11.35,24.27,2.87,4.46,3.21,10.02,1.03,16.98-1.14,3.67-4.69,23.34-4.42,24.48,.09,.35,.44,.57,.78,.48,.33-.08,.53-.4,.48-.73h0c0-1.39,3.05-19.55,4.39-23.82,.84-2.71,3.41-10.95-1.18-18.1-2.94-4.57-8.34-17.26-11.24-24.07-1.02-2.41-1.77-4.14-2.07-4.76-.51-1.04-.38-1.32-.34-1.37,.12-.17,.71-.5,3.71-.08,4.14,.59,58.36,6.72,58.91,6.78,.17,.02,.34-.03,.47-.14l3.6-2.9,33.91-7.2c.3-.07,.5-.34,.5-.64,0-.05,0-.1-.02-.15-.08-.35-.43-.57-.78-.49l-34.04,7.23Z"/><path class="d" d="M74.76,335.84c-.22,.29-.16,.7,.12,.92l30.2,23.46c.28,.22,.69,.16,.91-.13,.09-.12,.04-.79-.12-.92l-30.2-23.46c-.28-.22-.69-.16-.91,.13Z"/><path class="d" d="M75.51,333.38c.06,.36,.4,.6,.75,.53,1.75-.32,4.7,.42,7.02,2.8,2.35,2.41,23.26,17.95,24.13,18.6,.29,.21,.69,.15,.9-.15,.08-.12,.12-.25,.12-.39,0-.2-.09-.4-.27-.53-.21-.16-21.69-16.12-23.97-18.46-2.67-2.74-6.03-3.56-8.17-3.17-.35,.06-.59,.41-.52,.77Z"/><path class="d" d="M144,303.57l-31.99,42.85s-.04,.06-.06,.1l-10.92,21.69c-.16,.32-.04,.72,.28,.89,.32,.17,.71,.04,.87-.28l10.9-21.64,31.96-42.81c.09-.12,.13-.26,.13-.4,0-.2-.09-.39-.25-.52-.28-.22-.69-.16-.91,.12Z"/><path class="d" d="M104.4,361.51c-.22,.29-.17,.7,.11,.92l18.14,14.48c.28,.22,.69,.17,.91-.11,.09-.12,.14-.26,.14-.41,0-.2-.09-.39-.25-.52l-18.14-14.48c-.28-.22-.69-.17-.91,.11Z"/><path class="d" d="M106.46,357.97l18.88,15.54c.28,.23,.68,.18,.91-.1,.1-.12,.14-.27,.14-.41,0-.19-.08-.38-.24-.51l-19.02-15.62c-.28-.23-.95,.88-.67,1.11Z"/><path class="d" d="M92.42,322.49c-.35,.45-.68,.86-.97,1.21-1.02,1.24-1.69,2.06-1.56,3.04,.09,.66,.55,1.24,1.48,1.88,2.26,1.56,40.95,35.25,41.34,35.59,.27,.24,.68,.2,.91-.07,.1-.12,.15-.28,.15-.43,0-.19-.08-.37-.23-.5-1.6-1.39-39.13-34.09-41.46-35.68-.72-.49-.89-.8-.92-.97-.06-.4,.53-1.11,1.27-2.01,.3-.36,.64-.78,1-1.24,2.1-2.73,17.2-18.72,17.35-18.89,.25-.26,.24-.68-.02-.93-.26-.25-.67-.24-.91,.02-.62,.66-15.29,16.2-17.43,18.99Z"/><path class="d" d="M97.54,297.38c-.15,.23-.43,.29,1.02,5.37,.06,.21,.22,.38,.43,.45,.21,.06,.43,.02,.6-.12,3.24-2.75,7.32-2.27,11.83,1.4,6.05,4.93,29.49,23.73,29.72,23.92,.28,.22,.69,.18,.91-.11,.09-.12,.14-.26,.14-.41,0-.2-.08-.39-.25-.52-.24-.19-23.67-18.99-29.72-23.92-5.78-4.71-9.99-3.85-12.68-1.99-.46-1.74-.83-3.54-.77-3.98,.14-.29-1.04-.4-1.24-.1Z"/><path class="d" d="M144.06,323.43s-.04,.04-.06,.07l-30.06,39.82c-.22,.29-.16,.7,.12,.92,.28,.22,.69,.17,.91-.12l30.04-39.79c.37-.38,4.01-4.08,5.76-5.96,1.04-1.12,11.24-1.88,20.49-1.97,.35,0,.64-.3,.64-.66h0c0-.37-.3-.66-.65-.66-3.24,.03-19.48,.29-21.42,2.38-1.82,1.96-5.72,5.93-5.76,5.97Z"/><path class="d" d="M122.15,304.75l-29.63,38.03c-.22,.28-.18,.7,.1,.93,.28,.23,.68,.18,.91-.1l29.22-37.5,69.02,58.03c.28,.23,.68,.19,.91-.09,.1-.12,.15-.27,.15-.42,0-.19-.08-.38-.24-.51l-69.53-58.45c-.13-.11-.31-.17-.48-.15-.17,.02-.33,.11-.44,.24Z"/><path class="d" d="M112.39,292.75c-16.26,3.37-34.86,12.86-35.05,12.96-.32,.16-.45,.56-.29,.88,.16,.33,.55,.46,.87,.29,.18-.09,18.64-9.51,34.73-12.84,16.15-3.34,65.06-9.61,65.48-9.66,.33-.04,.57-.33,.57-.65,0-.03-.49-.39-.49-.41-.04-.36,.12-.29-.24-.24-.42,.05-49.38,6.33-65.58,9.68Z"/><path class="d" d="M110.27,279.01l3.08,14.23c.08,.36,.42,.58,.77,.5,.3-.07,.51-.34,.51-.64,0-.05,0-.09-.02-.14l-3.08-14.23c-.08-.36-.42-.58-.77-.5-.35,.08-.57,.43-.49,.79Z"/><path class="d" d="M86.41,276.34l6.75,23.02c.1,.35,.46,.55,.8,.44,.28-.09,.46-.35,.46-.63,0-.06,0-.13-.03-.19l-6.75-23.02c-.1-.35-.46-.55-.8-.44-.34,.1-.54,.47-.43,.82Z"/><path class="d" d="M66.41,281.93c-.35-.04-.67,.23-.7,.59-.04,.36,.23,.68,.58,.72,.26,.03,26.02,2.57,30.63,3.39,4.76,.85,15.23-1.6,15.67-1.71,.3-.07,.06-1.37-.29-1.28-.11,.02-10.65,2.49-15.16,1.69-4.66-.83-29.67-3.3-30.73-3.41Z"/><path class="d" d="M72.15,295.59c-.34,.11-.52,.48-.42,.83,.11,.35,.47,.54,.81,.42l18.75-6.19c.27-.09,.45-.35,.45-.63,0-.07-.01-.14-.03-.2-.11-.35-.47-.54-.81-.42l-18.75,6.19Z"/><path class="d" d="M76.39,283.97l4.82,9.44c.16,.32,.55,.45,.87,.28,.22-.12,.35-.35,.35-.58,0-.1-.02-.21-.07-.3l-4.82-9.44c-.16-.32-.55-.45-.87-.28-.32,.17-.44,.57-.27,.89Z"/><path class="d" d="M122.41,291.55c.03,.34,.31,.6,.64,.6,1.21,.27,9.98,6.29,13.73,8.87,1.44,.99,2.58,1.78,3.09,2.1,1.56,1.01,4.5,.68,7.33,.36,1.5-.17,2.91-.33,3.91-.26,2.93,.2,29.88-.41,30.53-.44,.35-.02,.61-.31,.61-.66,0-.01,0-.26,0-.27-.02-.36-.32-.41-.68-.39-.16,0-27.52,.63-30.38,.44-1.12-.08-2.59,.09-4.14,.27-2.49,.28-5.32,.6-6.5-.16-.49-.32-1.62-1.1-3.06-2.08-10.25-7.05-13.64-9.17-14.5-9.09-.36,.03-.62,.35-.59,.71Z"/><path class="d" d="M155.43,286.69l2.32,29.66c.03,.36,.34,.63,.7,.6,.34-.03,.59-.32,.59-.66,0-.02,0-.04,0-.05l-2.32-29.66c-.03-.36-.34-.63-.7-.6-.36,.03-.62,.34-.59,.71Z"/><path class="d" d="M163.84,285.56l2.11,30.23c.03,.36,.33,.64,.69,.61,.34-.02,.6-.31,.6-.66,0-.02,0-.03,0-.05l-2.11-30.23c-.03-.36-.33-.64-.69-.61-.36,.03-.62,.34-.6,.7Z"/><path class="d" d="M81.66,327.1l-3.76-1.72c-.33-.15-.71,0-.85,.33-.15,.33,0,.72,.33,.87l4.15,1.89c.24,.11,.51,.06,.7-.12l16.03-15.05,2.14,.98,77.9,64.12c.28,.23,.68,.18,.91-.1,.1-.12,.14-.27,.14-.41,0-.19-.08-.38-.24-.51l-77.96-64.17s-.09-.06-.14-.09l-2.6-1.2c-.24-.11-.51-.06-.7,.12l-16.03,15.05Z"/><path class="d" d="M170.08,42.22l9.29,13.19c.22,.29,.62,.35,.9,.13,.17-.13,.26-.33,.26-.53,0-.14-.04-.28-.13-.4l-9.29-13.19c-.22-.29-.62-.35-.9-.13-.28,.22-.34,.63-.12,.92Z"/><path class="d" d="M198.16,392.51l-5.5,8.78h1.53l5.05-8.07c.07-.11,.1-.23,.1-.35,0-.22-.11-.43-.3-.56-.3-.2-.7-.11-.89,.2Z"/><path class="d" d="M185.91,10.8l-20.14,16.53c-.28,.23-.32,.64-.1,.93,.22,.28,.63,.33,.91,.1l20.22-16.6c.05-.04,.1-.1,.14-.16l7.26-11.6h-1.53l-6.76,10.8Z"/><path class="d" d="M185.91,11.68l27.94,32.84c.23,.27,.64,.3,.91,.07,.15-.13,.22-.31,.22-.5,0-.15-.05-.31-.16-.43l-27.94-32.84c-.23-.27-.64-.3-.91-.07-.27,.24-.3,.65-.06,.93Z"/><path class="d" d="M277.48,340.74l-7.3,23.44-7.14-1.1c-.18-.03-.37,.03-.52,.15l-21.03,18.25s-.05,.05-.08,.08l-16.32,19.75h1.69l15.58-18.86,20.77-18.02,7.36,1.14c.3,.05,.59-.12,.7-.41l7.49-23.92c.03-.08,.05-.16,.05-.24,0-.26-.15-.51-.41-.61-.33-.13-.71,.03-.84,.37Z"/><path class="d" d="M217.74,8.91c-.23,.28-.2,.69,.08,.93,.27,.23,.68,.2,.91-.08L226.79,0h-1.69l-7.36,8.91Z"/><path class="d" d="M283.77,370.74c0-.36-.29-.66-.65-.66h-24.45c-.14,0-.27,.05-.38,.13l-9.26,6.98c-.29,.22-.35,.63-.14,.92l11.43,15.85c.11,.15,.27,.24,.45,.26,.18,.02,.36-.04,.5-.16l7.08-6.38c.27-.24,.29-.66,.06-.93-.24-.27-.64-.3-.91-.06l-6.55,5.9-10.63-14.74,8.57-6.46h24.24c.36,0,.65-.29,.65-.66Z"/><path class="d" d="M275.07,393.64c0-.15-.05-.31-.16-.43l-19.56-22.91c-.23-.27-.64-.3-.91-.06-.27,.24-.3,.66-.06,.93l19.56,22.91c.23,.27,.64,.3,.91,.06,.15-.13,.22-.31,.22-.5Z"/><path class="d" d="M290.42,340.21c0-.16,0-.33,0-.5-.19-6.02-3.22-41.74-3.25-42.1-.03-.36-.34-.63-.7-.6-.36,.03-.62,.35-.59,.71,.03,.36,3.05,36.05,3.25,42.03,.16,5-2.44,8.38-4.16,10.62-.28,.37-.55,.72-.78,1.04-1.86,2.6-1.95,18.14-1.71,20.88,.27,3.05-1.09,4.48-2.34,4.78-1.13,.27-11.11-.67-17.13-1.33-.18-.02-.35,.04-.49,.15l-15.26,13.26c-.27,.24-.3,.65-.07,.93,.23,.28,.64,.31,.91,.07l15.05-13.08c2.54,.28,15.64,1.67,17.28,1.27,1.75-.42,3.68-2.29,3.33-6.18-.31-3.47,.01-17.95,1.46-19.98,.22-.3,.48-.64,.75-1,1.78-2.32,4.44-5.78,4.44-10.98Z"/><path class="d" d="M279.89,395.05c0-.11-.03-.21-.08-.31l-9.44-17.8,.86-11.99c.02-.36-.24-.68-.6-.71-.36-.03-.67,.25-.69,.61l-.88,12.18c0,.13,.02,.25,.08,.36l9.53,17.97c.17,.32,.56,.44,.88,.27,.22-.12,.34-.35,.34-.58Z"/><path class="d" d="M263.59,363.72c0-.15-.05-.3-.15-.43l-8.45-10.13c-.16-.2-.43-.28-.67-.21l-2.28,.66-2.16-2.28c-.12-.13-.29-.2-.46-.2h-6.77c-.11,0-.22,.03-.32,.09l-4.76,2.78-4.62,1.14c-.07,.02-.13,.04-.19,.08l-3.15,1.97c-.14,.09-.25,.23-.29,.4l-.63,2.58-2.51,1.85c-.29,.21-.36,.62-.15,.92,.21,.3,.61,.36,.9,.15l2.71-1.99c.12-.09,.21-.22,.25-.38l.62-2.55,2.84-1.78,4.61-1.14c.06-.01,.12-.04,.17-.07l4.69-2.74h6.32l2.24,2.36c.17,.17,.41,.24,.64,.18l2.25-.65,8.18,9.8c.23,.28,.64,.31,.91,.07,.15-.13,.23-.32,.23-.5Z"/><path class="d" d="M253.78,372.23c0-.16-.05-.31-.16-.44l-15.33-17.6c-.24-.27-.65-.3-.91-.05-.27,.24-.29,.66-.05,.93l15.33,17.6c.24,.27,.65,.3,.91,.05,.14-.13,.22-.31,.22-.49Z"/><path class="d" d="M264.74,390.63c0-.14-.05-.29-.14-.41l-7.11-9.06c-.22-.28-.63-.33-.91-.1-.28,.23-.32,.64-.1,.93l7.11,9.06c.22,.28,.63,.33,.91,.1,.16-.13,.24-.32,.24-.51Z"/><path class="d" d="M128.57,301.05c-.22,.28-.18,.7,.1,.93l10.76,8.77c.28,.23,.69,.18,.91-.1,.1-.12,.14-.27,.14-.41,0-.19-.08-.39-.24-.52l-10.76-8.77c-.28-.23-.69-.18-.91,.1Z"/><path class="d" d="M131.58,303.63l-3.07,5.38c-.18,.31-.07,.72,.23,.9,.31,.18,.7,.08,.88-.24l3.07-5.38c.06-.1,.09-.22,.09-.33,0-.23-.12-.45-.32-.57-.31-.18-.7-.08-.88,.24Z"/><path class="d" d="M106.91,307.17l31.32,25.04c.28,.22,.69,.17,.91-.11,.09-.12,.14-.26,.14-.41,0-.2-.08-.39-.25-.52l-31.32-25.04c-.28-.22-1.08,.81-.8,1.04Z"/><path class="d" d="M147.31,309.84s-1.83,2.53-3.61,5.02c-1.04,1.46-1.87,2.64-2.45,3.48-.35,.51-.61,.91-.79,1.19-.27,.42-.6,.94-.12,1.34,.28,.23,.68,.19,.91-.09,.06-.08,.1-.17,.13-.26,.43-.8,4.29-6.2,6.8-9.66l9.72-.86c.34-.03,.59-.32,.59-.66,0-.02,0-.04,0-.06-.03-.36-.34-.63-.7-.6l-10.01,.89c-.18,.02-.35,.11-.46,.26Zm-5.96,10.28c-.02-.05-.04-.1-.08-.14-.03-.04-.07-.09-.11-.13,.04,.04,.08,.08,.11,.13,.03,.05,.06,.09,.08,.14Z"/><path class="d" d="M141.28,319.98s-.07-.09-.11-.13c.05,.04,.08,.08,.11,.13Z"/><path class="d" d="M146.02,288.39v12.24c0,.36,.29,.66,.65,.66s.65-.29,.65-.66v-12.24c0-.36-.29-.66-.65-.66s-.65,.29-.65,.66Z"/><path class="d" d="M104.02,310.74l30.77,26c.27,.23,.68,.19,.91-.09,.1-.12,.15-.27,.15-.42,0-.19-.08-.38-.23-.51l-30.77-26c-.27-.23-.68-.19-.91,.09-.23,.28-.19,.7,.09,.93Z"/><path class="d" d="M96.37,318.37c.03,.3,.12,1.23,9.58,8.15,.29,.21,.69,.14,.9-.15,.08-.12,.12-.25,.12-.38,0-.21-.09-.41-.27-.54-4.02-2.94-8.39-6.38-9.03-7.26-.01-.16-.08-.32-.21-.44-.26-.25-.67-.23-.91,.03-.14,.16-.21,.36-.19,.58Z"/><path class="d" d="M92.41,322.5c-.22,.29-.16,.7,.13,.92l9.86,7.61c.28,.22,.69,.16,.9-.13,.09-.12,.13-.26,.13-.4,0-.2-.09-.4-.26-.53l-9.86-7.61c-.28-.22-.69-.16-.9,.13Z"/><path class="d" d="M117.3,339.33c-.22,.29-.17,.7,.12,.92l20.46,17.11c.28,.22,.69,.17,.91-.12,.09-.12,.13-.26,.13-.4,0-.2-.09-.39-.25-.52l-20.46-17.11c-.28-.22-.69-.17-.91,.12Z"/><path class="d" d="M149.21,327.47l-12.43,15.89c-.22,.28-.18,.7,.1,.93,.28,.23,.69,.18,.91-.1l12.43-15.89c.09-.12,.14-.27,.14-.41,0-.19-.08-.39-.24-.52-.28-.23-.69-.18-.91,.1Z"/><path class="d" d="M152.54,331.28l-12.06,15.12c-.22,.28-.18,.7,.09,.93,.28,.23,.68,.19,.91-.1l12.06-15.12c.1-.12,.14-.27,.14-.42,0-.19-.08-.38-.24-.51-.28-.23-.68-.19-.91,.1Z"/><path class="d" d="M314.96,292.73c0-2.37-.36-6.75-1.54-14.98-1.16-8.09-2.38-17.56-2.39-17.64l-1.27,.23c2.66,14.96,4.64,32.76,3.71,34.36-1.35,.99-10.67,1.33-16.26,1.54-2.55,.09-4.75,.17-6.03,.29-1.32,.12-5.42,.55-10.61,1.11-12.64,1.35-31.74,3.39-37.36,3.67-5.41,.27-20.88,6.35-22.28,7.28-3.83,2.54-14.6,9.18-18.55,11.2-1.02,.52-2.07,1.11-3.18,1.74-3.09,1.75-6.29,3.55-8.94,3.8-5.47,.51-13.91-2.14-16.21-4.49-.13-.14-.32-.21-.51-.19-.19,.01-.36,.11-.47,.27l-12.31,16.08,1.04,.78,11.89-15.5c3.28,2.62,11.56,4.84,16.68,4.36,2.91-.27,6.23-2.15,9.44-3.96,1.1-.62,2.13-1.2,3.13-1.71,3.98-2.03,14.82-8.72,18.67-11.27,1.15-.76,16.42-6.81,21.64-7.07,5.65-.28,24.78-2.33,37.43-3.68,5.19-.55,9.28-.99,10.59-1.11,1.25-.11,3.44-.19,5.97-.28,8.77-.32,15.59-.66,17.05-1.85,.27-.22,.65-.53,.65-2.98Z"/><path class="d" d="M219.78,336.71c0-.33-.24-.61-.57-.65l-12.97-1.61-20.36-37.14c-.17-.32-.57-.43-.88-.25-.31,.18-.42,.58-.25,.9l20.52,37.44c.1,.18,.28,.31,.49,.33l13.29,1.65c.35,.04,.68-.21,.72-.57,0-.03,0-.05,0-.08Z"/><path class="d" d="M220.35,249.51c0-.3-.21-.58-.51-.64-.35-.08-.69,.15-.77,.51l-4.25,22.18-4.37,4.85c-.11,.12-.17,.28-.17,.45v8.2l-12.92,8.11-4.8-1.59c-.18-.06-.38-.04-.54,.07-9.49,6.11-4.97,5.42,.43,1.28l4.79,1.59c.18,.06,.38,.04,.54-.07l13.48-8.46c.19-.12,.31-.33,.31-.56v-8.31l4.32-4.79c.08-.09,.13-.19,.16-.31l4.29-22.36s.01-.09,.01-.14Z"/><path class="d" d="M203.31,320.38c0-.11-.03-.23-.09-.33l-14.53-25.46s-.05-.08-.08-.11l-17.96-20.06c-.24-.27-.65-.29-.91-.04-.26,.25-.28,.66-.04,.93l17.91,20,14.5,25.4c.18,.31,.57,.42,.88,.24,.21-.12,.32-.34,.32-.57Z"/><path class="d" d="M211.03,315.95c0-.12-.03-.24-.09-.34l-12.95-22.06c-.18-.31-.58-.41-.89-.23-.31,.19-.41,.59-.22,.9l12.61,21.48-2.32,1.38-15.54-24.43c-.19-.31-.59-.39-.89-.19-.3,.2-.38,.61-.19,.91l15.88,24.96c.19,.29,.57,.39,.87,.21l3.42-2.03c.15-.09,.26-.23,.3-.4,.01-.05,.02-.11,.02-.16Z"/><path class="d" d="M313.31,277.04s0-.07,0-.11c-.06-.36-.39-.6-.75-.54l-67.91,11.78s-.04,0-.07,.02l-30.18,8.66-2.62-1.24c-.17-.08-.36-.08-.53,0l-5.93,2.64h-4.95c-.36,0-.65,.29-.65,.66s.29,.66,.65,.66h5.08c.09,0,.18-.02,.26-.05l5.79-2.58,2.57,1.22c.14,.07,.3,.08,.45,.04l30.38-8.71,67.87-11.77c.31-.05,.54-.33,.54-.65Z"/><path class="d" d="M293.07,297.11s0-.07,0-.11l-2.65-16.1c-.06-.36-.39-.6-.74-.54-.35,.06-.59,.4-.53,.76l2.65,16.1c.06,.36,.39,.6,.74,.54,.32-.05,.54-.33,.54-.65Z"/><path class="d" d="M269.38,299.56s0-.08,0-.11l-2.46-14.48c-.06-.36-.4-.6-.75-.54-.35,.06-.59,.4-.53,.76l2.46,14.48c.06,.36,.4,.6,.75,.54,.31-.06,.54-.33,.54-.65Z"/><path class="d" d="M253.01,301.22s0-.09-.01-.13l-2.69-13.26c-.07-.36-.41-.59-.76-.51-.35,.07-.57,.42-.5,.78l2.69,13.26c.07,.36,.41,.59,.76,.51,.31-.06,.52-.34,.52-.64Z"/><path class="d" d="M240.85,301.89c0-.11-.39-.9-.45-1l-4.96-8.89c-.18-.32-.57-.43-.88-.25-.31,.18-.42,.58-.24,.9l5.32,9.57c.18,.32,.57,.43,.88,.25,.21-.12,.33-.34,.33-.57Z"/><path class="d" d="M221.92,309.15c0-.12-.03-.24-.09-.34l-6.94-11.61c-.19-.31-.58-.41-.89-.22-.3,.19-.4,.59-.22,.91l6.94,11.61c.19,.31,.58,.41,.89,.22,.2-.12,.31-.34,.31-.56Z"/><path class="d" d="M291.53,291.06s0-.04,0-.06c-.03-.36-.34-.63-.7-.6-11.45,.99-38.05,3.67-39.59,3.56-.11-.04-.22-.05-.34-.02-.35,.07-.57,.42-.5,.78,.12,.62,.56,.6,2,.54,.8-.03,1.98-.1,3.5-.21,2.55-.17,6.09-.44,10.53-.8,7.56-.61,24.44-2.53,24.51-2.54,.34-.03,.59-.32,.59-.66Z"/><path class="d" d="M314,282.09s0-.06,0-.08c-.05-.36-.37-.62-.72-.57l-22.91,3c-.35,.05-.6,.38-.56,.74,.05,.36,.37,.62,.72,.57l22.91-3c.33-.04,.56-.33,.56-.65Z"/><path class="d" d="M298.78,265.16c0-.05,0-.1-.02-.15-.08-.35-.43-.57-.78-.49l-36.39,8.69c-.35,.09-.56,.44-.48,.79,.08,.35,.43,.57,.78,.49l36.39-8.69c.3-.07,.49-.34,.49-.64Z"/><path class="d" d="M289.14,274.27c0-.07,0-.13-.03-.2l-1.96-6.4c-.11-.35-.47-.54-.81-.43-.34,.11-.53,.48-.42,.83l1.75,5.7-24.86,5.26c-.35,.07-.57,.42-.5,.78,.07,.36,.42,.58,.76,.51l25.56-5.41c.18-.04,.33-.15,.42-.31,.06-.1,.09-.22,.09-.33Z"/><path class="d" d="M264.72,285.55c0-.47-.34-1.86-1.75-7.61-.82-3.34-1.64-6.67-1.78-7.22l-1.86-10c0-.36-.29-.66-.65-.66s-.65,.29-.65,.66l1.86,10.08c0,.05,0,.11,.02,.16,1.38,5.57,3.46,14.04,3.54,14.57l.63-.1v.03l.55,.36c.05-.07,.08-.13,.08-.27Z"/><path class="d" d="M213.36,274.86c0-.12-.03-.25-.11-.36-2.04-3.19-8.96-13.51-12.2-12.42-2.67,.9-17.77,7.75-19.91,9.93-1.51,1.54-7.18,3.7-9.23,4.41-.34,.12-.52,.49-.41,.83,.11,.34,.48,.53,.82,.42,.31-.11,7.7-2.65,9.74-4.72,1.81-1.85,16.44-8.61,19.4-9.61,1.57-.53,6.78,5.76,10.71,11.89,.2,.3,.6,.39,.89,.19,.19-.13,.29-.34,.29-.55Z"/><path class="d" d="M211.57,276.86c0-.15-.05-.29-.14-.41-.22-.28-.63-.33-.91-.1l-18.56,15.35c-.28,.23-.32,.64-.1,.93,.22,.28,.63,.33,.91,.1l18.56-15.35c.16-.13,.24-.32,.24-.51Z"/><path class="d" d="M210.24,270.34c0-.12-.03-.25-.11-.36-.2-.3-.6-.39-.89-.19l-27.15,18.21c-.3,.2-.38,.61-.18,.91,.2,.3,.6,.39,.89,.19l27.15-18.21c.19-.13,.29-.34,.29-.55Z"/><path class="d" d="M205.91,265.09c0-.13-.04-.27-.12-.38-.21-.3-.61-.36-.9-.15l-15.92,11.58-4.35-5.74c-.22-.29-.62-.34-.91-.12-.28,.22-.33,.64-.12,.92l4.73,6.24c.21,.28,.6,.34,.89,.13l16.43-11.95c.18-.13,.27-.33,.27-.54Z"/><path class="d" d="M193.33,325.45c0-.12-.03-.23-.09-.34l-12.62-20.91c-.18-.31-.58-.41-.89-.22-.31,.19-.4,.59-.22,.9l12.62,20.91c.18,.31,.58,.41,.89,.22,.2-.12,.31-.34,.31-.56Z"/><path class="d" d="M229.05,330.04s0-.04,0-.05l-1.85-23.16c-.03-.36-.34-.63-.7-.6-.36,.03-.62,.35-.59,.71l1.85,23.16c.03,.36,.34,.63,.7,.6,.34-.03,.59-.32,.59-.66Z"/><path class="d" d="M242.89,328.22s0-.04,0-.07l-1.98-25.32c-.04-.36-.35-.63-.71-.59-.36,.04-.61,.36-.58,.72l1.98,25.32c.04,.36,.35,.63,.71,.59,.33-.03,.58-.32,.58-.65Z"/><path class="d" d="M263.59,309.15s0-.04,0-.05c-.25-3.1-.63-8.13-.63-8.77,0-.05,0-.11,0-.17-.04-.46-.32-.57-.71-.57v-.02s-.08,.01-.11,.02c-.13,0-.28,.02-.43,.03l-12.1,1.19c-.35,.03-.61,.35-.58,.71l2.16,25.69c.03,.36,.34,.63,.7,.6,.36-.03,.62-.35,.59-.71l-2.11-25.04c2.14-.21,9.1-.89,11.32-1.11,.01,.2,.03,.45,.04,.72,.05,.84,.13,1.96,.22,3.07,.14,1.93,.29,3.85,.33,4.34l-5.08,16.68c-.1,.35,.1,.71,.45,.81,.34,.1,.7-.1,.8-.46l5.11-16.8c.02-.06,.02-.12,.02-.18Z"/><path class="d" d="M278.74,341.04s0-.05,0-.08l-4.85-41.95c-.04-.36-.36-.62-.72-.58-.35,.04-.61,.37-.57,.73l4.85,41.95c.04,.36,.36,.62,.72,.58,.33-.04,.57-.32,.57-.65Z"/><path class="d" d="M287.12,306.89s0-.04,0-.06c-.03-.36-.35-.63-.7-.59l-23.53,2.26c-.36,.03-.62,.35-.58,.72,.03,.36,.35,.63,.7,.59l23.53-2.26c.33-.03,.59-.32,.59-.66Z"/><path class="d" d="M318.26,349.81s0-.04,0-.06l-4.95-54.11c-.03-.36-.35-.63-.7-.59-.36,.03-.62,.35-.58,.72l4.95,54.11c.03,.36,.35,.63,.7,.59,.33-.03,.59-.32,.59-.66Z"/><path class="d" d="M316.17,333.91c-10.04,1.06-25.2,2.7-26.36,2.94-.06,.02-.12,.04-.19,.04-.36,.02-.66-.25-.69-.61-.04-.62,.56-.71,.84-.76,.2-.03,.49-.07,.86-.12,.73-.09,1.76-.22,3.01-.36,2.2-.25,5.27-.6,9.12-1.02,6.63-.72,13.27-1.42,13.27-1.42,.35-.04,.67,.23,.71,.59,0,.02,0,.05,0,.07,0,.33-.25,.62-.58,.65Zm-25.98,2.54c.03-.08,.04-.17,.03-.26,0,.09,0,.18-.03,.26Z"/><path class="d" d="M314.43,308.02s0-.04,0-.06c-.03-.36-.34-.63-.7-.6l-26.22,2.22c-.36,.03-.62,.35-.59,.71,.03,.36,.34,.63,.7,.6l26.22-2.22c.34-.03,.59-.32,.59-.66Z"/><path class="d" d="M309.25,346.3l-1.65-6.73c-.09-.35-.44-.57-.78-.48-.35,.09-.56,.45-.47,.8l1.74,7.09c.05,.22,.22,.4,.43,.47l13.11,4.34v-1.39l-12.37-4.09Z"/><path class="d" d="M316.06,326.05c-.36,.02-.63,.34-.6,.7,.02,.36,.33,.64,.69,.61l5.47-.37v-1.32l-5.56,.38Z"/><path class="d" d="M3.04,352.75H7.73c.18,0,.36-.08,.48-.22,.11-.12,.17-.28,.17-.44,0-.02,0-.05,0-.07l-2.74-26.1c-.04-.35-.34-.61-.69-.59L0,325.67v1.32l4.41-.3,2.59,24.74H3.14L0,350.39v1.39l2.84,.94c.06,.02,.13,.03,.2,.03Z"/><path class="d" d="M316.74,339.04v-.03c-.02-.36-.32-.64-.68-.62l-12.62,.66-.9-17.37c-.02-.36-.32-.64-.68-.62-.36,.02-.63,.33-.61,.69l.94,18.03c.02,.36,.32,.64,.68,.62l13.26-.69c.35-.02,.61-.31,.61-.66Z"/><path class="d" d="M313.31,348.13v-8.91c0-.36-.29-.66-.65-.66s-.65,.29-.65,.66v8.91c0,.36,.29,.66,.65,.66s.65-.29,.65-.66Z"/><path class="d" d="M8.61,261.76c.09,.83,8.83,82.75,9.02,85.11,.2,2.45,.14,3.67-.75,4.42-.57,.48-1.89,.27-2.7,.02l-3.64-33.15c-.04-.36-.36-.62-.71-.58-.35,.04-.61,.37-.57,.73l3.68,33.56c.03,.24,.18,.45,.41,.54,.3,.12,2.94,1.1,4.36-.11,1.03-.88,1.3-2.12,1.3-3.63,0-.6-.04-1.24-.1-1.91-.19-2.37-8.66-81.76-9.02-85.14-.04-.36-.36-.62-.71-.58-.35,.04-.61,.37-.57,.73Z"/><path class="d" d="M312.8,278.23c-.35,.07-.11,1.36,.24,1.29l8.57-1.66v-1.34l-8.81,1.71Z"/><path class="d" d="M10.55,275.26s0-.08-.01-.12c-.07-.36-.4-.59-.76-.52L0,276.51v1.34l10.02-1.95c.31-.06,.53-.34,.53-.65Z"/><path class="d" d="M14.12,258.81l9.57,74.54c.05,.36,.37,.62,.72,.57,.33-.04,.56-.33,.56-.65,0-.03,0-.06,0-.09l-9.57-74.54c-.05-.36-.37-.62-.72-.57-.35,.05-.6,.38-.56,.74Z"/><path class="d" d="M20.77,310.27c.02,.36,.32,.64,.68,.63l23.11-1.11c.35-.02,.62-.31,.62-.66v-.03c-.02-.36-.32-.64-.68-.63l-23.11,1.11c-.36,.02-.63,.33-.61,.69Z"/><path class="d" d="M66.27,282.19l-20.46,32.08-8.12,1.62c-.35,.07-.58,.42-.51,.77,.07,.36,.41,.59,.76,.52l8.4-1.67c.18-.04,.34-.15,.43-.31l20.61-32.33c.06-.11,.09-.22,.09-.34,0-.22-.11-.44-.32-.57-.31-.19-.7-.08-.89,.23Z"/><path class="d" d="M40.28,269.21c-.05,.26-1.35,6.41-1.55,10.6-.16,3.58,2.23,8.28,3.16,9.95l-2.81,1.46c-.21,.11-.34,.32-.35,.55-.01,.23,.1,.46,.29,.59l5.04,3.37-1.19,3.21c-.04,.11-.05,.23-.03,.35l2.74,15.68c.06,.36,.4,.6,.75,.53,.31-.06,.53-.33,.53-.65,0-.04,0-.08-.01-.12l-2.7-15.51,1.3-3.54c.11-.29,0-.61-.25-.78l-4.54-3.04,2.43-1.26c.16-.08,.28-.23,.33-.41,.05-.18,.02-.37-.07-.52-.03-.06-3.51-5.87-3.32-9.81,.19-4.08,1.5-10.33,1.52-10.39,.07-.36-.15-.71-.5-.78-.35-.08-.69,.15-.77,.5Z"/><path class="d" d="M16.82,274.62c-.35,.09-.56,.44-.48,.8,.08,.35,.43,.57,.78,.49l49.21-12.51c.3-.07,.49-.34,.49-.64,0-.05,0-.1-.02-.16-.08-.35-.43-.57-.78-.49l-49.21,12.51Z"/><path class="d" d="M17.73,281.24c0,.36,.29,.66,.65,.66h21c.36,0,.65-.29,.65-.66s-.29-.66-.65-.66H18.37c-.36,0-.65,.29-.65,.66Z"/><path class="d" d="M28.24,281.35l5.62,35.06c.06,.36,.39,.6,.74,.54,.32-.05,.54-.33,.54-.65,0-.04,0-.07,0-.11l-5.62-35.06c-.06-.36-.39-.6-.74-.54-.35,.06-.59,.4-.53,.76Z"/><path class="d" d="M21.99,257.48c.33-.03,.63,.21,.68,.55l4.44,14.68c.02,.07,.03,.14,.03,.2,0,.28-.17,.54-.45,.63-.34,.11-.7-.08-.81-.43l-4.39-14.27-21.49,1.63v-1.32l21.99-1.67Z"/><polygon class="d" points="216.18 296.84 219.18 296.24 301.16 165 321.61 134.63 321.61 130.56 299.26 163.74 216.18 296.84"/><polygon class="d" points="111.15 65.19 111.11 65.21 28.13 94.8 12.85 111.49 0 130.56 0 134.63 14.66 112.86 29.4 96.79 111.82 67.4 154.58 55.79 197.34 24.01 196 22.15 153.59 53.68 111.15 65.19"/><path class="d" d="M262.9,222.16l1.05,2.04c.23-.12,22.78-12.17,35.43-16.08,8.08-2.5,16.07-2.81,22.24-1.97v-2.31c-6.44-.83-14.65-.47-22.9,2.07-12.85,3.97-34.89,15.74-35.82,16.24Z"/><path class="d" d="M7.46,208.07c1.22,.53,4.7,2.01,9.52,4.06,15.97,6.8,49.21,20.94,53.72,23.4l.63,.34c5.45,2.96,8.46,4.58,11.33,13.74,3.11,9.92,11.75,27.77,11.78,27.84l2.13-.52c-.03-.08-8.7-18.26-11.77-28.03-3.15-10.05-6.84-12.05-12.42-15.08l-.63-.34c-4.61-2.51-36.68-16.16-53.91-23.49-4.81-2.05-8.29-3.53-9.5-4.06-2.14-.93-5-1.69-8.34-2.12v2.31c2.98,.41,5.53,1.09,7.46,1.93Z"/><polygon class="d" points="40.84 228.98 25.56 271.83 27.71 272.55 42.98 229.72 64.48 172.65 64.49 172.61 94.01 73.25 91.84 72.58 62.34 171.9 40.84 228.98"/><path class="d" d="M27.15,95.83l5.97,5.78,.26,.08,96.35,28.65c.94,.67,6.17,4.47,8.19,7.21,2.66,3.62,8.03,3.27,14.25,2.88l.4-.03c6.28-.4,46.46,9.68,47.04,9.53l-.18-1.98c-.14,.04-40.92-10.24-46.99-9.85l-.4,.03c-5.8,.37-10.37,.66-12.3-1.96-2.43-3.3-8.6-7.65-8.86-7.83l-.15-.11-.17-.05-96.27-28.62-3.91-3.78,14.03-14.63L142.6,13.43l-1.27-1.91L42.95,79.36l-15.8,16.47Z"/><path class="d" d="M270.99,394.65c-1.1,.88-3.9,3.3-7.74,6.65h3.48c2.77-2.41,4.78-4.13,5.66-4.84,2.88-2.32,4.16-2.58,4.73-2.39,.79,.27,1.34,1.99,1.68,3.26,.27,1.01,.77,2.38,1.41,3.97h2.45c-.78-1.88-1.39-3.49-1.68-4.57-.58-2.16-1.36-4.24-3.15-4.84-1.68-.56-3.72,.26-6.83,2.77Z"/><path class="d" d="M286.46,13.88c.81,1.72,1.57,3.35,2.17,4.66,2.89,6.33,28.22,35.7,32.98,40.91v-3.41c-7.72-8.7-28.51-33.17-30.93-38.47-.6-1.32-1.37-2.95-2.18-4.68-1.88-4.01-4.23-9.02-5.84-12.88h-2.45c1.6,3.97,4.12,9.32,6.25,13.88Z"/><path class="d" d="M209.49,46.53c-5.38,3.84-10.35,5.45-19.69,6.37-8.98,.89-34.55,1.6-34.71,1.62l.2,2.3c.16-.01,25.74-.73,34.73-1.62,9.78-.96,15.02-2.68,20.76-6.78,3.61-2.58,23.72-20.21,39.89-34.37,6.25-5.47,11.98-10.5,16.06-14.05h-3.48c-3.87,3.37-8.78,7.67-14.05,12.3-16.12,14.13-36.19,31.72-39.71,34.23Z"/><path class="d" d="M.05,59.5c5.69,6.22,11.05,6.74,16.05,6.74,4.03,0,14.82-.29,27.8-2.93,9.17-1.87,13.63,9.88,16.29,16.9,.61,1.62,1.14,3.01,1.63,3.97l2.01-1.06c-.43-.85-.94-2.19-1.53-3.74-2.73-7.19-7.8-20.57-18.84-18.33-12.79,2.6-23.39,2.88-27.36,2.88-4.69,0-9.31-.46-14.39-6.01-.45-.5-1.03-1.13-1.7-1.89v3.41l.05,.05Z"/><path class="d" d="M214.34,345.29l-1.76,1.45c.41,.51,21.85,27.56,43.13,54.55h2.9c-21.65-27.47-43.86-55.48-44.28-56Z"/><path class="d" d="M313.17,64.44c1.48,.38,3.16,.8,5.11,1.37,1.17,.34,2.27,.64,3.33,.9v-2.37c-.87-.22-1.77-.47-2.72-.74-1.99-.58-3.68-1.01-5.18-1.39-6.74-1.71-9-2.29-14.53-10.12-3.25-4.6-21.7-28.14-40.57-52.08h-2.9c19.24,24.4,38.34,48.76,41.64,53.43,6.01,8.52,8.88,9.25,15.82,11.01Z"/><path class="d" d="M0,64.34v2.37c9.06,2.23,14.73,1.67,25.75-.88l-.5-2.25c-11.02,2.55-16.26,3.06-25.25,.76Z"/><path class="d" d="M195.96,150.31c-12.2,9.63-29.85,12.78-37.77,14.25l.4,2.27c8.17-1.51,26.12-4.72,38.75-14.7,12.12-9.57,59.4-46.87,59.4-46.87l.03-.02,50.91-43.07-1.44-1.77-50.9,43.06c-.96,.76-47.4,37.39-59.39,46.85Z"/><path class="d" d="M191,55.97c2.96,1.51,6.03,3.07,3.41,10.59-3.48,10.02-1.52,17.74,2.78,26.95,1.79,3.84,5.69,10.89,9.81,18.36,5.07,9.18,10.31,18.66,12.85,24.28,3.91,8.65,11.08,13.17,16.31,16.47,1.24,.79,2.32,1.46,3.21,2.11,4.67,3.38,46,29.45,47.76,30.56l1.19-1.96c-.43-.27-43.03-27.14-47.64-30.48-.95-.69-2.11-1.42-3.33-2.19-4.99-3.15-11.82-7.46-15.45-15.48-2.58-5.7-7.84-15.23-12.93-24.45-4.11-7.43-7.98-14.46-9.74-18.22-4.15-8.9-5.93-15.87-2.69-25.19,3.28-9.44-1.42-11.84-4.53-13.43-.55-.28-1.07-.55-1.48-.82l-1.24,1.93c.51,.34,1.09,.64,1.71,.95Z"/><path class="d" d="M231.1,328.33c-6.29,.8-10.88,3.92-14.03,9.54-2.74,4.88-6.47,10.58-13.46,15.79-6.16,4.59-35.44,35.38-47.05,47.63h3.23c13.22-13.97,39.59-41.62,45.16-45.77,7.33-5.46,11.24-11.41,14.09-16.5,2.77-4.94,6.81-7.69,12.35-8.4,4.57-.58,56.42-6.27,90.23-9.88v-2.32c-33.85,3.62-85.93,9.33-90.51,9.91Z"/><path class="d" d="M151.83,4.99l.37,3.06c.08-.08,3.07-3.26,7.59-8.04h-3.23c-2.73,2.88-4.48,4.73-4.73,4.99Z"/><path class="d" d="M28.7,315.47c-1.68,.1-13.3,1.31-28.7,2.95v2.32c15.46-1.65,27.15-2.87,28.83-2.97,4.91-.29,7.88,0,10.48,2.4,1.74,1.6,32.68,26.23,59.98,47.96,19.47,15.5,36.29,28.89,38.85,31.01,1.02,.84,1.71,1.54,2.18,2.16h2.63c-.52-1.17-1.55-2.44-3.38-3.95-2.57-2.12-19.4-15.52-38.88-31.03-25.92-20.64-58.18-46.32-59.86-47.86-3.18-2.92-6.71-3.3-12.12-2.98Z"/><path class="d" d="M140.81,4.16c-.3,1.19-.67,2.67-.45,4.58,.58,5.06,8.45,25.1,9.12,26.81,.75,3.42,12.56,57.54,14.89,63.47,.42,1.07,.72,2.02,.98,2.85,1.31,4.18,22.32,55.61,22.32,55.61l2.26-2.03s-21.31-50.72-22.43-54.29c-.27-.87-.58-1.85-1.03-3-2.28-5.82-14.67-62.63-14.8-63.21l-.05-.18c-.08-.21-8.45-21.44-9.01-26.31-.17-1.48,.12-2.63,.4-3.74,.43-1.69,.66-3.13-.06-4.74h-2.63c1.16,1.54,.89,2.6,.5,4.16Z"/><polygon class="d" points="179.36 378.67 178.13 380.6 198 393.77 205.83 401.29 209.12 401.29 199.41 391.96 179.36 378.67"/><polygon class="d" points="234.11 27.19 235.66 25.51 209.12 0 205.83 0 234.11 27.19"/><polygon class="d" points="187.09 293.92 101.81 401.29 104.72 401.29 188.85 295.38 187.09 293.92"/><polygon class="d" points="51.32 63.57 53.07 65.02 104.72 0 101.81 0 51.32 63.57"/><path class="d" d="M120.26,61.8c-.03,.56-.07,1.14-.14,1.71l-.04,.29,.1,.27c.08,.21,2,5.14,5.34,6.51,3.16,1.29,9.29-.34,14.71-1.78l.65-.17c4.57-1.21,6.65-5.92,6.65-9.79,0-.91-.13-1.73-.37-2.36-1.11-2.9-3.89-4.81-7.6-5.26-3.67-.44-10.15,1.28-14.61,3.06-4.35,1.74-4.53,4.81-4.7,7.52Zm19.04-8.29c2.86,.34,4.96,1.73,5.76,3.81,.08,.21,.22,.68,.22,1.52,0,2.51-1.32,6.6-4.96,7.56l-.65,.17c-4.83,1.28-10.83,2.87-13.3,1.87-1.9-.77-3.42-3.62-3.97-4.95,.06-.53,.09-1.05,.12-1.55,.15-2.6,.25-4.31,3.26-5.51,4.24-1.69,10.42-3.29,13.53-2.92Z"/></g></g></g></svg>