<svg width="54" height="60" viewBox="0 0 54 60" fill="none" xmlns="http://www.w3.org/2000/svg">
<path d="M51.2669 50.0476H48.0202C47.1307 49.4221 46.0481 49.0534 44.8803 49.0534C43.7127 49.0534 42.6301 49.4222 41.7404 50.0476H19.2531C18.6643 49.6336 17.9911 49.3324 17.2643 49.1762L17.0722 47.7942H46.2578C46.8208 47.7942 47.3183 47.4353 47.4957 46.901L53.5372 28.7172C53.669 28.3206 53.6017 27.8815 53.3572 27.5426C53.1126 27.2037 52.7171 27.0013 52.2992 27.0013H44.2104L45.7713 22.1041L46.9075 24.1445C47.2215 24.7082 47.7328 25.1266 48.3472 25.3224C48.5963 25.4017 48.8548 25.441 49.1126 25.441C49.5398 25.441 49.9653 25.3334 50.3437 25.1227C50.9333 24.7944 51.3597 24.2562 51.5445 23.6072C51.7293 22.9581 51.6502 22.276 51.322 21.6864L49.0057 17.5267C48.7762 17.1149 48.2564 16.9668 47.8443 17.1961C47.4324 17.4256 47.2844 17.9456 47.5137 18.3575L49.8301 22.5171C49.9364 22.7082 49.962 22.9292 49.9021 23.1395C49.8423 23.3499 49.704 23.5243 49.5131 23.6307C49.3135 23.7418 49.0836 23.7648 48.8657 23.6953C48.6667 23.6319 48.501 23.4964 48.3993 23.3137L38.1738 4.95042C37.9545 4.55655 37.4667 4.40128 37.0598 4.59534L18.0939 13.6545C17.8965 13.7488 17.6745 13.7606 17.4681 13.6877C17.262 13.6148 17.0965 13.466 17.0023 13.2686C16.9081 13.0713 16.8962 12.8491 16.9691 12.6428C17.042 12.4367 17.1908 12.2712 17.3882 12.177L37.7718 2.44062C38.161 2.25453 38.6302 2.40429 38.84 2.78117L44.9321 13.7215C45.1617 14.1335 45.6815 14.2815 46.0934 14.0521C46.5053 13.8227 46.6534 13.3027 46.424 12.8908L40.3319 1.95043C39.6845 0.787577 38.2365 0.325977 37.0358 0.899843L30.9244 3.81898L31.3555 2.4664C31.5514 1.85093 31.2103 1.19058 30.5947 0.994179L27.6511 0.0559774C27.3527 -0.0391787 27.0353 -0.0123428 26.7573 0.131329C26.4792 0.275 26.2737 0.518398 26.1786 0.816523L24.1975 7.03214L16.6519 10.6362C16.043 10.9271 15.5837 11.4377 15.3588 12.0739C15.134 12.7101 15.1703 13.3959 15.4611 14.0047C15.752 14.6136 16.2625 15.0728 16.8987 15.2978C17.5351 15.5227 18.2208 15.4865 18.8297 15.1955L20.9371 14.189L16.8532 27.0017H14.0212L12.9798 20.0225C12.7793 18.681 11.7519 17.5965 10.4233 17.3239L3.55586 15.9143C2.85836 15.7713 2.14656 15.9083 1.55184 16.3002C0.95723 16.6924 0.550942 17.2925 0.407856 17.9901C0.264653 18.6877 0.401645 19.3995 0.793754 19.994C1.18586 20.5886 1.78598 20.9949 2.48371 21.138L7.92155 22.2541L12.1119 50.7978C11.1997 51.776 10.6401 53.0868 10.6401 54.5267C10.6401 57.5447 13.0953 60 16.1133 60C18.8408 60 21.1083 57.9944 21.5195 55.3806H39.4742C39.8854 57.9942 42.1528 59.9997 44.8803 59.9997C47.6078 59.9997 49.8753 57.9942 50.2865 55.3803H51.2669C52.7371 55.3803 53.9333 54.1842 53.9333 52.714C53.9333 51.2437 52.7371 50.0476 51.2669 50.0476ZM27.643 1.84543L29.5658 2.45832L28.8103 4.82866L26.3118 6.0221L27.643 1.84543ZM23.0514 13.179L37.0721 6.48194L44.6314 20.0573L42.4181 27.0016H35.2669L37.2568 20.758C37.4887 20.0304 37.0856 19.2497 36.3579 19.0177L30.4008 17.119C29.6732 16.8869 28.8925 17.2902 28.6604 18.018L25.7971 27.0016H18.6457L23.0514 13.179ZM33.4745 27.0014H27.5893L30.1894 18.8439L35.5319 20.5466L33.4745 27.0014ZM51.7405 28.709L45.9669 46.0864H16.8348C16.8345 46.084 16.8348 46.0864 16.8345 46.084L14.274 28.709H51.7405ZM9.5221 21.4113C9.46913 21.0569 9.20042 20.7732 8.84932 20.7011L2.82695 19.465C2.57606 19.4134 2.36031 19.2674 2.21934 19.0537C2.07836 18.8399 2.02914 18.584 2.08059 18.3331C2.13215 18.0822 2.27817 17.8665 2.49203 17.7255C2.65059 17.6209 2.83211 17.5668 3.01785 17.5668C3.08254 17.5668 3.14781 17.5734 3.21262 17.5867L10.0801 18.9964C10.7096 19.1255 11.1962 19.6393 11.2912 20.2747L15.5276 49.0846C15.4527 49.0925 15.3782 49.1025 15.3039 49.1136C15.2733 49.1182 15.2431 49.1237 15.2127 49.1287C15.1519 49.1388 15.0912 49.1491 15.0308 49.1613C14.9963 49.1682 14.9623 49.1765 14.9279 49.1842C14.8774 49.1953 14.8269 49.2065 14.7768 49.2191C14.7431 49.2275 14.71 49.2369 14.6766 49.246C14.6254 49.26 14.5743 49.2742 14.5235 49.2896C14.4935 49.2988 14.4639 49.3084 14.4341 49.318C14.379 49.3357 14.3243 49.3542 14.2698 49.3737C14.2457 49.3823 14.2217 49.3911 14.1976 49.4001C14.1356 49.4233 14.0741 49.4476 14.0131 49.473C13.9975 49.4795 13.9819 49.4859 13.9663 49.4926C13.8933 49.5238 13.821 49.5566 13.7493 49.5909C13.746 49.5924 13.7427 49.594 13.7394 49.5955C13.717 49.6063 13.6943 49.6161 13.672 49.6272L9.5221 21.4113ZM16.1133 58.2921C14.037 58.2921 12.3477 56.6028 12.3477 54.5265C12.3477 52.9726 13.2939 51.6357 14.6403 51.0613C14.6504 51.0569 14.6606 51.0529 14.6708 51.0487C14.714 51.0308 14.7574 51.0136 14.8013 50.9972C14.8187 50.9906 14.8364 50.9845 14.854 50.9783C14.8909 50.9652 14.9281 50.9525 14.9656 50.9404C14.9882 50.9332 15.0109 50.9263 15.0338 50.9195C15.0668 50.9095 15.1001 50.9001 15.1336 50.8911C15.1596 50.8841 15.1856 50.8774 15.2118 50.871C15.2429 50.8632 15.2744 50.8561 15.3059 50.8492C15.3338 50.8431 15.3617 50.8371 15.3897 50.8316C15.4205 50.8256 15.4515 50.8202 15.4826 50.8149C15.5111 50.8101 15.5394 50.8052 15.5681 50.801C15.6005 50.7963 15.6332 50.7924 15.6659 50.7886C15.6932 50.7853 15.7204 50.7818 15.7478 50.7791C15.7854 50.7755 15.8234 50.773 15.8613 50.7704C15.8841 50.7689 15.9066 50.7668 15.9294 50.7657C15.9905 50.7628 16.0518 50.761 16.1135 50.761C16.1667 50.761 16.2195 50.7629 16.2722 50.765C16.324 50.7675 16.3779 50.771 16.4351 50.7758C16.4358 50.7758 16.4365 50.7758 16.4372 50.7758C17.2083 50.8418 17.9138 51.1406 18.4825 51.6023C18.5053 51.6208 18.5277 51.6399 18.5501 51.6589C18.5794 51.6839 18.6088 51.7087 18.6373 51.7345C18.6497 51.7456 18.6615 51.7574 18.6737 51.7686C19.145 52.2064 19.5045 52.7629 19.7036 53.3905C19.7064 53.3993 19.7093 53.4079 19.712 53.4167C19.7262 53.4627 19.7391 53.5092 19.7516 53.5558C19.7566 53.5751 19.7618 53.5943 19.7666 53.6135C19.7768 53.6542 19.7862 53.6951 19.795 53.7362C19.8006 53.7628 19.8059 53.7895 19.811 53.8162C19.8179 53.8524 19.8246 53.8888 19.8306 53.9253C19.836 53.9587 19.8404 53.9924 19.8449 54.026C19.8491 54.0575 19.8536 54.089 19.857 54.1209C19.8614 54.1629 19.8646 54.2051 19.8676 54.2472C19.8695 54.2721 19.872 54.2968 19.8732 54.3218C19.8769 54.3897 19.879 54.4579 19.879 54.5266C19.8789 56.6029 18.1896 58.2921 16.1133 58.2921ZM39.4732 53.6727H21.5204C21.414 52.9911 21.1809 52.3422 20.8354 51.7551H40.1583C39.8127 52.3422 39.5796 52.9911 39.4732 53.6727ZM44.8803 58.2921C42.804 58.2921 41.1147 56.6028 41.1147 54.5265C41.1147 54.4579 41.1168 54.3896 41.1205 54.3217C41.1219 54.2967 41.1243 54.272 41.1262 54.2471C41.1293 54.2049 41.1324 54.1627 41.1369 54.1208C41.1403 54.089 41.1447 54.0575 41.149 54.0259C41.1534 53.9922 41.1579 53.9586 41.1632 53.9252C41.1691 53.8886 41.1758 53.8523 41.1828 53.8161C41.188 53.7894 41.1931 53.7627 41.1989 53.7361C41.2077 53.6949 41.2172 53.654 41.2272 53.6134C41.232 53.594 41.2371 53.5749 41.2422 53.5557C41.2547 53.5091 41.2677 53.4626 41.2818 53.4166C41.2845 53.4078 41.2875 53.3992 41.2903 53.3904C41.4893 52.7628 41.8488 52.2064 42.3201 51.7685C42.3323 51.7571 42.3441 51.7455 42.3566 51.7344C42.385 51.7086 42.4145 51.6838 42.4438 51.6588C42.4661 51.6398 42.4885 51.6207 42.5114 51.6022C43.1589 51.0766 43.9832 50.7609 44.8803 50.7609C45.7776 50.7609 46.6021 51.0769 47.2497 51.6027C47.2722 51.621 47.2941 51.6396 47.3162 51.6582C47.3458 51.6834 47.3756 51.7086 47.4045 51.7347C47.4162 51.7453 47.4274 51.7563 47.439 51.7671C47.9112 52.2053 48.2714 52.7625 48.4706 53.3908C48.4733 53.3994 48.4762 53.4079 48.4788 53.4165C48.4931 53.4626 48.506 53.5092 48.5185 53.5561C48.5235 53.5751 48.5286 53.5942 48.5334 53.6133C48.5436 53.6539 48.553 53.6949 48.5619 53.7362C48.5675 53.7628 48.5728 53.7895 48.5779 53.8162C48.5848 53.8524 48.5915 53.8888 48.5975 53.9253C48.6029 53.9587 48.6073 53.9924 48.6118 54.026C48.616 54.0575 48.6205 54.089 48.6239 54.1209C48.6283 54.1629 48.6315 54.2051 48.6345 54.2472C48.6364 54.2721 48.6389 54.2968 48.6401 54.3218C48.6438 54.3897 48.6459 54.4579 48.6459 54.5266C48.646 56.6029 46.9568 58.2921 44.8803 58.2921ZM51.2669 53.6727H50.2876C50.1812 52.9911 49.9481 52.3422 49.6025 51.7551H51.2669C51.7955 51.7551 52.2256 52.1852 52.2256 52.7138C52.2257 53.2427 51.7957 53.6727 51.2669 53.6727Z" fill="#F1B400"/>
</svg>
