<svg width="60" height="61" viewBox="0 0 60 61" fill="none" xmlns="http://www.w3.org/2000/svg">
<path d="M41.042 50.3638H37.8338C35.6657 50.3638 33.9018 48.5999 33.9018 46.4318V20.5311C33.9018 20.0016 33.4727 19.5725 32.9431 19.5725C32.4136 19.5725 31.9845 20.0018 31.9845 20.5311V46.4318C31.9845 49.6571 34.6085 52.2811 37.8338 52.2811H41.042C42.2888 52.2811 43.3032 53.2954 43.3032 54.5423V56.2501H16.6966V54.5423C16.6966 53.2954 17.711 52.2811 18.9579 52.2811H22.166C25.3912 52.2811 28.0154 49.657 28.0154 46.4318V38.8484C28.0154 38.319 27.5861 37.8899 27.0567 37.8899C26.5272 37.8899 26.0981 38.3191 26.0981 38.8484V46.4318C26.0981 48.5999 24.3342 50.3638 22.166 50.3638H18.9579C16.6537 50.3638 14.7793 52.2383 14.7793 54.5423V57.2088C14.7793 57.7383 15.2086 58.1674 15.7379 58.1674H44.2618C44.7914 58.1674 45.2205 57.7381 45.2205 57.2088V54.5423C45.2206 52.2382 43.3461 50.3638 41.042 50.3638Z" fill="#F1B400"/>
<path d="M59.0414 32.8385H56.1561L50.9228 15.975H55.807C56.3366 15.975 56.7657 15.5457 56.7657 15.0163V11.68C56.7657 11.1505 56.3366 10.7214 55.807 10.7214H35.4434C35.0726 9.95613 34.5443 9.28113 33.9019 8.7368V6.55383C33.9019 4.40203 32.1519 2.65137 30.0007 2.65137C28.9583 2.65137 27.9783 3.0573 27.2405 3.79512C26.5038 4.5334 26.0982 5.5132 26.0982 6.55383V8.73703C25.4559 9.28137 24.9277 9.95613 24.5569 10.7215H16.234C15.7045 10.7215 15.2754 11.1507 15.2754 11.6801C15.2754 12.2094 15.7046 12.6387 16.234 12.6387H23.9985C23.9712 12.8716 23.9554 13.1081 23.9554 13.3484C23.9554 13.5885 23.9711 13.8248 23.9985 14.0578H5.15285V12.6388H12.9629C13.4924 12.6388 13.9216 12.2095 13.9216 11.6802C13.9216 11.1509 13.4924 10.7216 12.9629 10.7216H4.19414C3.66469 10.7216 3.23555 11.1509 3.23555 11.6802V15.0165C3.23555 15.546 3.6648 15.9751 4.19414 15.9751H9.07711L3.8441 32.8385H0.958594C0.429141 32.8385 0 33.2678 0 33.7971C0 39.5197 4.65574 44.1756 10.3785 44.1756C16.1012 44.1756 20.757 39.5198 20.757 33.7971C20.757 33.2677 20.3277 32.8385 19.7984 32.8385H16.9131L11.6797 15.9751H24.5566C24.9274 16.7405 25.4557 17.4154 26.0981 17.9598V35.5777C26.0981 36.1071 26.5274 36.5362 27.0567 36.5362C27.5861 36.5362 28.0154 36.107 28.0154 35.5777V19.0567C28.6376 19.2736 29.305 19.393 30.0001 19.393C32.3924 19.393 34.4643 17.996 35.4435 15.9751H48.3204L43.087 32.8386H40.2018C39.6722 32.8386 39.2432 33.2679 39.2432 33.7972C39.2432 39.5198 43.8989 44.1757 49.6215 44.1757C52.4484 44.1757 55.0908 43.0595 57.0622 41.0326C57.4314 40.6532 57.4228 40.0461 57.0435 39.6771C56.6636 39.3078 56.0569 39.3165 55.6879 39.6959C54.0807 41.3483 51.9264 42.2584 49.6218 42.2584C45.2803 42.2584 41.6921 38.9718 41.2146 34.7558H43.7937H55.4501H58.0298C57.9329 35.6207 57.7041 36.4585 57.3458 37.2566C57.1291 37.7396 57.3449 38.3069 57.8279 38.5236C58.3109 38.7403 58.8784 38.5246 59.095 38.0415C59.6954 36.703 60 35.275 60 33.7971C60 33.2678 59.5707 32.8385 59.0414 32.8385ZM18.7857 34.7558C18.3081 38.9718 14.7199 42.2584 10.3785 42.2584C6.03703 42.2584 2.44875 38.9718 1.97133 34.7558H4.55039H16.2068H18.7857ZM14.9055 32.8385H5.85152L10.3785 18.2509L14.9055 32.8385ZM28.0154 6.55383C28.0154 6.02437 28.2223 5.52562 28.5969 5.15016C28.9718 4.77527 29.4703 4.56867 30.0006 4.56867C31.0946 4.56867 31.9845 5.45918 31.9845 6.55383V7.63992C31.3623 7.42301 30.695 7.30359 30 7.30359C29.305 7.30359 28.6375 7.42301 28.0153 7.63992V6.55383H28.0154ZM30.0001 17.4757C27.7242 17.4757 25.8727 15.6243 25.8727 13.3484C25.8727 11.0725 27.7242 9.2209 30.0001 9.2209C32.276 9.2209 34.1275 11.0725 34.1275 13.3484C34.1273 15.6243 32.2758 17.4757 30.0001 17.4757ZM36.0016 14.0578C36.0289 13.825 36.0448 13.5885 36.0448 13.3484C36.0448 13.1082 36.0291 12.8718 36.0016 12.6387H54.8483V14.0577H36.0016V14.0578ZM45.0945 32.8385L49.6213 18.2509L54.1482 32.8385H45.0945Z" fill="#F1B400"/>
<path d="M30.0002 10.6313C28.5021 10.6313 27.2832 11.8501 27.2832 13.3483C27.2832 14.8466 28.502 16.0653 30.0002 16.0653C31.4982 16.0653 32.7171 14.8466 32.7171 13.3483C32.7171 11.8501 31.4981 10.6313 30.0002 10.6313ZM30.0002 14.1479C29.5593 14.1479 29.2005 13.7892 29.2005 13.3482C29.2005 12.9072 29.5593 12.5485 30.0002 12.5485C30.4411 12.5485 30.7998 12.9072 30.7998 13.3482C30.7996 13.7892 30.4411 14.1479 30.0002 14.1479Z" fill="#F1B400"/>
</svg>
