<svg width="60" height="60" viewBox="0 0 60 60" fill="none" xmlns="http://www.w3.org/2000/svg">
<path d="M58.6343 10.0987L41.9317 0.428959C40.9437 -0.142928 39.7162 -0.143045 38.7281 0.428959L22.0255 10.0987C21.4341 10.4409 21.0115 10.9929 20.8355 11.6532C20.6595 12.3134 20.751 13.0025 21.0933 13.5939L21.734 14.7005C22.2077 15.5187 23.0682 15.9763 23.9519 15.9762C24.3865 15.9762 24.8268 15.8655 25.2292 15.6325L25.3226 15.5785V32.8225C25.3226 33.3079 25.7161 33.7014 26.2015 33.7014H54.4584C54.9438 33.7014 55.3373 33.3079 55.3373 32.8225V15.5785L55.4306 15.6325C56.6512 16.3393 58.2191 15.9209 58.9258 14.7004L59.5664 13.5937C60.273 12.3731 59.8549 10.8052 58.6343 10.0987ZM53.5793 31.9436H27.0803V14.5608L40.3298 6.89023L53.5793 14.5608V31.9436ZM58.0451 12.7131L57.4044 13.8197C57.1834 14.2015 56.6933 14.3323 56.3111 14.1112L40.7702 5.11398C40.4979 4.95624 40.1619 4.95624 39.8894 5.11398L24.3484 14.1111C23.9664 14.3321 23.4763 14.2014 23.2552 13.8196L22.6146 12.7129C22.5075 12.528 22.4789 12.3125 22.5339 12.106C22.589 11.8995 22.7212 11.7269 22.9061 11.6199L39.6088 1.95032C39.8311 1.82153 40.0805 1.75719 40.3298 1.75719C40.5792 1.75719 40.8286 1.82153 41.0509 1.95032L57.7535 11.6199C58.1352 11.8409 58.2661 12.3312 58.0451 12.7131Z" fill="#F1B400"/>
<path d="M32.7896 16.0608V24.8313C32.7896 26.4681 34.1212 27.7998 35.758 27.7998H44.9023C46.5391 27.7998 47.8707 26.4681 47.8707 24.8313V16.0608C47.8707 14.5181 46.7135 13.2477 45.179 13.1055C44.6966 13.0622 44.2676 13.4163 44.2227 13.8997C44.178 14.3831 44.5335 14.8111 45.0169 14.856C45.6417 14.9139 46.1129 15.4319 46.1129 16.061V24.8315C46.1129 25.499 45.5698 26.042 44.9023 26.042H35.758C35.0905 26.042 34.5474 25.499 34.5474 24.8315V16.061C34.5474 15.3934 35.0905 14.8504 35.758 14.8504H41.5823C42.0677 14.8504 42.4612 14.4569 42.4612 13.9715C42.4612 13.4861 42.0677 13.0925 41.5823 13.0925H35.758C34.1212 13.0924 32.7896 14.424 32.7896 16.0608Z" fill="#F1B400"/>
<path d="M36.3574 15.7817C35.872 15.7817 35.4785 16.1753 35.4785 16.6607V24.2322C35.4785 24.7176 35.872 25.1111 36.3574 25.1111H44.3028C44.7882 25.1111 45.1817 24.7176 45.1817 24.2322V16.6607C45.1817 16.1753 44.7882 15.7817 44.3028 15.7817H36.3574ZM39.4511 17.5396V19.5674H37.2364V17.5396H39.4511ZM37.2364 21.3253H39.4511V23.3533H37.2364V21.3253ZM41.209 23.3533V21.3253H43.4238V23.3533H41.209ZM43.4239 19.5674H41.2091V17.5396H43.4239V19.5674Z" fill="#F1B400"/>
<path d="M13.1899 33.7991C5.9662 33.7991 0.0893555 39.6759 0.0893555 46.8995C0.0893555 54.1232 5.9662 60.0001 13.1899 60.0001C20.4136 60.0001 26.2905 54.1232 26.2905 46.8995C26.2903 39.6759 20.4135 33.7991 13.1899 33.7991ZM13.1899 58.2422C6.93548 58.2422 1.84721 53.1539 1.84721 46.8995C1.84721 40.6452 6.93548 35.5569 13.1899 35.5569C19.4443 35.5569 24.5326 40.6452 24.5326 46.8995C24.5325 53.1539 19.4442 58.2422 13.1899 58.2422Z" fill="#F1B400"/>
<path d="M13.1896 37.4456C7.97683 37.4456 3.73584 41.6864 3.73584 46.8993C3.73584 48.4199 4.10511 49.9307 4.80368 51.2684C5.02845 51.6986 5.55932 51.8653 5.98964 51.6406C6.41984 51.4159 6.58649 50.8848 6.36183 50.4546C5.78573 49.3516 5.49369 48.1554 5.49369 46.8993C5.49369 42.6558 8.94599 39.2034 13.1896 39.2034C17.4337 39.2034 20.8866 42.6557 20.8866 46.8993C20.8866 51.1434 17.4337 54.5963 13.1896 54.5963C11.411 54.5963 9.67644 53.9752 8.30566 52.8476C7.93066 52.5392 7.37705 52.5931 7.06849 52.968C6.76016 53.3429 6.81407 53.8967 7.18884 54.2051C8.87345 55.591 11.0045 56.3542 13.1896 56.3542C18.403 56.3542 22.6444 52.1127 22.6444 46.8993C22.6444 41.6865 18.403 37.4456 13.1896 37.4456Z" fill="#F1B400"/>
<path d="M13.1323 50.5367C13.1321 50.5367 13.132 50.5367 13.1317 50.5367C13.1294 50.5367 13.1272 50.537 13.1248 50.537C12.2069 50.5442 11.9191 50.4972 11.2103 50.0336C10.8041 49.7678 10.2593 49.8817 9.99363 50.2879C9.72784 50.6941 9.84175 51.2389 10.2479 51.5045C11.0074 52.0014 11.5629 52.1962 12.2528 52.2637V52.7446C12.2528 53.23 12.6463 53.6236 13.1317 53.6236C13.6171 53.6236 14.0107 53.23 14.0107 52.7446V52.1799C15.3974 51.8132 16.286 50.6226 16.4836 49.4481C16.74 47.9229 15.9121 46.5447 14.4234 46.0184C13.5713 45.7172 12.6284 45.353 12.0959 44.9353C11.9112 44.7905 11.833 44.4785 11.8968 44.1404C11.9604 43.8029 12.1879 43.3942 12.6359 43.2592C13.659 42.9507 14.3361 43.4803 14.4099 43.5417C14.7831 43.8519 15.3373 43.8012 15.6478 43.428C15.9583 43.0548 15.9073 42.5006 15.5341 42.1903C15.386 42.067 14.8398 41.6537 14.0108 41.481V41.0547C14.0108 40.5693 13.6173 40.1758 13.1319 40.1758C12.6465 40.1758 12.2529 40.5693 12.2529 41.0547V41.5415C12.2118 41.5525 12.1707 41.5635 12.129 41.5761C11.1235 41.8789 10.3726 42.7367 10.1695 43.8149C9.98285 44.8055 10.3054 45.7648 11.0113 46.3184C11.6017 46.7815 12.4206 47.1747 13.8378 47.6757C14.8273 48.0254 14.8055 48.8278 14.7503 49.1565C14.6393 49.8156 14.0858 50.5274 13.1323 50.5367Z" fill="#F1B400"/>
<path d="M45.1905 38.2814C44.7271 37.3426 43.8267 36.7414 42.7821 36.6732C41.7372 36.6046 40.7665 37.0839 40.1849 37.9547L35.5097 44.9544C34.9282 45.8251 34.8576 46.9055 35.3208 47.8445C35.5708 48.3511 35.9481 48.7595 36.4066 49.0388C35.6256 49.6909 34.7513 50.2231 33.7942 50.6276C32.8469 51.028 32.1123 51.7733 31.7256 52.7262C31.3388 53.6792 31.3464 54.7257 31.7468 55.6729C32.3671 57.1406 33.7968 58.0242 35.2983 58.0241C35.7972 58.0241 36.3043 57.9265 36.792 57.7203C40.4719 56.165 43.5424 53.4216 45.4935 49.96L46.1301 50.0015C47.1755 50.0702 48.146 49.5906 48.7274 48.7198C49.3089 47.849 49.3793 46.7686 48.9159 45.8297L45.1905 38.2814ZM47.2654 47.7437C47.1557 47.908 46.8378 48.285 46.2446 48.2475L45.0465 48.1693C44.6999 48.146 44.3711 48.3312 44.21 48.6399C42.4678 51.9795 39.5903 54.6293 36.1075 56.1014C35.0448 56.5505 33.8149 56.0512 33.3657 54.9886C33.1482 54.4738 33.144 53.9051 33.3543 53.3872C33.5644 52.8694 33.9636 52.4644 34.4785 52.2469C36.1374 51.5458 37.5842 50.5157 38.7791 49.1854C39.004 48.9351 39.0661 48.5782 38.9392 48.2665C38.8123 47.9548 38.5184 47.743 38.1825 47.7211L37.8438 47.6989C37.2519 47.6603 36.9846 47.2439 36.8972 47.0667C36.8097 46.8895 36.6419 46.424 36.9714 45.9308L41.6466 38.9311C41.9405 38.4912 42.3655 38.4251 42.5938 38.4251C42.6214 38.4251 42.6461 38.4261 42.6675 38.4275C42.8647 38.4404 43.3516 38.5277 43.6141 39.0596L47.3396 46.6079C47.6021 47.1397 47.3752 47.5794 47.2654 47.7437Z" fill="#F1B400"/>
<path d="M4.47704 32.083C4.94041 33.0218 5.84078 33.6229 6.88553 33.6911C6.95127 33.6955 7.01654 33.6976 7.08158 33.6976C8.05075 33.6976 8.93764 33.2256 9.48257 32.4097L14.1578 25.41C14.7392 24.5393 14.8099 23.4589 14.3467 22.5199C14.0967 22.0133 13.7195 21.6049 13.261 21.3256C14.042 20.6734 14.9162 20.1413 15.8734 19.7366C16.8207 19.3363 17.5553 18.591 17.9421 17.6381C18.3288 16.6851 18.3213 15.6386 17.9208 14.6914C17.5205 13.7441 16.7752 13.0095 15.8223 12.6227C14.8693 12.2361 13.8228 12.2436 12.8756 12.6439C9.19569 14.1992 6.1252 16.9426 4.1741 20.4043L3.53764 20.3627C2.49336 20.295 1.52186 20.7735 0.940359 21.6444C0.358862 22.5151 0.288431 23.5956 0.751801 24.5345L4.47704 32.083ZM2.40195 22.6207C2.49008 22.4544 2.90517 22.0595 3.4228 22.1169L4.62071 22.1952C4.96818 22.2175 5.29631 22.0333 5.45733 21.7246C7.19959 18.385 10.0771 15.7352 13.5598 14.2633C14.0747 14.0458 14.6434 14.0415 15.1613 14.2518C15.6791 14.4619 16.0841 14.8612 16.3016 15.376C16.5191 15.8908 16.5232 16.4594 16.3131 16.9773C16.103 17.4951 15.7037 17.9001 15.1889 18.1176C13.5297 18.8189 12.0829 19.8489 10.8883 21.1792C10.6634 21.4297 10.6013 21.7865 10.7283 22.0982C10.8552 22.41 11.1491 22.6217 11.485 22.6435L11.8236 22.6656C12.4155 22.7042 12.6828 23.1206 12.7702 23.2978C12.8576 23.4751 13.0255 23.9405 12.6959 24.4338L8.02075 31.4335C7.69121 31.9266 7.19713 31.9504 6.9999 31.9372C6.80267 31.9243 6.31575 31.837 6.05324 31.305L2.32777 23.7567C2.06538 23.2247 2.29226 22.785 2.40195 22.6207Z" fill="#F1B400"/>
</svg>
