<svg width="61" height="61" viewBox="0 0 61 61" fill="none" xmlns="http://www.w3.org/2000/svg">
<path d="M43.1102 10.7682C42.5557 10.7682 42.1064 11.2176 42.1064 11.772V18.5485L37.7732 11.259C37.5422 10.8705 37.08 10.6843 36.6442 10.804C36.2084 10.9238 35.9062 11.32 35.9062 11.772V22.2016C35.9062 22.756 36.3555 23.2054 36.9101 23.2054C37.4646 23.2054 37.914 22.756 37.914 22.2015V15.425L42.2473 22.7143C42.4315 23.024 42.7625 23.2052 43.1101 23.2052C43.1984 23.2052 43.2879 23.1936 43.376 23.1692C43.8118 23.0494 44.1139 22.6532 44.1139 22.2012V11.772C44.1141 11.2176 43.6648 10.7682 43.1102 10.7682Z" fill="#F1B400"/>
<path d="M21.1698 17.9443C22.3969 17.354 23.253 16.043 23.253 14.5231C23.253 12.4526 21.6654 10.7681 19.7138 10.7681H17.6181C17.0637 10.7681 16.6143 11.2176 16.6143 11.772V22.2016C16.6143 22.756 17.0637 23.2054 17.6181 23.2054C18.1725 23.2054 18.6219 22.756 18.6219 22.2016V18.2781H19.0927L21.2736 22.6498C21.4494 23.002 21.804 23.2056 22.1727 23.2056C22.3233 23.2056 22.4761 23.1717 22.62 23.0998C23.1162 22.8523 23.3176 22.2495 23.0701 21.7535L21.1698 17.9443ZM19.7139 16.2705H18.6221V12.776H19.7139C20.5584 12.776 21.2455 13.5597 21.2455 14.5232C21.2455 15.4867 20.5584 16.2705 19.7139 16.2705Z" fill="#F1B400"/>
<path d="M32.1836 18.0185C32.7381 18.0185 33.1874 17.569 33.1874 17.0146C33.1874 16.4602 32.7381 16.0108 32.1836 16.0108H28.6136V12.7757H32.1835C32.738 12.7757 33.1873 12.3263 33.1873 11.7719C33.1873 11.2175 32.738 10.7681 32.1835 10.7681H27.6098C27.0554 10.7681 26.606 11.2175 26.606 11.7719V22.2015C26.606 22.7559 27.0554 23.2053 27.6098 23.2053H32.1835C32.738 23.2053 33.1873 22.7559 33.1873 22.2015C33.1873 21.6471 32.738 21.1976 32.1835 21.1976H28.6136V18.0185H32.1836Z" fill="#F1B400"/>
<path d="M50.7841 19.3369C50.2296 19.3369 49.7803 19.7863 49.7803 20.3407V22.2013C49.7803 22.7557 50.2296 23.2052 50.7841 23.2052C51.3386 23.2052 51.7879 22.7557 51.7879 22.2013V20.3407C51.7879 19.7864 51.3385 19.3369 50.7841 19.3369Z" fill="#F1B400"/>
<path d="M54.3418 10.7681H47.227C46.6724 10.7681 46.2231 11.2175 46.2231 11.7719C46.2231 12.3263 46.6724 12.7757 47.227 12.7757H49.7805V17.4868C49.7805 18.0412 50.2298 18.4906 50.7843 18.4906C51.3388 18.4906 51.7881 18.0412 51.7881 17.4868V12.7757H54.3418C54.8963 12.7757 55.3456 12.3263 55.3456 11.7719C55.3456 11.2175 54.8963 10.7681 54.3418 10.7681Z" fill="#F1B400"/>
<path d="M57.9913 4.42462H24.4273C23.8729 4.42462 23.4235 4.87403 23.4235 5.42845C23.4235 5.98286 23.8729 6.43228 24.4273 6.43228H56.9874V27.5411H13.9202V6.43228H21.0812C21.6356 6.43228 22.085 5.98286 22.085 5.42845C22.085 4.87403 21.6356 4.42462 21.0812 4.42462H12.9163C12.3619 4.42462 11.9125 4.87403 11.9125 5.42845V7.05841H9.52154V1.41325C9.52154 0.858838 9.07213 0.409424 8.51771 0.409424H2.29436C1.73994 0.409424 1.29053 0.858838 1.29053 1.41325V40.6279C1.29053 41.1824 1.73994 41.6318 2.29436 41.6318C2.84877 41.6318 3.29818 41.1824 3.29818 40.6279V2.41708H7.514V58.4018H3.29818V43.974C3.29818 43.4196 2.84877 42.9702 2.29436 42.9702C1.73994 42.9702 1.29053 43.4196 1.29053 43.974V59.4056C1.29053 59.96 1.73994 60.4094 2.29436 60.4094H8.51783C9.07225 60.4094 9.52166 59.96 9.52166 59.4056V26.915H11.9125V28.545C11.9125 29.0994 12.3619 29.5488 12.9163 29.5488H57.9913C58.5459 29.5488 58.9952 29.0994 58.9952 28.545V5.42845C58.9952 4.87392 58.5458 4.42462 57.9913 4.42462ZM11.9124 24.9074H9.52154V22.1424H11.9124V24.9074ZM11.9124 20.1348H9.52154V13.8386H11.9124V20.1348ZM11.9124 11.831H9.52154V9.06595H11.9124V11.831Z" fill="#F1B400"/>
</svg>
